M48
; DRILL file {KiCad (5.1.5)-3} date 04/15/20 21:15:25
; FORMAT={-:-/ absolute / inch / decimal}
; #@! TF.CreationDate,2020-04-15T21:15:25+02:00
; #@! TF.GenerationSoftware,Kicad,Pcbnew,(5.1.5)-3
; #@! TF.FileFunction,Plated,1,2,PTH
FMAT,2
INCH
T1C0.0276
T2C0.0315
T3C0.0354
T4C0.0394
%
G90
G05
T1
X4.35Y-4.05
X4.65Y-4.05
X3.44Y-4.33
X3.74Y-4.33
X4.35Y-3.89
X4.65Y-3.89
T2
X4.47Y-4.51
X4.47Y-4.6084
X3.86Y-4.34
X3.86Y-4.44
X3.86Y-4.54
X3.86Y-4.64
X4.16Y-4.34
X4.16Y-4.44
X4.16Y-4.54
X4.16Y-4.64
X3.9131Y-4.1
X4.11Y-4.1
X4.39Y-4.27
X4.69Y-4.27
T3
X3.54Y-4.57
X3.64Y-4.57
X3.74Y-4.57
T4
X4.94Y-4.27
X3.27Y-4.28
X4.75Y-4.61
X4.79Y-3.89
X3.51Y-4.13
X3.96Y-3.89
X4.06Y-3.89
T0
M30
