%TF.GenerationSoftware,KiCad,Pcbnew,(5.1.5)-3*%
%TF.CreationDate,2020-04-15T21:14:39+02:00*%
%TF.ProjectId,NE555,4e453535-352e-46b6-9963-61645f706362,v1.1*%
%TF.SameCoordinates,Original*%
%TF.FileFunction,Copper,L1,Top*%
%TF.FilePolarity,Positive*%
%FSLAX46Y46*%
G04 Gerber Fmt 4.6, Leading zero omitted, Abs format (unit mm)*
G04 Created by KiCad (PCBNEW (5.1.5)-3) date 2020-04-15 21:14:39*
%MOMM*%
%LPD*%
G04 APERTURE LIST*
%ADD10C,1.600000*%
%ADD11R,1.600000X1.600000*%
%ADD12C,0.100000*%
%ADD13O,1.600000X1.600000*%
%ADD14R,1.800000X1.800000*%
%ADD15C,1.800000*%
%ADD16R,1.700000X1.700000*%
%ADD17O,1.700000X1.700000*%
%ADD18C,1.400000*%
%ADD19O,1.400000X1.400000*%
%ADD20C,0.500000*%
%ADD21C,0.200000*%
%ADD22C,0.254000*%
G04 APERTURE END LIST*
D10*
X104394000Y-104140000D03*
X99394000Y-104140000D03*
D11*
X113538000Y-114554000D03*
D10*
X113538000Y-117054000D03*
%TA.AperFunction,SMDPad,CuDef*%
D12*
G36*
X92217504Y-97932204D02*
G01*
X92241773Y-97935804D01*
X92265571Y-97941765D01*
X92288671Y-97950030D01*
X92310849Y-97960520D01*
X92331893Y-97973133D01*
X92351598Y-97987747D01*
X92369777Y-98004223D01*
X92386253Y-98022402D01*
X92400867Y-98042107D01*
X92413480Y-98063151D01*
X92423970Y-98085329D01*
X92432235Y-98108429D01*
X92438196Y-98132227D01*
X92441796Y-98156496D01*
X92443000Y-98181000D01*
X92443000Y-99431000D01*
X92441796Y-99455504D01*
X92438196Y-99479773D01*
X92432235Y-99503571D01*
X92423970Y-99526671D01*
X92413480Y-99548849D01*
X92400867Y-99569893D01*
X92386253Y-99589598D01*
X92369777Y-99607777D01*
X92351598Y-99624253D01*
X92331893Y-99638867D01*
X92310849Y-99651480D01*
X92288671Y-99661970D01*
X92265571Y-99670235D01*
X92241773Y-99676196D01*
X92217504Y-99679796D01*
X92193000Y-99681000D01*
X91268000Y-99681000D01*
X91243496Y-99679796D01*
X91219227Y-99676196D01*
X91195429Y-99670235D01*
X91172329Y-99661970D01*
X91150151Y-99651480D01*
X91129107Y-99638867D01*
X91109402Y-99624253D01*
X91091223Y-99607777D01*
X91074747Y-99589598D01*
X91060133Y-99569893D01*
X91047520Y-99548849D01*
X91037030Y-99526671D01*
X91028765Y-99503571D01*
X91022804Y-99479773D01*
X91019204Y-99455504D01*
X91018000Y-99431000D01*
X91018000Y-98181000D01*
X91019204Y-98156496D01*
X91022804Y-98132227D01*
X91028765Y-98108429D01*
X91037030Y-98085329D01*
X91047520Y-98063151D01*
X91060133Y-98042107D01*
X91074747Y-98022402D01*
X91091223Y-98004223D01*
X91109402Y-97987747D01*
X91129107Y-97973133D01*
X91150151Y-97960520D01*
X91172329Y-97950030D01*
X91195429Y-97941765D01*
X91219227Y-97935804D01*
X91243496Y-97932204D01*
X91268000Y-97931000D01*
X92193000Y-97931000D01*
X92217504Y-97932204D01*
G37*
%TD.AperFunction*%
%TA.AperFunction,SMDPad,CuDef*%
G36*
X95192504Y-97932204D02*
G01*
X95216773Y-97935804D01*
X95240571Y-97941765D01*
X95263671Y-97950030D01*
X95285849Y-97960520D01*
X95306893Y-97973133D01*
X95326598Y-97987747D01*
X95344777Y-98004223D01*
X95361253Y-98022402D01*
X95375867Y-98042107D01*
X95388480Y-98063151D01*
X95398970Y-98085329D01*
X95407235Y-98108429D01*
X95413196Y-98132227D01*
X95416796Y-98156496D01*
X95418000Y-98181000D01*
X95418000Y-99431000D01*
X95416796Y-99455504D01*
X95413196Y-99479773D01*
X95407235Y-99503571D01*
X95398970Y-99526671D01*
X95388480Y-99548849D01*
X95375867Y-99569893D01*
X95361253Y-99589598D01*
X95344777Y-99607777D01*
X95326598Y-99624253D01*
X95306893Y-99638867D01*
X95285849Y-99651480D01*
X95263671Y-99661970D01*
X95240571Y-99670235D01*
X95216773Y-99676196D01*
X95192504Y-99679796D01*
X95168000Y-99681000D01*
X94243000Y-99681000D01*
X94218496Y-99679796D01*
X94194227Y-99676196D01*
X94170429Y-99670235D01*
X94147329Y-99661970D01*
X94125151Y-99651480D01*
X94104107Y-99638867D01*
X94084402Y-99624253D01*
X94066223Y-99607777D01*
X94049747Y-99589598D01*
X94035133Y-99569893D01*
X94022520Y-99548849D01*
X94012030Y-99526671D01*
X94003765Y-99503571D01*
X93997804Y-99479773D01*
X93994204Y-99455504D01*
X93993000Y-99431000D01*
X93993000Y-98181000D01*
X93994204Y-98156496D01*
X93997804Y-98132227D01*
X94003765Y-98108429D01*
X94012030Y-98085329D01*
X94022520Y-98063151D01*
X94035133Y-98042107D01*
X94049747Y-98022402D01*
X94066223Y-98004223D01*
X94084402Y-97987747D01*
X94104107Y-97973133D01*
X94125151Y-97960520D01*
X94147329Y-97950030D01*
X94170429Y-97941765D01*
X94194227Y-97935804D01*
X94218496Y-97932204D01*
X94243000Y-97931000D01*
X95168000Y-97931000D01*
X95192504Y-97932204D01*
G37*
%TD.AperFunction*%
D11*
X119126000Y-108458000D03*
D13*
X111506000Y-108458000D03*
D14*
X94996000Y-116078000D03*
D15*
X92456000Y-116078000D03*
X89916000Y-116078000D03*
D16*
X103124000Y-98806000D03*
D17*
X100584000Y-98806000D03*
D16*
X89154000Y-104902000D03*
X120650000Y-117094000D03*
X83058000Y-108712000D03*
X125476000Y-108458000D03*
X121666000Y-98806000D03*
D18*
X110490000Y-98806000D03*
D19*
X118110000Y-98806000D03*
X118110000Y-102870000D03*
D18*
X110490000Y-102870000D03*
%TA.AperFunction,SMDPad,CuDef*%
D12*
G36*
X92217504Y-100980204D02*
G01*
X92241773Y-100983804D01*
X92265571Y-100989765D01*
X92288671Y-100998030D01*
X92310849Y-101008520D01*
X92331893Y-101021133D01*
X92351598Y-101035747D01*
X92369777Y-101052223D01*
X92386253Y-101070402D01*
X92400867Y-101090107D01*
X92413480Y-101111151D01*
X92423970Y-101133329D01*
X92432235Y-101156429D01*
X92438196Y-101180227D01*
X92441796Y-101204496D01*
X92443000Y-101229000D01*
X92443000Y-102479000D01*
X92441796Y-102503504D01*
X92438196Y-102527773D01*
X92432235Y-102551571D01*
X92423970Y-102574671D01*
X92413480Y-102596849D01*
X92400867Y-102617893D01*
X92386253Y-102637598D01*
X92369777Y-102655777D01*
X92351598Y-102672253D01*
X92331893Y-102686867D01*
X92310849Y-102699480D01*
X92288671Y-102709970D01*
X92265571Y-102718235D01*
X92241773Y-102724196D01*
X92217504Y-102727796D01*
X92193000Y-102729000D01*
X91268000Y-102729000D01*
X91243496Y-102727796D01*
X91219227Y-102724196D01*
X91195429Y-102718235D01*
X91172329Y-102709970D01*
X91150151Y-102699480D01*
X91129107Y-102686867D01*
X91109402Y-102672253D01*
X91091223Y-102655777D01*
X91074747Y-102637598D01*
X91060133Y-102617893D01*
X91047520Y-102596849D01*
X91037030Y-102574671D01*
X91028765Y-102551571D01*
X91022804Y-102527773D01*
X91019204Y-102503504D01*
X91018000Y-102479000D01*
X91018000Y-101229000D01*
X91019204Y-101204496D01*
X91022804Y-101180227D01*
X91028765Y-101156429D01*
X91037030Y-101133329D01*
X91047520Y-101111151D01*
X91060133Y-101090107D01*
X91074747Y-101070402D01*
X91091223Y-101052223D01*
X91109402Y-101035747D01*
X91129107Y-101021133D01*
X91150151Y-101008520D01*
X91172329Y-100998030D01*
X91195429Y-100989765D01*
X91219227Y-100983804D01*
X91243496Y-100980204D01*
X91268000Y-100979000D01*
X92193000Y-100979000D01*
X92217504Y-100980204D01*
G37*
%TD.AperFunction*%
%TA.AperFunction,SMDPad,CuDef*%
G36*
X95192504Y-100980204D02*
G01*
X95216773Y-100983804D01*
X95240571Y-100989765D01*
X95263671Y-100998030D01*
X95285849Y-101008520D01*
X95306893Y-101021133D01*
X95326598Y-101035747D01*
X95344777Y-101052223D01*
X95361253Y-101070402D01*
X95375867Y-101090107D01*
X95388480Y-101111151D01*
X95398970Y-101133329D01*
X95407235Y-101156429D01*
X95413196Y-101180227D01*
X95416796Y-101204496D01*
X95418000Y-101229000D01*
X95418000Y-102479000D01*
X95416796Y-102503504D01*
X95413196Y-102527773D01*
X95407235Y-102551571D01*
X95398970Y-102574671D01*
X95388480Y-102596849D01*
X95375867Y-102617893D01*
X95361253Y-102637598D01*
X95344777Y-102655777D01*
X95326598Y-102672253D01*
X95306893Y-102686867D01*
X95285849Y-102699480D01*
X95263671Y-102709970D01*
X95240571Y-102718235D01*
X95216773Y-102724196D01*
X95192504Y-102727796D01*
X95168000Y-102729000D01*
X94243000Y-102729000D01*
X94218496Y-102727796D01*
X94194227Y-102724196D01*
X94170429Y-102718235D01*
X94147329Y-102709970D01*
X94125151Y-102699480D01*
X94104107Y-102686867D01*
X94084402Y-102672253D01*
X94066223Y-102655777D01*
X94049747Y-102637598D01*
X94035133Y-102617893D01*
X94022520Y-102596849D01*
X94012030Y-102574671D01*
X94003765Y-102551571D01*
X93997804Y-102527773D01*
X93994204Y-102503504D01*
X93993000Y-102479000D01*
X93993000Y-101229000D01*
X93994204Y-101204496D01*
X93997804Y-101180227D01*
X94003765Y-101156429D01*
X94012030Y-101133329D01*
X94022520Y-101111151D01*
X94035133Y-101090107D01*
X94049747Y-101070402D01*
X94066223Y-101052223D01*
X94084402Y-101035747D01*
X94104107Y-101021133D01*
X94125151Y-101008520D01*
X94147329Y-100998030D01*
X94170429Y-100989765D01*
X94194227Y-100983804D01*
X94218496Y-100980204D01*
X94243000Y-100979000D01*
X95168000Y-100979000D01*
X95192504Y-100980204D01*
G37*
%TD.AperFunction*%
D18*
X87376000Y-109982000D03*
D19*
X94996000Y-109982000D03*
D11*
X98044000Y-110236000D03*
D13*
X105664000Y-117856000D03*
X98044000Y-112776000D03*
X105664000Y-115316000D03*
X98044000Y-115316000D03*
X105664000Y-112776000D03*
X98044000Y-117856000D03*
X105664000Y-110236000D03*
D20*
X101823999Y-97505999D02*
X103124000Y-98806000D01*
X96718001Y-97505999D02*
X101823999Y-97505999D01*
X95418000Y-98806000D02*
X96718001Y-97505999D01*
X94705500Y-98806000D02*
X95418000Y-98806000D01*
X103124000Y-98806000D02*
X110490000Y-98806000D01*
X103124000Y-102870000D02*
X104394000Y-104140000D01*
X103124000Y-98806000D02*
X103124000Y-102870000D01*
X104394000Y-108966000D02*
X105664000Y-110236000D01*
X104394000Y-104140000D02*
X104394000Y-108966000D01*
D21*
X94705500Y-102729000D02*
X94705500Y-101854000D01*
X120610000Y-117054000D02*
X120650000Y-117094000D01*
X88104000Y-104902000D02*
X89154000Y-104902000D01*
X103124000Y-112776000D02*
X105664000Y-115316000D01*
X98044000Y-112776000D02*
X103124000Y-112776000D01*
X112776000Y-115316000D02*
X113538000Y-114554000D01*
X105664000Y-115316000D02*
X112776000Y-115316000D01*
X119126000Y-109458000D02*
X119126000Y-108458000D01*
X119126000Y-109966000D02*
X119126000Y-109458000D01*
X114538000Y-114554000D02*
X119126000Y-109966000D01*
X113538000Y-114554000D02*
X114538000Y-114554000D01*
X119126000Y-108458000D02*
X125476000Y-108458000D01*
X119126000Y-103886000D02*
X118110000Y-102870000D01*
X119126000Y-108458000D02*
X119126000Y-103886000D01*
X114046000Y-102870000D02*
X118110000Y-98806000D01*
X110490000Y-102870000D02*
X114046000Y-102870000D01*
X118110000Y-98806000D02*
X121666000Y-98806000D01*
X110490000Y-107442000D02*
X110490000Y-102870000D01*
X111506000Y-108458000D02*
X110490000Y-107442000D01*
X107188000Y-112776000D02*
X105664000Y-112776000D01*
X111506000Y-108458000D02*
X107188000Y-112776000D01*
X94996000Y-109982000D02*
X94996000Y-116078000D01*
X92456000Y-114805208D02*
X92456000Y-116078000D01*
X92456000Y-113581998D02*
X92456000Y-114805208D01*
X87586002Y-108712000D02*
X92456000Y-113581998D01*
X83058000Y-108712000D02*
X87586002Y-108712000D01*
X93355999Y-116977999D02*
X92456000Y-116078000D01*
X93656001Y-117278001D02*
X93355999Y-116977999D01*
X96081999Y-117278001D02*
X93656001Y-117278001D01*
X98044000Y-115316000D02*
X96081999Y-117278001D01*
X91730500Y-98806000D02*
X91730500Y-101854000D01*
D22*
G36*
X96377688Y-96684410D02*
G01*
X96223942Y-96766588D01*
X96223940Y-96766589D01*
X96223941Y-96766589D01*
X96122954Y-96849467D01*
X96122952Y-96849469D01*
X96089184Y-96877182D01*
X96061471Y-96910950D01*
X95575652Y-97396769D01*
X95507850Y-97360528D01*
X95341254Y-97309992D01*
X95168000Y-97292928D01*
X94243000Y-97292928D01*
X94069746Y-97309992D01*
X93903150Y-97360528D01*
X93749614Y-97442595D01*
X93615038Y-97553038D01*
X93504595Y-97687614D01*
X93422528Y-97841150D01*
X93371992Y-98007746D01*
X93354928Y-98181000D01*
X93354928Y-99431000D01*
X93371992Y-99604254D01*
X93422528Y-99770850D01*
X93504595Y-99924386D01*
X93615038Y-100058962D01*
X93749614Y-100169405D01*
X93903150Y-100251472D01*
X94069746Y-100302008D01*
X94243000Y-100319072D01*
X95168000Y-100319072D01*
X95341254Y-100302008D01*
X95507850Y-100251472D01*
X95661386Y-100169405D01*
X95795962Y-100058962D01*
X95906405Y-99924386D01*
X95988472Y-99770850D01*
X96039008Y-99604254D01*
X96056072Y-99431000D01*
X96056072Y-99423540D01*
X96074534Y-99401044D01*
X96312687Y-99162891D01*
X99142519Y-99162891D01*
X99239843Y-99437252D01*
X99388822Y-99687355D01*
X99583731Y-99903588D01*
X99817080Y-100077641D01*
X100079901Y-100202825D01*
X100227110Y-100247476D01*
X100457000Y-100126155D01*
X100457000Y-98933000D01*
X99263186Y-98933000D01*
X99142519Y-99162891D01*
X96312687Y-99162891D01*
X97084580Y-98390999D01*
X99163132Y-98390999D01*
X99142519Y-98449109D01*
X99263186Y-98679000D01*
X100457000Y-98679000D01*
X100457000Y-98659000D01*
X100711000Y-98659000D01*
X100711000Y-98679000D01*
X100731000Y-98679000D01*
X100731000Y-98933000D01*
X100711000Y-98933000D01*
X100711000Y-100126155D01*
X100940890Y-100247476D01*
X101088099Y-100202825D01*
X101350920Y-100077641D01*
X101584269Y-99903588D01*
X101660034Y-99819534D01*
X101684498Y-99900180D01*
X101743463Y-100010494D01*
X101822815Y-100107185D01*
X101919506Y-100186537D01*
X102029820Y-100245502D01*
X102149518Y-100281812D01*
X102239000Y-100290625D01*
X102239001Y-102826521D01*
X102234719Y-102870000D01*
X102251805Y-103043490D01*
X102302412Y-103210313D01*
X102384590Y-103364059D01*
X102467468Y-103465046D01*
X102467471Y-103465049D01*
X102495184Y-103498817D01*
X102528951Y-103526529D01*
X102965983Y-103963561D01*
X102959000Y-103998665D01*
X102959000Y-104281335D01*
X103014147Y-104558574D01*
X103122320Y-104819727D01*
X103279363Y-105054759D01*
X103479241Y-105254637D01*
X103509000Y-105274521D01*
X103509001Y-108922521D01*
X103504719Y-108966000D01*
X103521805Y-109139490D01*
X103572412Y-109306313D01*
X103654590Y-109460059D01*
X103737468Y-109561046D01*
X103737471Y-109561049D01*
X103765184Y-109594817D01*
X103798951Y-109622529D01*
X104235983Y-110059561D01*
X104229000Y-110094665D01*
X104229000Y-110377335D01*
X104284147Y-110654574D01*
X104392320Y-110915727D01*
X104549363Y-111150759D01*
X104749241Y-111350637D01*
X104981759Y-111506000D01*
X104749241Y-111661363D01*
X104549363Y-111861241D01*
X104392320Y-112096273D01*
X104284147Y-112357426D01*
X104229000Y-112634665D01*
X104229000Y-112841554D01*
X103669259Y-112281812D01*
X103646238Y-112253762D01*
X103534320Y-112161913D01*
X103406633Y-112093663D01*
X103268085Y-112051635D01*
X103160105Y-112041000D01*
X103124000Y-112037444D01*
X103087895Y-112041000D01*
X99278748Y-112041000D01*
X99158637Y-111861241D01*
X98960039Y-111662643D01*
X98968482Y-111661812D01*
X99088180Y-111625502D01*
X99198494Y-111566537D01*
X99295185Y-111487185D01*
X99374537Y-111390494D01*
X99433502Y-111280180D01*
X99469812Y-111160482D01*
X99482072Y-111036000D01*
X99479000Y-110521750D01*
X99320250Y-110363000D01*
X98171000Y-110363000D01*
X98171000Y-110383000D01*
X97917000Y-110383000D01*
X97917000Y-110363000D01*
X96767750Y-110363000D01*
X96609000Y-110521750D01*
X96605928Y-111036000D01*
X96618188Y-111160482D01*
X96654498Y-111280180D01*
X96713463Y-111390494D01*
X96792815Y-111487185D01*
X96889506Y-111566537D01*
X96999820Y-111625502D01*
X97119518Y-111661812D01*
X97127961Y-111662643D01*
X96929363Y-111861241D01*
X96772320Y-112096273D01*
X96664147Y-112357426D01*
X96609000Y-112634665D01*
X96609000Y-112917335D01*
X96664147Y-113194574D01*
X96772320Y-113455727D01*
X96929363Y-113690759D01*
X97129241Y-113890637D01*
X97361759Y-114046000D01*
X97129241Y-114201363D01*
X96929363Y-114401241D01*
X96772320Y-114636273D01*
X96664147Y-114897426D01*
X96609000Y-115174665D01*
X96609000Y-115457335D01*
X96651178Y-115669375D01*
X96534072Y-115786482D01*
X96534072Y-115178000D01*
X96521812Y-115053518D01*
X96485502Y-114933820D01*
X96426537Y-114823506D01*
X96347185Y-114726815D01*
X96250494Y-114647463D01*
X96140180Y-114588498D01*
X96020482Y-114552188D01*
X95896000Y-114539928D01*
X95731000Y-114539928D01*
X95731000Y-111096479D01*
X95847013Y-111018962D01*
X96032962Y-110833013D01*
X96179061Y-110614359D01*
X96279696Y-110371405D01*
X96331000Y-110113486D01*
X96331000Y-109850514D01*
X96279696Y-109592595D01*
X96214833Y-109436000D01*
X96605928Y-109436000D01*
X96609000Y-109950250D01*
X96767750Y-110109000D01*
X97917000Y-110109000D01*
X97917000Y-108959750D01*
X98171000Y-108959750D01*
X98171000Y-110109000D01*
X99320250Y-110109000D01*
X99479000Y-109950250D01*
X99482072Y-109436000D01*
X99469812Y-109311518D01*
X99433502Y-109191820D01*
X99374537Y-109081506D01*
X99295185Y-108984815D01*
X99198494Y-108905463D01*
X99088180Y-108846498D01*
X98968482Y-108810188D01*
X98844000Y-108797928D01*
X98329750Y-108801000D01*
X98171000Y-108959750D01*
X97917000Y-108959750D01*
X97758250Y-108801000D01*
X97244000Y-108797928D01*
X97119518Y-108810188D01*
X96999820Y-108846498D01*
X96889506Y-108905463D01*
X96792815Y-108984815D01*
X96713463Y-109081506D01*
X96654498Y-109191820D01*
X96618188Y-109311518D01*
X96605928Y-109436000D01*
X96214833Y-109436000D01*
X96179061Y-109349641D01*
X96032962Y-109130987D01*
X95847013Y-108945038D01*
X95628359Y-108798939D01*
X95385405Y-108698304D01*
X95127486Y-108647000D01*
X94864514Y-108647000D01*
X94606595Y-108698304D01*
X94363641Y-108798939D01*
X94144987Y-108945038D01*
X93959038Y-109130987D01*
X93812939Y-109349641D01*
X93712304Y-109592595D01*
X93661000Y-109850514D01*
X93661000Y-110113486D01*
X93712304Y-110371405D01*
X93812939Y-110614359D01*
X93959038Y-110833013D01*
X94144987Y-111018962D01*
X94261000Y-111096479D01*
X94261001Y-114539928D01*
X94096000Y-114539928D01*
X93971518Y-114552188D01*
X93851820Y-114588498D01*
X93741506Y-114647463D01*
X93644815Y-114726815D01*
X93565463Y-114823506D01*
X93506498Y-114933820D01*
X93500944Y-114952127D01*
X93434505Y-114885688D01*
X93191000Y-114722983D01*
X93191000Y-113618092D01*
X93194555Y-113581997D01*
X93191000Y-113545902D01*
X93191000Y-113545893D01*
X93180365Y-113437913D01*
X93138337Y-113299365D01*
X93070087Y-113171678D01*
X93024334Y-113115928D01*
X93001253Y-113087804D01*
X93001250Y-113087801D01*
X92978237Y-113059760D01*
X92950197Y-113036749D01*
X88131261Y-108217813D01*
X88108240Y-108189762D01*
X87996322Y-108097913D01*
X87868635Y-108029663D01*
X87730087Y-107987635D01*
X87622107Y-107977000D01*
X87586002Y-107973444D01*
X87549897Y-107977000D01*
X84546072Y-107977000D01*
X84546072Y-107862000D01*
X84533812Y-107737518D01*
X84497502Y-107617820D01*
X84438537Y-107507506D01*
X84359185Y-107410815D01*
X84262494Y-107331463D01*
X84152180Y-107272498D01*
X84032482Y-107236188D01*
X83908000Y-107223928D01*
X82208000Y-107223928D01*
X82083518Y-107236188D01*
X81963820Y-107272498D01*
X81853506Y-107331463D01*
X81756815Y-107410815D01*
X81677463Y-107507506D01*
X81618498Y-107617820D01*
X81582188Y-107737518D01*
X81569928Y-107862000D01*
X81569928Y-109562000D01*
X81582188Y-109686482D01*
X81618498Y-109806180D01*
X81677463Y-109916494D01*
X81756815Y-110013185D01*
X81853506Y-110092537D01*
X81963820Y-110151502D01*
X82083518Y-110187812D01*
X82208000Y-110200072D01*
X83908000Y-110200072D01*
X84032482Y-110187812D01*
X84152180Y-110151502D01*
X84262494Y-110092537D01*
X84359185Y-110013185D01*
X84438537Y-109916494D01*
X84497502Y-109806180D01*
X84533812Y-109686482D01*
X84546072Y-109562000D01*
X84546072Y-109447000D01*
X86152501Y-109447000D01*
X86110066Y-109538242D01*
X86047817Y-109793740D01*
X86036610Y-110056473D01*
X86076875Y-110316344D01*
X86167065Y-110563366D01*
X86220963Y-110664203D01*
X86454731Y-110723664D01*
X87196395Y-109982000D01*
X87182253Y-109967858D01*
X87361858Y-109788253D01*
X87376000Y-109802395D01*
X87390143Y-109788253D01*
X87569748Y-109967858D01*
X87555605Y-109982000D01*
X88297269Y-110723664D01*
X88505304Y-110670748D01*
X91721000Y-113886445D01*
X91721001Y-114722982D01*
X91477495Y-114885688D01*
X91263688Y-115099495D01*
X91186000Y-115215763D01*
X91108312Y-115099495D01*
X90894505Y-114885688D01*
X90643095Y-114717701D01*
X90363743Y-114601989D01*
X90067184Y-114543000D01*
X89764816Y-114543000D01*
X89468257Y-114601989D01*
X89188905Y-114717701D01*
X88937495Y-114885688D01*
X88723688Y-115099495D01*
X88555701Y-115350905D01*
X88439989Y-115630257D01*
X88381000Y-115926816D01*
X88381000Y-116229184D01*
X88439989Y-116525743D01*
X88555701Y-116805095D01*
X88723688Y-117056505D01*
X88937495Y-117270312D01*
X89188905Y-117438299D01*
X89468257Y-117554011D01*
X89764816Y-117613000D01*
X90067184Y-117613000D01*
X90363743Y-117554011D01*
X90643095Y-117438299D01*
X90894505Y-117270312D01*
X91108312Y-117056505D01*
X91186000Y-116940237D01*
X91263688Y-117056505D01*
X91477495Y-117270312D01*
X91728905Y-117438299D01*
X92008257Y-117554011D01*
X92304816Y-117613000D01*
X92607184Y-117613000D01*
X92894420Y-117555866D01*
X93110742Y-117772188D01*
X93133763Y-117800239D01*
X93245681Y-117892088D01*
X93373368Y-117960338D01*
X93495331Y-117997335D01*
X93511916Y-118002366D01*
X93656001Y-118016557D01*
X93692106Y-118013001D01*
X96045894Y-118013001D01*
X96081999Y-118016557D01*
X96118104Y-118013001D01*
X96226084Y-118002366D01*
X96364632Y-117960338D01*
X96492319Y-117892088D01*
X96604237Y-117800239D01*
X96609000Y-117794435D01*
X96609000Y-117997335D01*
X96664147Y-118274574D01*
X96772320Y-118535727D01*
X96929363Y-118770759D01*
X97129241Y-118970637D01*
X97364273Y-119127680D01*
X97625426Y-119235853D01*
X97902665Y-119291000D01*
X98185335Y-119291000D01*
X98462574Y-119235853D01*
X98723727Y-119127680D01*
X98958759Y-118970637D01*
X99158637Y-118770759D01*
X99315680Y-118535727D01*
X99423853Y-118274574D01*
X99479000Y-117997335D01*
X99479000Y-117714665D01*
X99423853Y-117437426D01*
X99315680Y-117176273D01*
X99158637Y-116941241D01*
X98958759Y-116741363D01*
X98726241Y-116586000D01*
X98958759Y-116430637D01*
X99158637Y-116230759D01*
X99315680Y-115995727D01*
X99423853Y-115734574D01*
X99479000Y-115457335D01*
X99479000Y-115174665D01*
X99423853Y-114897426D01*
X99315680Y-114636273D01*
X99158637Y-114401241D01*
X98958759Y-114201363D01*
X98726241Y-114046000D01*
X98958759Y-113890637D01*
X99158637Y-113690759D01*
X99278748Y-113511000D01*
X102819554Y-113511000D01*
X104271178Y-114962625D01*
X104229000Y-115174665D01*
X104229000Y-115457335D01*
X104284147Y-115734574D01*
X104392320Y-115995727D01*
X104549363Y-116230759D01*
X104749241Y-116430637D01*
X104981759Y-116586000D01*
X104749241Y-116741363D01*
X104549363Y-116941241D01*
X104392320Y-117176273D01*
X104284147Y-117437426D01*
X104229000Y-117714665D01*
X104229000Y-117997335D01*
X104284147Y-118274574D01*
X104392320Y-118535727D01*
X104549363Y-118770759D01*
X104749241Y-118970637D01*
X104984273Y-119127680D01*
X105245426Y-119235853D01*
X105522665Y-119291000D01*
X105805335Y-119291000D01*
X106082574Y-119235853D01*
X106343727Y-119127680D01*
X106578759Y-118970637D01*
X106778637Y-118770759D01*
X106935680Y-118535727D01*
X107043853Y-118274574D01*
X107089180Y-118046702D01*
X112724903Y-118046702D01*
X112796486Y-118290671D01*
X113051996Y-118411571D01*
X113326184Y-118480300D01*
X113608512Y-118494217D01*
X113888130Y-118452787D01*
X114154292Y-118357603D01*
X114279514Y-118290671D01*
X114351097Y-118046702D01*
X114248395Y-117944000D01*
X119161928Y-117944000D01*
X119174188Y-118068482D01*
X119210498Y-118188180D01*
X119269463Y-118298494D01*
X119348815Y-118395185D01*
X119445506Y-118474537D01*
X119555820Y-118533502D01*
X119675518Y-118569812D01*
X119800000Y-118582072D01*
X120364250Y-118579000D01*
X120523000Y-118420250D01*
X120523000Y-117221000D01*
X120777000Y-117221000D01*
X120777000Y-118420250D01*
X120935750Y-118579000D01*
X121500000Y-118582072D01*
X121624482Y-118569812D01*
X121744180Y-118533502D01*
X121854494Y-118474537D01*
X121951185Y-118395185D01*
X122030537Y-118298494D01*
X122089502Y-118188180D01*
X122125812Y-118068482D01*
X122138072Y-117944000D01*
X122135000Y-117379750D01*
X121976250Y-117221000D01*
X120777000Y-117221000D01*
X120523000Y-117221000D01*
X119323750Y-117221000D01*
X119165000Y-117379750D01*
X119161928Y-117944000D01*
X114248395Y-117944000D01*
X113538000Y-117233605D01*
X112724903Y-118046702D01*
X107089180Y-118046702D01*
X107099000Y-117997335D01*
X107099000Y-117714665D01*
X107043853Y-117437426D01*
X106935680Y-117176273D01*
X106778637Y-116941241D01*
X106578759Y-116741363D01*
X106346241Y-116586000D01*
X106578759Y-116430637D01*
X106778637Y-116230759D01*
X106898748Y-116051000D01*
X112502653Y-116051000D01*
X112429023Y-116124630D01*
X112545296Y-116240903D01*
X112301329Y-116312486D01*
X112180429Y-116567996D01*
X112111700Y-116842184D01*
X112097783Y-117124512D01*
X112139213Y-117404130D01*
X112234397Y-117670292D01*
X112301329Y-117795514D01*
X112545298Y-117867097D01*
X113358395Y-117054000D01*
X113717605Y-117054000D01*
X114530702Y-117867097D01*
X114774671Y-117795514D01*
X114895571Y-117540004D01*
X114964300Y-117265816D01*
X114978217Y-116983488D01*
X114936787Y-116703870D01*
X114841603Y-116437708D01*
X114774671Y-116312486D01*
X114541258Y-116244000D01*
X119161928Y-116244000D01*
X119165000Y-116808250D01*
X119323750Y-116967000D01*
X120523000Y-116967000D01*
X120523000Y-115767750D01*
X120777000Y-115767750D01*
X120777000Y-116967000D01*
X121976250Y-116967000D01*
X122135000Y-116808250D01*
X122138072Y-116244000D01*
X122125812Y-116119518D01*
X122089502Y-115999820D01*
X122030537Y-115889506D01*
X121951185Y-115792815D01*
X121935414Y-115779872D01*
X124765000Y-115779872D01*
X124765000Y-116220128D01*
X124850890Y-116651925D01*
X125019369Y-117058669D01*
X125263962Y-117424729D01*
X125575271Y-117736038D01*
X125941331Y-117980631D01*
X126348075Y-118149110D01*
X126779872Y-118235000D01*
X127220128Y-118235000D01*
X127651925Y-118149110D01*
X128058669Y-117980631D01*
X128424729Y-117736038D01*
X128736038Y-117424729D01*
X128980631Y-117058669D01*
X129149110Y-116651925D01*
X129235000Y-116220128D01*
X129235000Y-115779872D01*
X129149110Y-115348075D01*
X128980631Y-114941331D01*
X128736038Y-114575271D01*
X128424729Y-114263962D01*
X128058669Y-114019369D01*
X127651925Y-113850890D01*
X127220128Y-113765000D01*
X126779872Y-113765000D01*
X126348075Y-113850890D01*
X125941331Y-114019369D01*
X125575271Y-114263962D01*
X125263962Y-114575271D01*
X125019369Y-114941331D01*
X124850890Y-115348075D01*
X124765000Y-115779872D01*
X121935414Y-115779872D01*
X121854494Y-115713463D01*
X121744180Y-115654498D01*
X121624482Y-115618188D01*
X121500000Y-115605928D01*
X120935750Y-115609000D01*
X120777000Y-115767750D01*
X120523000Y-115767750D01*
X120364250Y-115609000D01*
X119800000Y-115605928D01*
X119675518Y-115618188D01*
X119555820Y-115654498D01*
X119445506Y-115713463D01*
X119348815Y-115792815D01*
X119269463Y-115889506D01*
X119210498Y-115999820D01*
X119174188Y-116119518D01*
X119161928Y-116244000D01*
X114541258Y-116244000D01*
X114530702Y-116240903D01*
X113717605Y-117054000D01*
X113358395Y-117054000D01*
X113344253Y-117039858D01*
X113523858Y-116860253D01*
X113538000Y-116874395D01*
X114351097Y-116061298D01*
X114330785Y-115992072D01*
X114338000Y-115992072D01*
X114462482Y-115979812D01*
X114582180Y-115943502D01*
X114692494Y-115884537D01*
X114789185Y-115805185D01*
X114868537Y-115708494D01*
X114927502Y-115598180D01*
X114963812Y-115478482D01*
X114976072Y-115354000D01*
X114976072Y-115145311D01*
X115060238Y-115076238D01*
X115083259Y-115048187D01*
X119620197Y-110511249D01*
X119648237Y-110488238D01*
X119671250Y-110460197D01*
X119671253Y-110460194D01*
X119740087Y-110376320D01*
X119808336Y-110248634D01*
X119808337Y-110248633D01*
X119850365Y-110110085D01*
X119861000Y-110002105D01*
X119861000Y-110002104D01*
X119864556Y-109966000D01*
X119861000Y-109929895D01*
X119861000Y-109896072D01*
X119926000Y-109896072D01*
X120050482Y-109883812D01*
X120170180Y-109847502D01*
X120280494Y-109788537D01*
X120377185Y-109709185D01*
X120456537Y-109612494D01*
X120515502Y-109502180D01*
X120551812Y-109382482D01*
X120564072Y-109258000D01*
X120564072Y-109193000D01*
X123987928Y-109193000D01*
X123987928Y-109308000D01*
X124000188Y-109432482D01*
X124036498Y-109552180D01*
X124095463Y-109662494D01*
X124174815Y-109759185D01*
X124271506Y-109838537D01*
X124381820Y-109897502D01*
X124501518Y-109933812D01*
X124626000Y-109946072D01*
X126326000Y-109946072D01*
X126450482Y-109933812D01*
X126570180Y-109897502D01*
X126680494Y-109838537D01*
X126777185Y-109759185D01*
X126856537Y-109662494D01*
X126915502Y-109552180D01*
X126951812Y-109432482D01*
X126964072Y-109308000D01*
X126964072Y-107608000D01*
X126951812Y-107483518D01*
X126915502Y-107363820D01*
X126856537Y-107253506D01*
X126777185Y-107156815D01*
X126680494Y-107077463D01*
X126570180Y-107018498D01*
X126450482Y-106982188D01*
X126326000Y-106969928D01*
X124626000Y-106969928D01*
X124501518Y-106982188D01*
X124381820Y-107018498D01*
X124271506Y-107077463D01*
X124174815Y-107156815D01*
X124095463Y-107253506D01*
X124036498Y-107363820D01*
X124000188Y-107483518D01*
X123987928Y-107608000D01*
X123987928Y-107723000D01*
X120564072Y-107723000D01*
X120564072Y-107658000D01*
X120551812Y-107533518D01*
X120515502Y-107413820D01*
X120456537Y-107303506D01*
X120377185Y-107206815D01*
X120280494Y-107127463D01*
X120170180Y-107068498D01*
X120050482Y-107032188D01*
X119926000Y-107019928D01*
X119861000Y-107019928D01*
X119861000Y-103922105D01*
X119864556Y-103886000D01*
X119850365Y-103741914D01*
X119821252Y-103645942D01*
X119808337Y-103603367D01*
X119740087Y-103475680D01*
X119648238Y-103363762D01*
X119620193Y-103340746D01*
X119417779Y-103138332D01*
X119445000Y-103001486D01*
X119445000Y-102738514D01*
X119393696Y-102480595D01*
X119293061Y-102237641D01*
X119146962Y-102018987D01*
X118961013Y-101833038D01*
X118742359Y-101686939D01*
X118499405Y-101586304D01*
X118241486Y-101535000D01*
X117978514Y-101535000D01*
X117720595Y-101586304D01*
X117477641Y-101686939D01*
X117258987Y-101833038D01*
X117073038Y-102018987D01*
X116926939Y-102237641D01*
X116826304Y-102480595D01*
X116775000Y-102738514D01*
X116775000Y-103001486D01*
X116826304Y-103259405D01*
X116926939Y-103502359D01*
X117073038Y-103721013D01*
X117258987Y-103906962D01*
X117477641Y-104053061D01*
X117720595Y-104153696D01*
X117978514Y-104205000D01*
X118241486Y-104205000D01*
X118378332Y-104177779D01*
X118391001Y-104190448D01*
X118391000Y-107019928D01*
X118326000Y-107019928D01*
X118201518Y-107032188D01*
X118081820Y-107068498D01*
X117971506Y-107127463D01*
X117874815Y-107206815D01*
X117795463Y-107303506D01*
X117736498Y-107413820D01*
X117700188Y-107533518D01*
X117687928Y-107658000D01*
X117687928Y-109258000D01*
X117700188Y-109382482D01*
X117736498Y-109502180D01*
X117795463Y-109612494D01*
X117874815Y-109709185D01*
X117971506Y-109788537D01*
X118081820Y-109847502D01*
X118176370Y-109876183D01*
X114767519Y-113285035D01*
X114692494Y-113223463D01*
X114582180Y-113164498D01*
X114462482Y-113128188D01*
X114338000Y-113115928D01*
X112738000Y-113115928D01*
X112613518Y-113128188D01*
X112493820Y-113164498D01*
X112383506Y-113223463D01*
X112286815Y-113302815D01*
X112207463Y-113399506D01*
X112148498Y-113509820D01*
X112112188Y-113629518D01*
X112099928Y-113754000D01*
X112099928Y-114581000D01*
X106898748Y-114581000D01*
X106778637Y-114401241D01*
X106578759Y-114201363D01*
X106346241Y-114046000D01*
X106578759Y-113890637D01*
X106778637Y-113690759D01*
X106898748Y-113511000D01*
X107151895Y-113511000D01*
X107188000Y-113514556D01*
X107224105Y-113511000D01*
X107332085Y-113500365D01*
X107470633Y-113458337D01*
X107598320Y-113390087D01*
X107710238Y-113298238D01*
X107733259Y-113270187D01*
X111152625Y-109850822D01*
X111364665Y-109893000D01*
X111647335Y-109893000D01*
X111924574Y-109837853D01*
X112185727Y-109729680D01*
X112420759Y-109572637D01*
X112620637Y-109372759D01*
X112777680Y-109137727D01*
X112885853Y-108876574D01*
X112941000Y-108599335D01*
X112941000Y-108316665D01*
X112885853Y-108039426D01*
X112777680Y-107778273D01*
X112620637Y-107543241D01*
X112420759Y-107343363D01*
X112185727Y-107186320D01*
X111924574Y-107078147D01*
X111647335Y-107023000D01*
X111364665Y-107023000D01*
X111225000Y-107050781D01*
X111225000Y-103984479D01*
X111341013Y-103906962D01*
X111526962Y-103721013D01*
X111604479Y-103605000D01*
X114009895Y-103605000D01*
X114046000Y-103608556D01*
X114082105Y-103605000D01*
X114190085Y-103594365D01*
X114328633Y-103552337D01*
X114456320Y-103484087D01*
X114568238Y-103392238D01*
X114591259Y-103364187D01*
X117175574Y-100779872D01*
X124765000Y-100779872D01*
X124765000Y-101220128D01*
X124850890Y-101651925D01*
X125019369Y-102058669D01*
X125263962Y-102424729D01*
X125575271Y-102736038D01*
X125941331Y-102980631D01*
X126348075Y-103149110D01*
X126779872Y-103235000D01*
X127220128Y-103235000D01*
X127651925Y-103149110D01*
X128058669Y-102980631D01*
X128424729Y-102736038D01*
X128736038Y-102424729D01*
X128980631Y-102058669D01*
X129149110Y-101651925D01*
X129235000Y-101220128D01*
X129235000Y-100779872D01*
X129149110Y-100348075D01*
X128980631Y-99941331D01*
X128736038Y-99575271D01*
X128424729Y-99263962D01*
X128058669Y-99019369D01*
X127651925Y-98850890D01*
X127220128Y-98765000D01*
X126779872Y-98765000D01*
X126348075Y-98850890D01*
X125941331Y-99019369D01*
X125575271Y-99263962D01*
X125263962Y-99575271D01*
X125019369Y-99941331D01*
X124850890Y-100348075D01*
X124765000Y-100779872D01*
X117175574Y-100779872D01*
X117841668Y-100113779D01*
X117978514Y-100141000D01*
X118241486Y-100141000D01*
X118499405Y-100089696D01*
X118742359Y-99989061D01*
X118961013Y-99842962D01*
X119146962Y-99657013D01*
X119224479Y-99541000D01*
X120177928Y-99541000D01*
X120177928Y-99656000D01*
X120190188Y-99780482D01*
X120226498Y-99900180D01*
X120285463Y-100010494D01*
X120364815Y-100107185D01*
X120461506Y-100186537D01*
X120571820Y-100245502D01*
X120691518Y-100281812D01*
X120816000Y-100294072D01*
X122516000Y-100294072D01*
X122640482Y-100281812D01*
X122760180Y-100245502D01*
X122870494Y-100186537D01*
X122967185Y-100107185D01*
X123046537Y-100010494D01*
X123105502Y-99900180D01*
X123141812Y-99780482D01*
X123154072Y-99656000D01*
X123154072Y-97956000D01*
X123141812Y-97831518D01*
X123105502Y-97711820D01*
X123046537Y-97601506D01*
X122967185Y-97504815D01*
X122870494Y-97425463D01*
X122760180Y-97366498D01*
X122640482Y-97330188D01*
X122516000Y-97317928D01*
X120816000Y-97317928D01*
X120691518Y-97330188D01*
X120571820Y-97366498D01*
X120461506Y-97425463D01*
X120364815Y-97504815D01*
X120285463Y-97601506D01*
X120226498Y-97711820D01*
X120190188Y-97831518D01*
X120177928Y-97956000D01*
X120177928Y-98071000D01*
X119224479Y-98071000D01*
X119146962Y-97954987D01*
X118961013Y-97769038D01*
X118742359Y-97622939D01*
X118499405Y-97522304D01*
X118241486Y-97471000D01*
X117978514Y-97471000D01*
X117720595Y-97522304D01*
X117477641Y-97622939D01*
X117258987Y-97769038D01*
X117073038Y-97954987D01*
X116926939Y-98173641D01*
X116826304Y-98416595D01*
X116775000Y-98674514D01*
X116775000Y-98937486D01*
X116802221Y-99074332D01*
X113741554Y-102135000D01*
X111604479Y-102135000D01*
X111526962Y-102018987D01*
X111341013Y-101833038D01*
X111122359Y-101686939D01*
X110879405Y-101586304D01*
X110621486Y-101535000D01*
X110358514Y-101535000D01*
X110100595Y-101586304D01*
X109857641Y-101686939D01*
X109638987Y-101833038D01*
X109453038Y-102018987D01*
X109306939Y-102237641D01*
X109206304Y-102480595D01*
X109155000Y-102738514D01*
X109155000Y-103001486D01*
X109206304Y-103259405D01*
X109306939Y-103502359D01*
X109453038Y-103721013D01*
X109638987Y-103906962D01*
X109755001Y-103984479D01*
X109755000Y-107405895D01*
X109751444Y-107442000D01*
X109755000Y-107478104D01*
X109765635Y-107586084D01*
X109807663Y-107724632D01*
X109875913Y-107852319D01*
X109967762Y-107964237D01*
X109995808Y-107987254D01*
X110113178Y-108104624D01*
X110071000Y-108316665D01*
X110071000Y-108599335D01*
X110113178Y-108811375D01*
X106892662Y-112031892D01*
X106778637Y-111861241D01*
X106578759Y-111661363D01*
X106346241Y-111506000D01*
X106578759Y-111350637D01*
X106778637Y-111150759D01*
X106935680Y-110915727D01*
X107043853Y-110654574D01*
X107099000Y-110377335D01*
X107099000Y-110094665D01*
X107043853Y-109817426D01*
X106935680Y-109556273D01*
X106778637Y-109321241D01*
X106578759Y-109121363D01*
X106343727Y-108964320D01*
X106082574Y-108856147D01*
X105805335Y-108801000D01*
X105522665Y-108801000D01*
X105487561Y-108807983D01*
X105279000Y-108599422D01*
X105279000Y-105274521D01*
X105308759Y-105254637D01*
X105508637Y-105054759D01*
X105665680Y-104819727D01*
X105773853Y-104558574D01*
X105829000Y-104281335D01*
X105829000Y-103998665D01*
X105773853Y-103721426D01*
X105665680Y-103460273D01*
X105508637Y-103225241D01*
X105308759Y-103025363D01*
X105073727Y-102868320D01*
X104812574Y-102760147D01*
X104535335Y-102705000D01*
X104252665Y-102705000D01*
X104217561Y-102711983D01*
X104009000Y-102503422D01*
X104009000Y-100290625D01*
X104098482Y-100281812D01*
X104218180Y-100245502D01*
X104328494Y-100186537D01*
X104425185Y-100107185D01*
X104504537Y-100010494D01*
X104563502Y-99900180D01*
X104599812Y-99780482D01*
X104608625Y-99691000D01*
X109487025Y-99691000D01*
X109638987Y-99842962D01*
X109857641Y-99989061D01*
X110100595Y-100089696D01*
X110358514Y-100141000D01*
X110621486Y-100141000D01*
X110879405Y-100089696D01*
X111122359Y-99989061D01*
X111341013Y-99842962D01*
X111526962Y-99657013D01*
X111673061Y-99438359D01*
X111773696Y-99195405D01*
X111825000Y-98937486D01*
X111825000Y-98674514D01*
X111773696Y-98416595D01*
X111673061Y-98173641D01*
X111526962Y-97954987D01*
X111341013Y-97769038D01*
X111122359Y-97622939D01*
X110879405Y-97522304D01*
X110621486Y-97471000D01*
X110358514Y-97471000D01*
X110100595Y-97522304D01*
X109857641Y-97622939D01*
X109638987Y-97769038D01*
X109487025Y-97921000D01*
X104608625Y-97921000D01*
X104599812Y-97831518D01*
X104563502Y-97711820D01*
X104504537Y-97601506D01*
X104425185Y-97504815D01*
X104328494Y-97425463D01*
X104218180Y-97366498D01*
X104098482Y-97330188D01*
X103974000Y-97317928D01*
X102887506Y-97317928D01*
X102480533Y-96910955D01*
X102452816Y-96877182D01*
X102318058Y-96766588D01*
X102164312Y-96684410D01*
X102083844Y-96660000D01*
X131340001Y-96660000D01*
X131340000Y-120340000D01*
X80660000Y-120340000D01*
X80660000Y-115779872D01*
X82765000Y-115779872D01*
X82765000Y-116220128D01*
X82850890Y-116651925D01*
X83019369Y-117058669D01*
X83263962Y-117424729D01*
X83575271Y-117736038D01*
X83941331Y-117980631D01*
X84348075Y-118149110D01*
X84779872Y-118235000D01*
X85220128Y-118235000D01*
X85651925Y-118149110D01*
X86058669Y-117980631D01*
X86424729Y-117736038D01*
X86736038Y-117424729D01*
X86980631Y-117058669D01*
X87149110Y-116651925D01*
X87235000Y-116220128D01*
X87235000Y-115779872D01*
X87149110Y-115348075D01*
X86980631Y-114941331D01*
X86736038Y-114575271D01*
X86424729Y-114263962D01*
X86058669Y-114019369D01*
X85651925Y-113850890D01*
X85220128Y-113765000D01*
X84779872Y-113765000D01*
X84348075Y-113850890D01*
X83941331Y-114019369D01*
X83575271Y-114263962D01*
X83263962Y-114575271D01*
X83019369Y-114941331D01*
X82850890Y-115348075D01*
X82765000Y-115779872D01*
X80660000Y-115779872D01*
X80660000Y-110903269D01*
X86634336Y-110903269D01*
X86693797Y-111137037D01*
X86932242Y-111247934D01*
X87187740Y-111310183D01*
X87450473Y-111321390D01*
X87710344Y-111281125D01*
X87957366Y-111190935D01*
X88058203Y-111137037D01*
X88117664Y-110903269D01*
X87376000Y-110161605D01*
X86634336Y-110903269D01*
X80660000Y-110903269D01*
X80660000Y-105752000D01*
X87665928Y-105752000D01*
X87678188Y-105876482D01*
X87714498Y-105996180D01*
X87773463Y-106106494D01*
X87852815Y-106203185D01*
X87949506Y-106282537D01*
X88059820Y-106341502D01*
X88179518Y-106377812D01*
X88304000Y-106390072D01*
X88868250Y-106387000D01*
X89027000Y-106228250D01*
X89027000Y-105029000D01*
X89281000Y-105029000D01*
X89281000Y-106228250D01*
X89439750Y-106387000D01*
X90004000Y-106390072D01*
X90128482Y-106377812D01*
X90248180Y-106341502D01*
X90358494Y-106282537D01*
X90455185Y-106203185D01*
X90534537Y-106106494D01*
X90593502Y-105996180D01*
X90629812Y-105876482D01*
X90642072Y-105752000D01*
X90639000Y-105187750D01*
X90583952Y-105132702D01*
X98580903Y-105132702D01*
X98652486Y-105376671D01*
X98907996Y-105497571D01*
X99182184Y-105566300D01*
X99464512Y-105580217D01*
X99744130Y-105538787D01*
X100010292Y-105443603D01*
X100135514Y-105376671D01*
X100207097Y-105132702D01*
X99394000Y-104319605D01*
X98580903Y-105132702D01*
X90583952Y-105132702D01*
X90480250Y-105029000D01*
X89281000Y-105029000D01*
X89027000Y-105029000D01*
X87827750Y-105029000D01*
X87669000Y-105187750D01*
X87665928Y-105752000D01*
X80660000Y-105752000D01*
X80660000Y-104052000D01*
X87665928Y-104052000D01*
X87669000Y-104616250D01*
X87827750Y-104775000D01*
X89027000Y-104775000D01*
X89027000Y-103575750D01*
X89281000Y-103575750D01*
X89281000Y-104775000D01*
X90480250Y-104775000D01*
X90639000Y-104616250D01*
X90641208Y-104210512D01*
X97953783Y-104210512D01*
X97995213Y-104490130D01*
X98090397Y-104756292D01*
X98157329Y-104881514D01*
X98401298Y-104953097D01*
X99214395Y-104140000D01*
X99573605Y-104140000D01*
X100386702Y-104953097D01*
X100630671Y-104881514D01*
X100751571Y-104626004D01*
X100820300Y-104351816D01*
X100834217Y-104069488D01*
X100792787Y-103789870D01*
X100697603Y-103523708D01*
X100630671Y-103398486D01*
X100386702Y-103326903D01*
X99573605Y-104140000D01*
X99214395Y-104140000D01*
X98401298Y-103326903D01*
X98157329Y-103398486D01*
X98036429Y-103653996D01*
X97967700Y-103928184D01*
X97953783Y-104210512D01*
X90641208Y-104210512D01*
X90642072Y-104052000D01*
X90629812Y-103927518D01*
X90593502Y-103807820D01*
X90534537Y-103697506D01*
X90455185Y-103600815D01*
X90358494Y-103521463D01*
X90248180Y-103462498D01*
X90128482Y-103426188D01*
X90004000Y-103413928D01*
X89439750Y-103417000D01*
X89281000Y-103575750D01*
X89027000Y-103575750D01*
X88868250Y-103417000D01*
X88304000Y-103413928D01*
X88179518Y-103426188D01*
X88059820Y-103462498D01*
X87949506Y-103521463D01*
X87852815Y-103600815D01*
X87773463Y-103697506D01*
X87714498Y-103807820D01*
X87678188Y-103927518D01*
X87665928Y-104052000D01*
X80660000Y-104052000D01*
X80660000Y-100779872D01*
X82765000Y-100779872D01*
X82765000Y-101220128D01*
X82850890Y-101651925D01*
X83019369Y-102058669D01*
X83263962Y-102424729D01*
X83575271Y-102736038D01*
X83941331Y-102980631D01*
X84348075Y-103149110D01*
X84779872Y-103235000D01*
X85220128Y-103235000D01*
X85651925Y-103149110D01*
X86058669Y-102980631D01*
X86424729Y-102736038D01*
X86736038Y-102424729D01*
X86980631Y-102058669D01*
X87149110Y-101651925D01*
X87235000Y-101220128D01*
X87235000Y-100779872D01*
X87149110Y-100348075D01*
X86980631Y-99941331D01*
X86736038Y-99575271D01*
X86424729Y-99263962D01*
X86058669Y-99019369D01*
X85651925Y-98850890D01*
X85220128Y-98765000D01*
X84779872Y-98765000D01*
X84348075Y-98850890D01*
X83941331Y-99019369D01*
X83575271Y-99263962D01*
X83263962Y-99575271D01*
X83019369Y-99941331D01*
X82850890Y-100348075D01*
X82765000Y-100779872D01*
X80660000Y-100779872D01*
X80660000Y-98181000D01*
X90379928Y-98181000D01*
X90379928Y-99431000D01*
X90396992Y-99604254D01*
X90447528Y-99770850D01*
X90529595Y-99924386D01*
X90640038Y-100058962D01*
X90774614Y-100169405D01*
X90928150Y-100251472D01*
X90995500Y-100271902D01*
X90995501Y-100388098D01*
X90928150Y-100408528D01*
X90774614Y-100490595D01*
X90640038Y-100601038D01*
X90529595Y-100735614D01*
X90447528Y-100889150D01*
X90396992Y-101055746D01*
X90379928Y-101229000D01*
X90379928Y-102479000D01*
X90396992Y-102652254D01*
X90447528Y-102818850D01*
X90529595Y-102972386D01*
X90640038Y-103106962D01*
X90774614Y-103217405D01*
X90928150Y-103299472D01*
X91094746Y-103350008D01*
X91268000Y-103367072D01*
X92193000Y-103367072D01*
X92366254Y-103350008D01*
X92532850Y-103299472D01*
X92686386Y-103217405D01*
X92820962Y-103106962D01*
X92931405Y-102972386D01*
X93013472Y-102818850D01*
X93040727Y-102729000D01*
X93354928Y-102729000D01*
X93367188Y-102853482D01*
X93403498Y-102973180D01*
X93462463Y-103083494D01*
X93541815Y-103180185D01*
X93638506Y-103259537D01*
X93748820Y-103318502D01*
X93868518Y-103354812D01*
X93993000Y-103367072D01*
X94419750Y-103364000D01*
X94578500Y-103205250D01*
X94578500Y-101981000D01*
X94832500Y-101981000D01*
X94832500Y-103205250D01*
X94991250Y-103364000D01*
X95418000Y-103367072D01*
X95542482Y-103354812D01*
X95662180Y-103318502D01*
X95772494Y-103259537D01*
X95869185Y-103180185D01*
X95896174Y-103147298D01*
X98580903Y-103147298D01*
X99394000Y-103960395D01*
X100207097Y-103147298D01*
X100135514Y-102903329D01*
X99880004Y-102782429D01*
X99605816Y-102713700D01*
X99323488Y-102699783D01*
X99043870Y-102741213D01*
X98777708Y-102836397D01*
X98652486Y-102903329D01*
X98580903Y-103147298D01*
X95896174Y-103147298D01*
X95948537Y-103083494D01*
X96007502Y-102973180D01*
X96043812Y-102853482D01*
X96056072Y-102729000D01*
X96053000Y-102139750D01*
X95894250Y-101981000D01*
X94832500Y-101981000D01*
X94578500Y-101981000D01*
X93516750Y-101981000D01*
X93358000Y-102139750D01*
X93354928Y-102729000D01*
X93040727Y-102729000D01*
X93064008Y-102652254D01*
X93081072Y-102479000D01*
X93081072Y-101229000D01*
X93064008Y-101055746D01*
X93040728Y-100979000D01*
X93354928Y-100979000D01*
X93358000Y-101568250D01*
X93516750Y-101727000D01*
X94578500Y-101727000D01*
X94578500Y-100502750D01*
X94832500Y-100502750D01*
X94832500Y-101727000D01*
X95894250Y-101727000D01*
X96053000Y-101568250D01*
X96056072Y-100979000D01*
X96043812Y-100854518D01*
X96007502Y-100734820D01*
X95948537Y-100624506D01*
X95869185Y-100527815D01*
X95772494Y-100448463D01*
X95662180Y-100389498D01*
X95542482Y-100353188D01*
X95418000Y-100340928D01*
X94991250Y-100344000D01*
X94832500Y-100502750D01*
X94578500Y-100502750D01*
X94419750Y-100344000D01*
X93993000Y-100340928D01*
X93868518Y-100353188D01*
X93748820Y-100389498D01*
X93638506Y-100448463D01*
X93541815Y-100527815D01*
X93462463Y-100624506D01*
X93403498Y-100734820D01*
X93367188Y-100854518D01*
X93354928Y-100979000D01*
X93040728Y-100979000D01*
X93013472Y-100889150D01*
X92931405Y-100735614D01*
X92820962Y-100601038D01*
X92686386Y-100490595D01*
X92532850Y-100408528D01*
X92465500Y-100388098D01*
X92465500Y-100271902D01*
X92532850Y-100251472D01*
X92686386Y-100169405D01*
X92820962Y-100058962D01*
X92931405Y-99924386D01*
X93013472Y-99770850D01*
X93064008Y-99604254D01*
X93081072Y-99431000D01*
X93081072Y-98181000D01*
X93064008Y-98007746D01*
X93013472Y-97841150D01*
X92931405Y-97687614D01*
X92820962Y-97553038D01*
X92686386Y-97442595D01*
X92532850Y-97360528D01*
X92366254Y-97309992D01*
X92193000Y-97292928D01*
X91268000Y-97292928D01*
X91094746Y-97309992D01*
X90928150Y-97360528D01*
X90774614Y-97442595D01*
X90640038Y-97553038D01*
X90529595Y-97687614D01*
X90447528Y-97841150D01*
X90396992Y-98007746D01*
X90379928Y-98181000D01*
X80660000Y-98181000D01*
X80660000Y-96660000D01*
X96458156Y-96660000D01*
X96377688Y-96684410D01*
G37*
X96377688Y-96684410D02*
X96223942Y-96766588D01*
X96223940Y-96766589D01*
X96223941Y-96766589D01*
X96122954Y-96849467D01*
X96122952Y-96849469D01*
X96089184Y-96877182D01*
X96061471Y-96910950D01*
X95575652Y-97396769D01*
X95507850Y-97360528D01*
X95341254Y-97309992D01*
X95168000Y-97292928D01*
X94243000Y-97292928D01*
X94069746Y-97309992D01*
X93903150Y-97360528D01*
X93749614Y-97442595D01*
X93615038Y-97553038D01*
X93504595Y-97687614D01*
X93422528Y-97841150D01*
X93371992Y-98007746D01*
X93354928Y-98181000D01*
X93354928Y-99431000D01*
X93371992Y-99604254D01*
X93422528Y-99770850D01*
X93504595Y-99924386D01*
X93615038Y-100058962D01*
X93749614Y-100169405D01*
X93903150Y-100251472D01*
X94069746Y-100302008D01*
X94243000Y-100319072D01*
X95168000Y-100319072D01*
X95341254Y-100302008D01*
X95507850Y-100251472D01*
X95661386Y-100169405D01*
X95795962Y-100058962D01*
X95906405Y-99924386D01*
X95988472Y-99770850D01*
X96039008Y-99604254D01*
X96056072Y-99431000D01*
X96056072Y-99423540D01*
X96074534Y-99401044D01*
X96312687Y-99162891D01*
X99142519Y-99162891D01*
X99239843Y-99437252D01*
X99388822Y-99687355D01*
X99583731Y-99903588D01*
X99817080Y-100077641D01*
X100079901Y-100202825D01*
X100227110Y-100247476D01*
X100457000Y-100126155D01*
X100457000Y-98933000D01*
X99263186Y-98933000D01*
X99142519Y-99162891D01*
X96312687Y-99162891D01*
X97084580Y-98390999D01*
X99163132Y-98390999D01*
X99142519Y-98449109D01*
X99263186Y-98679000D01*
X100457000Y-98679000D01*
X100457000Y-98659000D01*
X100711000Y-98659000D01*
X100711000Y-98679000D01*
X100731000Y-98679000D01*
X100731000Y-98933000D01*
X100711000Y-98933000D01*
X100711000Y-100126155D01*
X100940890Y-100247476D01*
X101088099Y-100202825D01*
X101350920Y-100077641D01*
X101584269Y-99903588D01*
X101660034Y-99819534D01*
X101684498Y-99900180D01*
X101743463Y-100010494D01*
X101822815Y-100107185D01*
X101919506Y-100186537D01*
X102029820Y-100245502D01*
X102149518Y-100281812D01*
X102239000Y-100290625D01*
X102239001Y-102826521D01*
X102234719Y-102870000D01*
X102251805Y-103043490D01*
X102302412Y-103210313D01*
X102384590Y-103364059D01*
X102467468Y-103465046D01*
X102467471Y-103465049D01*
X102495184Y-103498817D01*
X102528951Y-103526529D01*
X102965983Y-103963561D01*
X102959000Y-103998665D01*
X102959000Y-104281335D01*
X103014147Y-104558574D01*
X103122320Y-104819727D01*
X103279363Y-105054759D01*
X103479241Y-105254637D01*
X103509000Y-105274521D01*
X103509001Y-108922521D01*
X103504719Y-108966000D01*
X103521805Y-109139490D01*
X103572412Y-109306313D01*
X103654590Y-109460059D01*
X103737468Y-109561046D01*
X103737471Y-109561049D01*
X103765184Y-109594817D01*
X103798951Y-109622529D01*
X104235983Y-110059561D01*
X104229000Y-110094665D01*
X104229000Y-110377335D01*
X104284147Y-110654574D01*
X104392320Y-110915727D01*
X104549363Y-111150759D01*
X104749241Y-111350637D01*
X104981759Y-111506000D01*
X104749241Y-111661363D01*
X104549363Y-111861241D01*
X104392320Y-112096273D01*
X104284147Y-112357426D01*
X104229000Y-112634665D01*
X104229000Y-112841554D01*
X103669259Y-112281812D01*
X103646238Y-112253762D01*
X103534320Y-112161913D01*
X103406633Y-112093663D01*
X103268085Y-112051635D01*
X103160105Y-112041000D01*
X103124000Y-112037444D01*
X103087895Y-112041000D01*
X99278748Y-112041000D01*
X99158637Y-111861241D01*
X98960039Y-111662643D01*
X98968482Y-111661812D01*
X99088180Y-111625502D01*
X99198494Y-111566537D01*
X99295185Y-111487185D01*
X99374537Y-111390494D01*
X99433502Y-111280180D01*
X99469812Y-111160482D01*
X99482072Y-111036000D01*
X99479000Y-110521750D01*
X99320250Y-110363000D01*
X98171000Y-110363000D01*
X98171000Y-110383000D01*
X97917000Y-110383000D01*
X97917000Y-110363000D01*
X96767750Y-110363000D01*
X96609000Y-110521750D01*
X96605928Y-111036000D01*
X96618188Y-111160482D01*
X96654498Y-111280180D01*
X96713463Y-111390494D01*
X96792815Y-111487185D01*
X96889506Y-111566537D01*
X96999820Y-111625502D01*
X97119518Y-111661812D01*
X97127961Y-111662643D01*
X96929363Y-111861241D01*
X96772320Y-112096273D01*
X96664147Y-112357426D01*
X96609000Y-112634665D01*
X96609000Y-112917335D01*
X96664147Y-113194574D01*
X96772320Y-113455727D01*
X96929363Y-113690759D01*
X97129241Y-113890637D01*
X97361759Y-114046000D01*
X97129241Y-114201363D01*
X96929363Y-114401241D01*
X96772320Y-114636273D01*
X96664147Y-114897426D01*
X96609000Y-115174665D01*
X96609000Y-115457335D01*
X96651178Y-115669375D01*
X96534072Y-115786482D01*
X96534072Y-115178000D01*
X96521812Y-115053518D01*
X96485502Y-114933820D01*
X96426537Y-114823506D01*
X96347185Y-114726815D01*
X96250494Y-114647463D01*
X96140180Y-114588498D01*
X96020482Y-114552188D01*
X95896000Y-114539928D01*
X95731000Y-114539928D01*
X95731000Y-111096479D01*
X95847013Y-111018962D01*
X96032962Y-110833013D01*
X96179061Y-110614359D01*
X96279696Y-110371405D01*
X96331000Y-110113486D01*
X96331000Y-109850514D01*
X96279696Y-109592595D01*
X96214833Y-109436000D01*
X96605928Y-109436000D01*
X96609000Y-109950250D01*
X96767750Y-110109000D01*
X97917000Y-110109000D01*
X97917000Y-108959750D01*
X98171000Y-108959750D01*
X98171000Y-110109000D01*
X99320250Y-110109000D01*
X99479000Y-109950250D01*
X99482072Y-109436000D01*
X99469812Y-109311518D01*
X99433502Y-109191820D01*
X99374537Y-109081506D01*
X99295185Y-108984815D01*
X99198494Y-108905463D01*
X99088180Y-108846498D01*
X98968482Y-108810188D01*
X98844000Y-108797928D01*
X98329750Y-108801000D01*
X98171000Y-108959750D01*
X97917000Y-108959750D01*
X97758250Y-108801000D01*
X97244000Y-108797928D01*
X97119518Y-108810188D01*
X96999820Y-108846498D01*
X96889506Y-108905463D01*
X96792815Y-108984815D01*
X96713463Y-109081506D01*
X96654498Y-109191820D01*
X96618188Y-109311518D01*
X96605928Y-109436000D01*
X96214833Y-109436000D01*
X96179061Y-109349641D01*
X96032962Y-109130987D01*
X95847013Y-108945038D01*
X95628359Y-108798939D01*
X95385405Y-108698304D01*
X95127486Y-108647000D01*
X94864514Y-108647000D01*
X94606595Y-108698304D01*
X94363641Y-108798939D01*
X94144987Y-108945038D01*
X93959038Y-109130987D01*
X93812939Y-109349641D01*
X93712304Y-109592595D01*
X93661000Y-109850514D01*
X93661000Y-110113486D01*
X93712304Y-110371405D01*
X93812939Y-110614359D01*
X93959038Y-110833013D01*
X94144987Y-111018962D01*
X94261000Y-111096479D01*
X94261001Y-114539928D01*
X94096000Y-114539928D01*
X93971518Y-114552188D01*
X93851820Y-114588498D01*
X93741506Y-114647463D01*
X93644815Y-114726815D01*
X93565463Y-114823506D01*
X93506498Y-114933820D01*
X93500944Y-114952127D01*
X93434505Y-114885688D01*
X93191000Y-114722983D01*
X93191000Y-113618092D01*
X93194555Y-113581997D01*
X93191000Y-113545902D01*
X93191000Y-113545893D01*
X93180365Y-113437913D01*
X93138337Y-113299365D01*
X93070087Y-113171678D01*
X93024334Y-113115928D01*
X93001253Y-113087804D01*
X93001250Y-113087801D01*
X92978237Y-113059760D01*
X92950197Y-113036749D01*
X88131261Y-108217813D01*
X88108240Y-108189762D01*
X87996322Y-108097913D01*
X87868635Y-108029663D01*
X87730087Y-107987635D01*
X87622107Y-107977000D01*
X87586002Y-107973444D01*
X87549897Y-107977000D01*
X84546072Y-107977000D01*
X84546072Y-107862000D01*
X84533812Y-107737518D01*
X84497502Y-107617820D01*
X84438537Y-107507506D01*
X84359185Y-107410815D01*
X84262494Y-107331463D01*
X84152180Y-107272498D01*
X84032482Y-107236188D01*
X83908000Y-107223928D01*
X82208000Y-107223928D01*
X82083518Y-107236188D01*
X81963820Y-107272498D01*
X81853506Y-107331463D01*
X81756815Y-107410815D01*
X81677463Y-107507506D01*
X81618498Y-107617820D01*
X81582188Y-107737518D01*
X81569928Y-107862000D01*
X81569928Y-109562000D01*
X81582188Y-109686482D01*
X81618498Y-109806180D01*
X81677463Y-109916494D01*
X81756815Y-110013185D01*
X81853506Y-110092537D01*
X81963820Y-110151502D01*
X82083518Y-110187812D01*
X82208000Y-110200072D01*
X83908000Y-110200072D01*
X84032482Y-110187812D01*
X84152180Y-110151502D01*
X84262494Y-110092537D01*
X84359185Y-110013185D01*
X84438537Y-109916494D01*
X84497502Y-109806180D01*
X84533812Y-109686482D01*
X84546072Y-109562000D01*
X84546072Y-109447000D01*
X86152501Y-109447000D01*
X86110066Y-109538242D01*
X86047817Y-109793740D01*
X86036610Y-110056473D01*
X86076875Y-110316344D01*
X86167065Y-110563366D01*
X86220963Y-110664203D01*
X86454731Y-110723664D01*
X87196395Y-109982000D01*
X87182253Y-109967858D01*
X87361858Y-109788253D01*
X87376000Y-109802395D01*
X87390143Y-109788253D01*
X87569748Y-109967858D01*
X87555605Y-109982000D01*
X88297269Y-110723664D01*
X88505304Y-110670748D01*
X91721000Y-113886445D01*
X91721001Y-114722982D01*
X91477495Y-114885688D01*
X91263688Y-115099495D01*
X91186000Y-115215763D01*
X91108312Y-115099495D01*
X90894505Y-114885688D01*
X90643095Y-114717701D01*
X90363743Y-114601989D01*
X90067184Y-114543000D01*
X89764816Y-114543000D01*
X89468257Y-114601989D01*
X89188905Y-114717701D01*
X88937495Y-114885688D01*
X88723688Y-115099495D01*
X88555701Y-115350905D01*
X88439989Y-115630257D01*
X88381000Y-115926816D01*
X88381000Y-116229184D01*
X88439989Y-116525743D01*
X88555701Y-116805095D01*
X88723688Y-117056505D01*
X88937495Y-117270312D01*
X89188905Y-117438299D01*
X89468257Y-117554011D01*
X89764816Y-117613000D01*
X90067184Y-117613000D01*
X90363743Y-117554011D01*
X90643095Y-117438299D01*
X90894505Y-117270312D01*
X91108312Y-117056505D01*
X91186000Y-116940237D01*
X91263688Y-117056505D01*
X91477495Y-117270312D01*
X91728905Y-117438299D01*
X92008257Y-117554011D01*
X92304816Y-117613000D01*
X92607184Y-117613000D01*
X92894420Y-117555866D01*
X93110742Y-117772188D01*
X93133763Y-117800239D01*
X93245681Y-117892088D01*
X93373368Y-117960338D01*
X93495331Y-117997335D01*
X93511916Y-118002366D01*
X93656001Y-118016557D01*
X93692106Y-118013001D01*
X96045894Y-118013001D01*
X96081999Y-118016557D01*
X96118104Y-118013001D01*
X96226084Y-118002366D01*
X96364632Y-117960338D01*
X96492319Y-117892088D01*
X96604237Y-117800239D01*
X96609000Y-117794435D01*
X96609000Y-117997335D01*
X96664147Y-118274574D01*
X96772320Y-118535727D01*
X96929363Y-118770759D01*
X97129241Y-118970637D01*
X97364273Y-119127680D01*
X97625426Y-119235853D01*
X97902665Y-119291000D01*
X98185335Y-119291000D01*
X98462574Y-119235853D01*
X98723727Y-119127680D01*
X98958759Y-118970637D01*
X99158637Y-118770759D01*
X99315680Y-118535727D01*
X99423853Y-118274574D01*
X99479000Y-117997335D01*
X99479000Y-117714665D01*
X99423853Y-117437426D01*
X99315680Y-117176273D01*
X99158637Y-116941241D01*
X98958759Y-116741363D01*
X98726241Y-116586000D01*
X98958759Y-116430637D01*
X99158637Y-116230759D01*
X99315680Y-115995727D01*
X99423853Y-115734574D01*
X99479000Y-115457335D01*
X99479000Y-115174665D01*
X99423853Y-114897426D01*
X99315680Y-114636273D01*
X99158637Y-114401241D01*
X98958759Y-114201363D01*
X98726241Y-114046000D01*
X98958759Y-113890637D01*
X99158637Y-113690759D01*
X99278748Y-113511000D01*
X102819554Y-113511000D01*
X104271178Y-114962625D01*
X104229000Y-115174665D01*
X104229000Y-115457335D01*
X104284147Y-115734574D01*
X104392320Y-115995727D01*
X104549363Y-116230759D01*
X104749241Y-116430637D01*
X104981759Y-116586000D01*
X104749241Y-116741363D01*
X104549363Y-116941241D01*
X104392320Y-117176273D01*
X104284147Y-117437426D01*
X104229000Y-117714665D01*
X104229000Y-117997335D01*
X104284147Y-118274574D01*
X104392320Y-118535727D01*
X104549363Y-118770759D01*
X104749241Y-118970637D01*
X104984273Y-119127680D01*
X105245426Y-119235853D01*
X105522665Y-119291000D01*
X105805335Y-119291000D01*
X106082574Y-119235853D01*
X106343727Y-119127680D01*
X106578759Y-118970637D01*
X106778637Y-118770759D01*
X106935680Y-118535727D01*
X107043853Y-118274574D01*
X107089180Y-118046702D01*
X112724903Y-118046702D01*
X112796486Y-118290671D01*
X113051996Y-118411571D01*
X113326184Y-118480300D01*
X113608512Y-118494217D01*
X113888130Y-118452787D01*
X114154292Y-118357603D01*
X114279514Y-118290671D01*
X114351097Y-118046702D01*
X114248395Y-117944000D01*
X119161928Y-117944000D01*
X119174188Y-118068482D01*
X119210498Y-118188180D01*
X119269463Y-118298494D01*
X119348815Y-118395185D01*
X119445506Y-118474537D01*
X119555820Y-118533502D01*
X119675518Y-118569812D01*
X119800000Y-118582072D01*
X120364250Y-118579000D01*
X120523000Y-118420250D01*
X120523000Y-117221000D01*
X120777000Y-117221000D01*
X120777000Y-118420250D01*
X120935750Y-118579000D01*
X121500000Y-118582072D01*
X121624482Y-118569812D01*
X121744180Y-118533502D01*
X121854494Y-118474537D01*
X121951185Y-118395185D01*
X122030537Y-118298494D01*
X122089502Y-118188180D01*
X122125812Y-118068482D01*
X122138072Y-117944000D01*
X122135000Y-117379750D01*
X121976250Y-117221000D01*
X120777000Y-117221000D01*
X120523000Y-117221000D01*
X119323750Y-117221000D01*
X119165000Y-117379750D01*
X119161928Y-117944000D01*
X114248395Y-117944000D01*
X113538000Y-117233605D01*
X112724903Y-118046702D01*
X107089180Y-118046702D01*
X107099000Y-117997335D01*
X107099000Y-117714665D01*
X107043853Y-117437426D01*
X106935680Y-117176273D01*
X106778637Y-116941241D01*
X106578759Y-116741363D01*
X106346241Y-116586000D01*
X106578759Y-116430637D01*
X106778637Y-116230759D01*
X106898748Y-116051000D01*
X112502653Y-116051000D01*
X112429023Y-116124630D01*
X112545296Y-116240903D01*
X112301329Y-116312486D01*
X112180429Y-116567996D01*
X112111700Y-116842184D01*
X112097783Y-117124512D01*
X112139213Y-117404130D01*
X112234397Y-117670292D01*
X112301329Y-117795514D01*
X112545298Y-117867097D01*
X113358395Y-117054000D01*
X113717605Y-117054000D01*
X114530702Y-117867097D01*
X114774671Y-117795514D01*
X114895571Y-117540004D01*
X114964300Y-117265816D01*
X114978217Y-116983488D01*
X114936787Y-116703870D01*
X114841603Y-116437708D01*
X114774671Y-116312486D01*
X114541258Y-116244000D01*
X119161928Y-116244000D01*
X119165000Y-116808250D01*
X119323750Y-116967000D01*
X120523000Y-116967000D01*
X120523000Y-115767750D01*
X120777000Y-115767750D01*
X120777000Y-116967000D01*
X121976250Y-116967000D01*
X122135000Y-116808250D01*
X122138072Y-116244000D01*
X122125812Y-116119518D01*
X122089502Y-115999820D01*
X122030537Y-115889506D01*
X121951185Y-115792815D01*
X121935414Y-115779872D01*
X124765000Y-115779872D01*
X124765000Y-116220128D01*
X124850890Y-116651925D01*
X125019369Y-117058669D01*
X125263962Y-117424729D01*
X125575271Y-117736038D01*
X125941331Y-117980631D01*
X126348075Y-118149110D01*
X126779872Y-118235000D01*
X127220128Y-118235000D01*
X127651925Y-118149110D01*
X128058669Y-117980631D01*
X128424729Y-117736038D01*
X128736038Y-117424729D01*
X128980631Y-117058669D01*
X129149110Y-116651925D01*
X129235000Y-116220128D01*
X129235000Y-115779872D01*
X129149110Y-115348075D01*
X128980631Y-114941331D01*
X128736038Y-114575271D01*
X128424729Y-114263962D01*
X128058669Y-114019369D01*
X127651925Y-113850890D01*
X127220128Y-113765000D01*
X126779872Y-113765000D01*
X126348075Y-113850890D01*
X125941331Y-114019369D01*
X125575271Y-114263962D01*
X125263962Y-114575271D01*
X125019369Y-114941331D01*
X124850890Y-115348075D01*
X124765000Y-115779872D01*
X121935414Y-115779872D01*
X121854494Y-115713463D01*
X121744180Y-115654498D01*
X121624482Y-115618188D01*
X121500000Y-115605928D01*
X120935750Y-115609000D01*
X120777000Y-115767750D01*
X120523000Y-115767750D01*
X120364250Y-115609000D01*
X119800000Y-115605928D01*
X119675518Y-115618188D01*
X119555820Y-115654498D01*
X119445506Y-115713463D01*
X119348815Y-115792815D01*
X119269463Y-115889506D01*
X119210498Y-115999820D01*
X119174188Y-116119518D01*
X119161928Y-116244000D01*
X114541258Y-116244000D01*
X114530702Y-116240903D01*
X113717605Y-117054000D01*
X113358395Y-117054000D01*
X113344253Y-117039858D01*
X113523858Y-116860253D01*
X113538000Y-116874395D01*
X114351097Y-116061298D01*
X114330785Y-115992072D01*
X114338000Y-115992072D01*
X114462482Y-115979812D01*
X114582180Y-115943502D01*
X114692494Y-115884537D01*
X114789185Y-115805185D01*
X114868537Y-115708494D01*
X114927502Y-115598180D01*
X114963812Y-115478482D01*
X114976072Y-115354000D01*
X114976072Y-115145311D01*
X115060238Y-115076238D01*
X115083259Y-115048187D01*
X119620197Y-110511249D01*
X119648237Y-110488238D01*
X119671250Y-110460197D01*
X119671253Y-110460194D01*
X119740087Y-110376320D01*
X119808336Y-110248634D01*
X119808337Y-110248633D01*
X119850365Y-110110085D01*
X119861000Y-110002105D01*
X119861000Y-110002104D01*
X119864556Y-109966000D01*
X119861000Y-109929895D01*
X119861000Y-109896072D01*
X119926000Y-109896072D01*
X120050482Y-109883812D01*
X120170180Y-109847502D01*
X120280494Y-109788537D01*
X120377185Y-109709185D01*
X120456537Y-109612494D01*
X120515502Y-109502180D01*
X120551812Y-109382482D01*
X120564072Y-109258000D01*
X120564072Y-109193000D01*
X123987928Y-109193000D01*
X123987928Y-109308000D01*
X124000188Y-109432482D01*
X124036498Y-109552180D01*
X124095463Y-109662494D01*
X124174815Y-109759185D01*
X124271506Y-109838537D01*
X124381820Y-109897502D01*
X124501518Y-109933812D01*
X124626000Y-109946072D01*
X126326000Y-109946072D01*
X126450482Y-109933812D01*
X126570180Y-109897502D01*
X126680494Y-109838537D01*
X126777185Y-109759185D01*
X126856537Y-109662494D01*
X126915502Y-109552180D01*
X126951812Y-109432482D01*
X126964072Y-109308000D01*
X126964072Y-107608000D01*
X126951812Y-107483518D01*
X126915502Y-107363820D01*
X126856537Y-107253506D01*
X126777185Y-107156815D01*
X126680494Y-107077463D01*
X126570180Y-107018498D01*
X126450482Y-106982188D01*
X126326000Y-106969928D01*
X124626000Y-106969928D01*
X124501518Y-106982188D01*
X124381820Y-107018498D01*
X124271506Y-107077463D01*
X124174815Y-107156815D01*
X124095463Y-107253506D01*
X124036498Y-107363820D01*
X124000188Y-107483518D01*
X123987928Y-107608000D01*
X123987928Y-107723000D01*
X120564072Y-107723000D01*
X120564072Y-107658000D01*
X120551812Y-107533518D01*
X120515502Y-107413820D01*
X120456537Y-107303506D01*
X120377185Y-107206815D01*
X120280494Y-107127463D01*
X120170180Y-107068498D01*
X120050482Y-107032188D01*
X119926000Y-107019928D01*
X119861000Y-107019928D01*
X119861000Y-103922105D01*
X119864556Y-103886000D01*
X119850365Y-103741914D01*
X119821252Y-103645942D01*
X119808337Y-103603367D01*
X119740087Y-103475680D01*
X119648238Y-103363762D01*
X119620193Y-103340746D01*
X119417779Y-103138332D01*
X119445000Y-103001486D01*
X119445000Y-102738514D01*
X119393696Y-102480595D01*
X119293061Y-102237641D01*
X119146962Y-102018987D01*
X118961013Y-101833038D01*
X118742359Y-101686939D01*
X118499405Y-101586304D01*
X118241486Y-101535000D01*
X117978514Y-101535000D01*
X117720595Y-101586304D01*
X117477641Y-101686939D01*
X117258987Y-101833038D01*
X117073038Y-102018987D01*
X116926939Y-102237641D01*
X116826304Y-102480595D01*
X116775000Y-102738514D01*
X116775000Y-103001486D01*
X116826304Y-103259405D01*
X116926939Y-103502359D01*
X117073038Y-103721013D01*
X117258987Y-103906962D01*
X117477641Y-104053061D01*
X117720595Y-104153696D01*
X117978514Y-104205000D01*
X118241486Y-104205000D01*
X118378332Y-104177779D01*
X118391001Y-104190448D01*
X118391000Y-107019928D01*
X118326000Y-107019928D01*
X118201518Y-107032188D01*
X118081820Y-107068498D01*
X117971506Y-107127463D01*
X117874815Y-107206815D01*
X117795463Y-107303506D01*
X117736498Y-107413820D01*
X117700188Y-107533518D01*
X117687928Y-107658000D01*
X117687928Y-109258000D01*
X117700188Y-109382482D01*
X117736498Y-109502180D01*
X117795463Y-109612494D01*
X117874815Y-109709185D01*
X117971506Y-109788537D01*
X118081820Y-109847502D01*
X118176370Y-109876183D01*
X114767519Y-113285035D01*
X114692494Y-113223463D01*
X114582180Y-113164498D01*
X114462482Y-113128188D01*
X114338000Y-113115928D01*
X112738000Y-113115928D01*
X112613518Y-113128188D01*
X112493820Y-113164498D01*
X112383506Y-113223463D01*
X112286815Y-113302815D01*
X112207463Y-113399506D01*
X112148498Y-113509820D01*
X112112188Y-113629518D01*
X112099928Y-113754000D01*
X112099928Y-114581000D01*
X106898748Y-114581000D01*
X106778637Y-114401241D01*
X106578759Y-114201363D01*
X106346241Y-114046000D01*
X106578759Y-113890637D01*
X106778637Y-113690759D01*
X106898748Y-113511000D01*
X107151895Y-113511000D01*
X107188000Y-113514556D01*
X107224105Y-113511000D01*
X107332085Y-113500365D01*
X107470633Y-113458337D01*
X107598320Y-113390087D01*
X107710238Y-113298238D01*
X107733259Y-113270187D01*
X111152625Y-109850822D01*
X111364665Y-109893000D01*
X111647335Y-109893000D01*
X111924574Y-109837853D01*
X112185727Y-109729680D01*
X112420759Y-109572637D01*
X112620637Y-109372759D01*
X112777680Y-109137727D01*
X112885853Y-108876574D01*
X112941000Y-108599335D01*
X112941000Y-108316665D01*
X112885853Y-108039426D01*
X112777680Y-107778273D01*
X112620637Y-107543241D01*
X112420759Y-107343363D01*
X112185727Y-107186320D01*
X111924574Y-107078147D01*
X111647335Y-107023000D01*
X111364665Y-107023000D01*
X111225000Y-107050781D01*
X111225000Y-103984479D01*
X111341013Y-103906962D01*
X111526962Y-103721013D01*
X111604479Y-103605000D01*
X114009895Y-103605000D01*
X114046000Y-103608556D01*
X114082105Y-103605000D01*
X114190085Y-103594365D01*
X114328633Y-103552337D01*
X114456320Y-103484087D01*
X114568238Y-103392238D01*
X114591259Y-103364187D01*
X117175574Y-100779872D01*
X124765000Y-100779872D01*
X124765000Y-101220128D01*
X124850890Y-101651925D01*
X125019369Y-102058669D01*
X125263962Y-102424729D01*
X125575271Y-102736038D01*
X125941331Y-102980631D01*
X126348075Y-103149110D01*
X126779872Y-103235000D01*
X127220128Y-103235000D01*
X127651925Y-103149110D01*
X128058669Y-102980631D01*
X128424729Y-102736038D01*
X128736038Y-102424729D01*
X128980631Y-102058669D01*
X129149110Y-101651925D01*
X129235000Y-101220128D01*
X129235000Y-100779872D01*
X129149110Y-100348075D01*
X128980631Y-99941331D01*
X128736038Y-99575271D01*
X128424729Y-99263962D01*
X128058669Y-99019369D01*
X127651925Y-98850890D01*
X127220128Y-98765000D01*
X126779872Y-98765000D01*
X126348075Y-98850890D01*
X125941331Y-99019369D01*
X125575271Y-99263962D01*
X125263962Y-99575271D01*
X125019369Y-99941331D01*
X124850890Y-100348075D01*
X124765000Y-100779872D01*
X117175574Y-100779872D01*
X117841668Y-100113779D01*
X117978514Y-100141000D01*
X118241486Y-100141000D01*
X118499405Y-100089696D01*
X118742359Y-99989061D01*
X118961013Y-99842962D01*
X119146962Y-99657013D01*
X119224479Y-99541000D01*
X120177928Y-99541000D01*
X120177928Y-99656000D01*
X120190188Y-99780482D01*
X120226498Y-99900180D01*
X120285463Y-100010494D01*
X120364815Y-100107185D01*
X120461506Y-100186537D01*
X120571820Y-100245502D01*
X120691518Y-100281812D01*
X120816000Y-100294072D01*
X122516000Y-100294072D01*
X122640482Y-100281812D01*
X122760180Y-100245502D01*
X122870494Y-100186537D01*
X122967185Y-100107185D01*
X123046537Y-100010494D01*
X123105502Y-99900180D01*
X123141812Y-99780482D01*
X123154072Y-99656000D01*
X123154072Y-97956000D01*
X123141812Y-97831518D01*
X123105502Y-97711820D01*
X123046537Y-97601506D01*
X122967185Y-97504815D01*
X122870494Y-97425463D01*
X122760180Y-97366498D01*
X122640482Y-97330188D01*
X122516000Y-97317928D01*
X120816000Y-97317928D01*
X120691518Y-97330188D01*
X120571820Y-97366498D01*
X120461506Y-97425463D01*
X120364815Y-97504815D01*
X120285463Y-97601506D01*
X120226498Y-97711820D01*
X120190188Y-97831518D01*
X120177928Y-97956000D01*
X120177928Y-98071000D01*
X119224479Y-98071000D01*
X119146962Y-97954987D01*
X118961013Y-97769038D01*
X118742359Y-97622939D01*
X118499405Y-97522304D01*
X118241486Y-97471000D01*
X117978514Y-97471000D01*
X117720595Y-97522304D01*
X117477641Y-97622939D01*
X117258987Y-97769038D01*
X117073038Y-97954987D01*
X116926939Y-98173641D01*
X116826304Y-98416595D01*
X116775000Y-98674514D01*
X116775000Y-98937486D01*
X116802221Y-99074332D01*
X113741554Y-102135000D01*
X111604479Y-102135000D01*
X111526962Y-102018987D01*
X111341013Y-101833038D01*
X111122359Y-101686939D01*
X110879405Y-101586304D01*
X110621486Y-101535000D01*
X110358514Y-101535000D01*
X110100595Y-101586304D01*
X109857641Y-101686939D01*
X109638987Y-101833038D01*
X109453038Y-102018987D01*
X109306939Y-102237641D01*
X109206304Y-102480595D01*
X109155000Y-102738514D01*
X109155000Y-103001486D01*
X109206304Y-103259405D01*
X109306939Y-103502359D01*
X109453038Y-103721013D01*
X109638987Y-103906962D01*
X109755001Y-103984479D01*
X109755000Y-107405895D01*
X109751444Y-107442000D01*
X109755000Y-107478104D01*
X109765635Y-107586084D01*
X109807663Y-107724632D01*
X109875913Y-107852319D01*
X109967762Y-107964237D01*
X109995808Y-107987254D01*
X110113178Y-108104624D01*
X110071000Y-108316665D01*
X110071000Y-108599335D01*
X110113178Y-108811375D01*
X106892662Y-112031892D01*
X106778637Y-111861241D01*
X106578759Y-111661363D01*
X106346241Y-111506000D01*
X106578759Y-111350637D01*
X106778637Y-111150759D01*
X106935680Y-110915727D01*
X107043853Y-110654574D01*
X107099000Y-110377335D01*
X107099000Y-110094665D01*
X107043853Y-109817426D01*
X106935680Y-109556273D01*
X106778637Y-109321241D01*
X106578759Y-109121363D01*
X106343727Y-108964320D01*
X106082574Y-108856147D01*
X105805335Y-108801000D01*
X105522665Y-108801000D01*
X105487561Y-108807983D01*
X105279000Y-108599422D01*
X105279000Y-105274521D01*
X105308759Y-105254637D01*
X105508637Y-105054759D01*
X105665680Y-104819727D01*
X105773853Y-104558574D01*
X105829000Y-104281335D01*
X105829000Y-103998665D01*
X105773853Y-103721426D01*
X105665680Y-103460273D01*
X105508637Y-103225241D01*
X105308759Y-103025363D01*
X105073727Y-102868320D01*
X104812574Y-102760147D01*
X104535335Y-102705000D01*
X104252665Y-102705000D01*
X104217561Y-102711983D01*
X104009000Y-102503422D01*
X104009000Y-100290625D01*
X104098482Y-100281812D01*
X104218180Y-100245502D01*
X104328494Y-100186537D01*
X104425185Y-100107185D01*
X104504537Y-100010494D01*
X104563502Y-99900180D01*
X104599812Y-99780482D01*
X104608625Y-99691000D01*
X109487025Y-99691000D01*
X109638987Y-99842962D01*
X109857641Y-99989061D01*
X110100595Y-100089696D01*
X110358514Y-100141000D01*
X110621486Y-100141000D01*
X110879405Y-100089696D01*
X111122359Y-99989061D01*
X111341013Y-99842962D01*
X111526962Y-99657013D01*
X111673061Y-99438359D01*
X111773696Y-99195405D01*
X111825000Y-98937486D01*
X111825000Y-98674514D01*
X111773696Y-98416595D01*
X111673061Y-98173641D01*
X111526962Y-97954987D01*
X111341013Y-97769038D01*
X111122359Y-97622939D01*
X110879405Y-97522304D01*
X110621486Y-97471000D01*
X110358514Y-97471000D01*
X110100595Y-97522304D01*
X109857641Y-97622939D01*
X109638987Y-97769038D01*
X109487025Y-97921000D01*
X104608625Y-97921000D01*
X104599812Y-97831518D01*
X104563502Y-97711820D01*
X104504537Y-97601506D01*
X104425185Y-97504815D01*
X104328494Y-97425463D01*
X104218180Y-97366498D01*
X104098482Y-97330188D01*
X103974000Y-97317928D01*
X102887506Y-97317928D01*
X102480533Y-96910955D01*
X102452816Y-96877182D01*
X102318058Y-96766588D01*
X102164312Y-96684410D01*
X102083844Y-96660000D01*
X131340001Y-96660000D01*
X131340000Y-120340000D01*
X80660000Y-120340000D01*
X80660000Y-115779872D01*
X82765000Y-115779872D01*
X82765000Y-116220128D01*
X82850890Y-116651925D01*
X83019369Y-117058669D01*
X83263962Y-117424729D01*
X83575271Y-117736038D01*
X83941331Y-117980631D01*
X84348075Y-118149110D01*
X84779872Y-118235000D01*
X85220128Y-118235000D01*
X85651925Y-118149110D01*
X86058669Y-117980631D01*
X86424729Y-117736038D01*
X86736038Y-117424729D01*
X86980631Y-117058669D01*
X87149110Y-116651925D01*
X87235000Y-116220128D01*
X87235000Y-115779872D01*
X87149110Y-115348075D01*
X86980631Y-114941331D01*
X86736038Y-114575271D01*
X86424729Y-114263962D01*
X86058669Y-114019369D01*
X85651925Y-113850890D01*
X85220128Y-113765000D01*
X84779872Y-113765000D01*
X84348075Y-113850890D01*
X83941331Y-114019369D01*
X83575271Y-114263962D01*
X83263962Y-114575271D01*
X83019369Y-114941331D01*
X82850890Y-115348075D01*
X82765000Y-115779872D01*
X80660000Y-115779872D01*
X80660000Y-110903269D01*
X86634336Y-110903269D01*
X86693797Y-111137037D01*
X86932242Y-111247934D01*
X87187740Y-111310183D01*
X87450473Y-111321390D01*
X87710344Y-111281125D01*
X87957366Y-111190935D01*
X88058203Y-111137037D01*
X88117664Y-110903269D01*
X87376000Y-110161605D01*
X86634336Y-110903269D01*
X80660000Y-110903269D01*
X80660000Y-105752000D01*
X87665928Y-105752000D01*
X87678188Y-105876482D01*
X87714498Y-105996180D01*
X87773463Y-106106494D01*
X87852815Y-106203185D01*
X87949506Y-106282537D01*
X88059820Y-106341502D01*
X88179518Y-106377812D01*
X88304000Y-106390072D01*
X88868250Y-106387000D01*
X89027000Y-106228250D01*
X89027000Y-105029000D01*
X89281000Y-105029000D01*
X89281000Y-106228250D01*
X89439750Y-106387000D01*
X90004000Y-106390072D01*
X90128482Y-106377812D01*
X90248180Y-106341502D01*
X90358494Y-106282537D01*
X90455185Y-106203185D01*
X90534537Y-106106494D01*
X90593502Y-105996180D01*
X90629812Y-105876482D01*
X90642072Y-105752000D01*
X90639000Y-105187750D01*
X90583952Y-105132702D01*
X98580903Y-105132702D01*
X98652486Y-105376671D01*
X98907996Y-105497571D01*
X99182184Y-105566300D01*
X99464512Y-105580217D01*
X99744130Y-105538787D01*
X100010292Y-105443603D01*
X100135514Y-105376671D01*
X100207097Y-105132702D01*
X99394000Y-104319605D01*
X98580903Y-105132702D01*
X90583952Y-105132702D01*
X90480250Y-105029000D01*
X89281000Y-105029000D01*
X89027000Y-105029000D01*
X87827750Y-105029000D01*
X87669000Y-105187750D01*
X87665928Y-105752000D01*
X80660000Y-105752000D01*
X80660000Y-104052000D01*
X87665928Y-104052000D01*
X87669000Y-104616250D01*
X87827750Y-104775000D01*
X89027000Y-104775000D01*
X89027000Y-103575750D01*
X89281000Y-103575750D01*
X89281000Y-104775000D01*
X90480250Y-104775000D01*
X90639000Y-104616250D01*
X90641208Y-104210512D01*
X97953783Y-104210512D01*
X97995213Y-104490130D01*
X98090397Y-104756292D01*
X98157329Y-104881514D01*
X98401298Y-104953097D01*
X99214395Y-104140000D01*
X99573605Y-104140000D01*
X100386702Y-104953097D01*
X100630671Y-104881514D01*
X100751571Y-104626004D01*
X100820300Y-104351816D01*
X100834217Y-104069488D01*
X100792787Y-103789870D01*
X100697603Y-103523708D01*
X100630671Y-103398486D01*
X100386702Y-103326903D01*
X99573605Y-104140000D01*
X99214395Y-104140000D01*
X98401298Y-103326903D01*
X98157329Y-103398486D01*
X98036429Y-103653996D01*
X97967700Y-103928184D01*
X97953783Y-104210512D01*
X90641208Y-104210512D01*
X90642072Y-104052000D01*
X90629812Y-103927518D01*
X90593502Y-103807820D01*
X90534537Y-103697506D01*
X90455185Y-103600815D01*
X90358494Y-103521463D01*
X90248180Y-103462498D01*
X90128482Y-103426188D01*
X90004000Y-103413928D01*
X89439750Y-103417000D01*
X89281000Y-103575750D01*
X89027000Y-103575750D01*
X88868250Y-103417000D01*
X88304000Y-103413928D01*
X88179518Y-103426188D01*
X88059820Y-103462498D01*
X87949506Y-103521463D01*
X87852815Y-103600815D01*
X87773463Y-103697506D01*
X87714498Y-103807820D01*
X87678188Y-103927518D01*
X87665928Y-104052000D01*
X80660000Y-104052000D01*
X80660000Y-100779872D01*
X82765000Y-100779872D01*
X82765000Y-101220128D01*
X82850890Y-101651925D01*
X83019369Y-102058669D01*
X83263962Y-102424729D01*
X83575271Y-102736038D01*
X83941331Y-102980631D01*
X84348075Y-103149110D01*
X84779872Y-103235000D01*
X85220128Y-103235000D01*
X85651925Y-103149110D01*
X86058669Y-102980631D01*
X86424729Y-102736038D01*
X86736038Y-102424729D01*
X86980631Y-102058669D01*
X87149110Y-101651925D01*
X87235000Y-101220128D01*
X87235000Y-100779872D01*
X87149110Y-100348075D01*
X86980631Y-99941331D01*
X86736038Y-99575271D01*
X86424729Y-99263962D01*
X86058669Y-99019369D01*
X85651925Y-98850890D01*
X85220128Y-98765000D01*
X84779872Y-98765000D01*
X84348075Y-98850890D01*
X83941331Y-99019369D01*
X83575271Y-99263962D01*
X83263962Y-99575271D01*
X83019369Y-99941331D01*
X82850890Y-100348075D01*
X82765000Y-100779872D01*
X80660000Y-100779872D01*
X80660000Y-98181000D01*
X90379928Y-98181000D01*
X90379928Y-99431000D01*
X90396992Y-99604254D01*
X90447528Y-99770850D01*
X90529595Y-99924386D01*
X90640038Y-100058962D01*
X90774614Y-100169405D01*
X90928150Y-100251472D01*
X90995500Y-100271902D01*
X90995501Y-100388098D01*
X90928150Y-100408528D01*
X90774614Y-100490595D01*
X90640038Y-100601038D01*
X90529595Y-100735614D01*
X90447528Y-100889150D01*
X90396992Y-101055746D01*
X90379928Y-101229000D01*
X90379928Y-102479000D01*
X90396992Y-102652254D01*
X90447528Y-102818850D01*
X90529595Y-102972386D01*
X90640038Y-103106962D01*
X90774614Y-103217405D01*
X90928150Y-103299472D01*
X91094746Y-103350008D01*
X91268000Y-103367072D01*
X92193000Y-103367072D01*
X92366254Y-103350008D01*
X92532850Y-103299472D01*
X92686386Y-103217405D01*
X92820962Y-103106962D01*
X92931405Y-102972386D01*
X93013472Y-102818850D01*
X93040727Y-102729000D01*
X93354928Y-102729000D01*
X93367188Y-102853482D01*
X93403498Y-102973180D01*
X93462463Y-103083494D01*
X93541815Y-103180185D01*
X93638506Y-103259537D01*
X93748820Y-103318502D01*
X93868518Y-103354812D01*
X93993000Y-103367072D01*
X94419750Y-103364000D01*
X94578500Y-103205250D01*
X94578500Y-101981000D01*
X94832500Y-101981000D01*
X94832500Y-103205250D01*
X94991250Y-103364000D01*
X95418000Y-103367072D01*
X95542482Y-103354812D01*
X95662180Y-103318502D01*
X95772494Y-103259537D01*
X95869185Y-103180185D01*
X95896174Y-103147298D01*
X98580903Y-103147298D01*
X99394000Y-103960395D01*
X100207097Y-103147298D01*
X100135514Y-102903329D01*
X99880004Y-102782429D01*
X99605816Y-102713700D01*
X99323488Y-102699783D01*
X99043870Y-102741213D01*
X98777708Y-102836397D01*
X98652486Y-102903329D01*
X98580903Y-103147298D01*
X95896174Y-103147298D01*
X95948537Y-103083494D01*
X96007502Y-102973180D01*
X96043812Y-102853482D01*
X96056072Y-102729000D01*
X96053000Y-102139750D01*
X95894250Y-101981000D01*
X94832500Y-101981000D01*
X94578500Y-101981000D01*
X93516750Y-101981000D01*
X93358000Y-102139750D01*
X93354928Y-102729000D01*
X93040727Y-102729000D01*
X93064008Y-102652254D01*
X93081072Y-102479000D01*
X93081072Y-101229000D01*
X93064008Y-101055746D01*
X93040728Y-100979000D01*
X93354928Y-100979000D01*
X93358000Y-101568250D01*
X93516750Y-101727000D01*
X94578500Y-101727000D01*
X94578500Y-100502750D01*
X94832500Y-100502750D01*
X94832500Y-101727000D01*
X95894250Y-101727000D01*
X96053000Y-101568250D01*
X96056072Y-100979000D01*
X96043812Y-100854518D01*
X96007502Y-100734820D01*
X95948537Y-100624506D01*
X95869185Y-100527815D01*
X95772494Y-100448463D01*
X95662180Y-100389498D01*
X95542482Y-100353188D01*
X95418000Y-100340928D01*
X94991250Y-100344000D01*
X94832500Y-100502750D01*
X94578500Y-100502750D01*
X94419750Y-100344000D01*
X93993000Y-100340928D01*
X93868518Y-100353188D01*
X93748820Y-100389498D01*
X93638506Y-100448463D01*
X93541815Y-100527815D01*
X93462463Y-100624506D01*
X93403498Y-100734820D01*
X93367188Y-100854518D01*
X93354928Y-100979000D01*
X93040728Y-100979000D01*
X93013472Y-100889150D01*
X92931405Y-100735614D01*
X92820962Y-100601038D01*
X92686386Y-100490595D01*
X92532850Y-100408528D01*
X92465500Y-100388098D01*
X92465500Y-100271902D01*
X92532850Y-100251472D01*
X92686386Y-100169405D01*
X92820962Y-100058962D01*
X92931405Y-99924386D01*
X93013472Y-99770850D01*
X93064008Y-99604254D01*
X93081072Y-99431000D01*
X93081072Y-98181000D01*
X93064008Y-98007746D01*
X93013472Y-97841150D01*
X92931405Y-97687614D01*
X92820962Y-97553038D01*
X92686386Y-97442595D01*
X92532850Y-97360528D01*
X92366254Y-97309992D01*
X92193000Y-97292928D01*
X91268000Y-97292928D01*
X91094746Y-97309992D01*
X90928150Y-97360528D01*
X90774614Y-97442595D01*
X90640038Y-97553038D01*
X90529595Y-97687614D01*
X90447528Y-97841150D01*
X90396992Y-98007746D01*
X90379928Y-98181000D01*
X80660000Y-98181000D01*
X80660000Y-96660000D01*
X96458156Y-96660000D01*
X96377688Y-96684410D01*
M02*
