%TF.GenerationSoftware,KiCad,Pcbnew,(5.1.5)-3*%
%TF.CreationDate,2020-04-15T21:14:40+02:00*%
%TF.ProjectId,NE555,4e453535-352e-46b6-9963-61645f706362,v1.1*%
%TF.SameCoordinates,Original*%
%TF.FileFunction,Paste,Top*%
%TF.FilePolarity,Positive*%
%FSLAX46Y46*%
G04 Gerber Fmt 4.6, Leading zero omitted, Abs format (unit mm)*
G04 Created by KiCad (PCBNEW (5.1.5)-3) date 2020-04-15 21:14:40*
%MOMM*%
%LPD*%
G04 APERTURE LIST*
%ADD10C,0.100000*%
G04 APERTURE END LIST*
D10*
G36*
X92217504Y-97932204D02*
G01*
X92241773Y-97935804D01*
X92265571Y-97941765D01*
X92288671Y-97950030D01*
X92310849Y-97960520D01*
X92331893Y-97973133D01*
X92351598Y-97987747D01*
X92369777Y-98004223D01*
X92386253Y-98022402D01*
X92400867Y-98042107D01*
X92413480Y-98063151D01*
X92423970Y-98085329D01*
X92432235Y-98108429D01*
X92438196Y-98132227D01*
X92441796Y-98156496D01*
X92443000Y-98181000D01*
X92443000Y-99431000D01*
X92441796Y-99455504D01*
X92438196Y-99479773D01*
X92432235Y-99503571D01*
X92423970Y-99526671D01*
X92413480Y-99548849D01*
X92400867Y-99569893D01*
X92386253Y-99589598D01*
X92369777Y-99607777D01*
X92351598Y-99624253D01*
X92331893Y-99638867D01*
X92310849Y-99651480D01*
X92288671Y-99661970D01*
X92265571Y-99670235D01*
X92241773Y-99676196D01*
X92217504Y-99679796D01*
X92193000Y-99681000D01*
X91268000Y-99681000D01*
X91243496Y-99679796D01*
X91219227Y-99676196D01*
X91195429Y-99670235D01*
X91172329Y-99661970D01*
X91150151Y-99651480D01*
X91129107Y-99638867D01*
X91109402Y-99624253D01*
X91091223Y-99607777D01*
X91074747Y-99589598D01*
X91060133Y-99569893D01*
X91047520Y-99548849D01*
X91037030Y-99526671D01*
X91028765Y-99503571D01*
X91022804Y-99479773D01*
X91019204Y-99455504D01*
X91018000Y-99431000D01*
X91018000Y-98181000D01*
X91019204Y-98156496D01*
X91022804Y-98132227D01*
X91028765Y-98108429D01*
X91037030Y-98085329D01*
X91047520Y-98063151D01*
X91060133Y-98042107D01*
X91074747Y-98022402D01*
X91091223Y-98004223D01*
X91109402Y-97987747D01*
X91129107Y-97973133D01*
X91150151Y-97960520D01*
X91172329Y-97950030D01*
X91195429Y-97941765D01*
X91219227Y-97935804D01*
X91243496Y-97932204D01*
X91268000Y-97931000D01*
X92193000Y-97931000D01*
X92217504Y-97932204D01*
G37*
G36*
X95192504Y-97932204D02*
G01*
X95216773Y-97935804D01*
X95240571Y-97941765D01*
X95263671Y-97950030D01*
X95285849Y-97960520D01*
X95306893Y-97973133D01*
X95326598Y-97987747D01*
X95344777Y-98004223D01*
X95361253Y-98022402D01*
X95375867Y-98042107D01*
X95388480Y-98063151D01*
X95398970Y-98085329D01*
X95407235Y-98108429D01*
X95413196Y-98132227D01*
X95416796Y-98156496D01*
X95418000Y-98181000D01*
X95418000Y-99431000D01*
X95416796Y-99455504D01*
X95413196Y-99479773D01*
X95407235Y-99503571D01*
X95398970Y-99526671D01*
X95388480Y-99548849D01*
X95375867Y-99569893D01*
X95361253Y-99589598D01*
X95344777Y-99607777D01*
X95326598Y-99624253D01*
X95306893Y-99638867D01*
X95285849Y-99651480D01*
X95263671Y-99661970D01*
X95240571Y-99670235D01*
X95216773Y-99676196D01*
X95192504Y-99679796D01*
X95168000Y-99681000D01*
X94243000Y-99681000D01*
X94218496Y-99679796D01*
X94194227Y-99676196D01*
X94170429Y-99670235D01*
X94147329Y-99661970D01*
X94125151Y-99651480D01*
X94104107Y-99638867D01*
X94084402Y-99624253D01*
X94066223Y-99607777D01*
X94049747Y-99589598D01*
X94035133Y-99569893D01*
X94022520Y-99548849D01*
X94012030Y-99526671D01*
X94003765Y-99503571D01*
X93997804Y-99479773D01*
X93994204Y-99455504D01*
X93993000Y-99431000D01*
X93993000Y-98181000D01*
X93994204Y-98156496D01*
X93997804Y-98132227D01*
X94003765Y-98108429D01*
X94012030Y-98085329D01*
X94022520Y-98063151D01*
X94035133Y-98042107D01*
X94049747Y-98022402D01*
X94066223Y-98004223D01*
X94084402Y-97987747D01*
X94104107Y-97973133D01*
X94125151Y-97960520D01*
X94147329Y-97950030D01*
X94170429Y-97941765D01*
X94194227Y-97935804D01*
X94218496Y-97932204D01*
X94243000Y-97931000D01*
X95168000Y-97931000D01*
X95192504Y-97932204D01*
G37*
G36*
X92217504Y-100980204D02*
G01*
X92241773Y-100983804D01*
X92265571Y-100989765D01*
X92288671Y-100998030D01*
X92310849Y-101008520D01*
X92331893Y-101021133D01*
X92351598Y-101035747D01*
X92369777Y-101052223D01*
X92386253Y-101070402D01*
X92400867Y-101090107D01*
X92413480Y-101111151D01*
X92423970Y-101133329D01*
X92432235Y-101156429D01*
X92438196Y-101180227D01*
X92441796Y-101204496D01*
X92443000Y-101229000D01*
X92443000Y-102479000D01*
X92441796Y-102503504D01*
X92438196Y-102527773D01*
X92432235Y-102551571D01*
X92423970Y-102574671D01*
X92413480Y-102596849D01*
X92400867Y-102617893D01*
X92386253Y-102637598D01*
X92369777Y-102655777D01*
X92351598Y-102672253D01*
X92331893Y-102686867D01*
X92310849Y-102699480D01*
X92288671Y-102709970D01*
X92265571Y-102718235D01*
X92241773Y-102724196D01*
X92217504Y-102727796D01*
X92193000Y-102729000D01*
X91268000Y-102729000D01*
X91243496Y-102727796D01*
X91219227Y-102724196D01*
X91195429Y-102718235D01*
X91172329Y-102709970D01*
X91150151Y-102699480D01*
X91129107Y-102686867D01*
X91109402Y-102672253D01*
X91091223Y-102655777D01*
X91074747Y-102637598D01*
X91060133Y-102617893D01*
X91047520Y-102596849D01*
X91037030Y-102574671D01*
X91028765Y-102551571D01*
X91022804Y-102527773D01*
X91019204Y-102503504D01*
X91018000Y-102479000D01*
X91018000Y-101229000D01*
X91019204Y-101204496D01*
X91022804Y-101180227D01*
X91028765Y-101156429D01*
X91037030Y-101133329D01*
X91047520Y-101111151D01*
X91060133Y-101090107D01*
X91074747Y-101070402D01*
X91091223Y-101052223D01*
X91109402Y-101035747D01*
X91129107Y-101021133D01*
X91150151Y-101008520D01*
X91172329Y-100998030D01*
X91195429Y-100989765D01*
X91219227Y-100983804D01*
X91243496Y-100980204D01*
X91268000Y-100979000D01*
X92193000Y-100979000D01*
X92217504Y-100980204D01*
G37*
G36*
X95192504Y-100980204D02*
G01*
X95216773Y-100983804D01*
X95240571Y-100989765D01*
X95263671Y-100998030D01*
X95285849Y-101008520D01*
X95306893Y-101021133D01*
X95326598Y-101035747D01*
X95344777Y-101052223D01*
X95361253Y-101070402D01*
X95375867Y-101090107D01*
X95388480Y-101111151D01*
X95398970Y-101133329D01*
X95407235Y-101156429D01*
X95413196Y-101180227D01*
X95416796Y-101204496D01*
X95418000Y-101229000D01*
X95418000Y-102479000D01*
X95416796Y-102503504D01*
X95413196Y-102527773D01*
X95407235Y-102551571D01*
X95398970Y-102574671D01*
X95388480Y-102596849D01*
X95375867Y-102617893D01*
X95361253Y-102637598D01*
X95344777Y-102655777D01*
X95326598Y-102672253D01*
X95306893Y-102686867D01*
X95285849Y-102699480D01*
X95263671Y-102709970D01*
X95240571Y-102718235D01*
X95216773Y-102724196D01*
X95192504Y-102727796D01*
X95168000Y-102729000D01*
X94243000Y-102729000D01*
X94218496Y-102727796D01*
X94194227Y-102724196D01*
X94170429Y-102718235D01*
X94147329Y-102709970D01*
X94125151Y-102699480D01*
X94104107Y-102686867D01*
X94084402Y-102672253D01*
X94066223Y-102655777D01*
X94049747Y-102637598D01*
X94035133Y-102617893D01*
X94022520Y-102596849D01*
X94012030Y-102574671D01*
X94003765Y-102551571D01*
X93997804Y-102527773D01*
X93994204Y-102503504D01*
X93993000Y-102479000D01*
X93993000Y-101229000D01*
X93994204Y-101204496D01*
X93997804Y-101180227D01*
X94003765Y-101156429D01*
X94012030Y-101133329D01*
X94022520Y-101111151D01*
X94035133Y-101090107D01*
X94049747Y-101070402D01*
X94066223Y-101052223D01*
X94084402Y-101035747D01*
X94104107Y-101021133D01*
X94125151Y-101008520D01*
X94147329Y-100998030D01*
X94170429Y-100989765D01*
X94194227Y-100983804D01*
X94218496Y-100980204D01*
X94243000Y-100979000D01*
X95168000Y-100979000D01*
X95192504Y-100980204D01*
G37*
M02*
