%TF.GenerationSoftware,KiCad,Pcbnew,(5.1.5)-3*%
%TF.CreationDate,2020-04-15T21:14:40+02:00*%
%TF.ProjectId,NE555,4e453535-352e-46b6-9963-61645f706362,v1.1*%
%TF.SameCoordinates,Original*%
%TF.FileFunction,Copper,L2,Bot*%
%TF.FilePolarity,Positive*%
%FSLAX46Y46*%
G04 Gerber Fmt 4.6, Leading zero omitted, Abs format (unit mm)*
G04 Created by KiCad (PCBNEW (5.1.5)-3) date 2020-04-15 21:14:40*
%MOMM*%
%LPD*%
G04 APERTURE LIST*
%ADD10C,1.600000*%
%ADD11R,1.600000X1.600000*%
%ADD12O,1.600000X1.600000*%
%ADD13R,1.800000X1.800000*%
%ADD14C,1.800000*%
%ADD15R,1.700000X1.700000*%
%ADD16O,1.700000X1.700000*%
%ADD17C,1.400000*%
%ADD18O,1.400000X1.400000*%
%ADD19C,0.500000*%
%ADD20C,0.254000*%
G04 APERTURE END LIST*
D10*
X104394000Y-104140000D03*
X99394000Y-104140000D03*
D11*
X113538000Y-114554000D03*
D10*
X113538000Y-117054000D03*
D11*
X119126000Y-108458000D03*
D12*
X111506000Y-108458000D03*
D13*
X94996000Y-116078000D03*
D14*
X92456000Y-116078000D03*
X89916000Y-116078000D03*
D15*
X103124000Y-98806000D03*
D16*
X100584000Y-98806000D03*
D15*
X89154000Y-104902000D03*
X120650000Y-117094000D03*
X83058000Y-108712000D03*
X125476000Y-108458000D03*
X121666000Y-98806000D03*
D17*
X110490000Y-98806000D03*
D18*
X118110000Y-98806000D03*
X118110000Y-102870000D03*
D17*
X110490000Y-102870000D03*
X87376000Y-109982000D03*
D18*
X94996000Y-109982000D03*
D11*
X98044000Y-110236000D03*
D12*
X105664000Y-117856000D03*
X98044000Y-112776000D03*
X105664000Y-115316000D03*
X98044000Y-115316000D03*
X105664000Y-112776000D03*
X98044000Y-117856000D03*
X105664000Y-110236000D03*
D19*
X98044000Y-117856000D02*
X105664000Y-110236000D01*
D20*
G36*
X131340000Y-120340000D02*
G01*
X80660000Y-120340000D01*
X80660000Y-115779872D01*
X82765000Y-115779872D01*
X82765000Y-116220128D01*
X82850890Y-116651925D01*
X83019369Y-117058669D01*
X83263962Y-117424729D01*
X83575271Y-117736038D01*
X83941331Y-117980631D01*
X84348075Y-118149110D01*
X84779872Y-118235000D01*
X85220128Y-118235000D01*
X85651925Y-118149110D01*
X86058669Y-117980631D01*
X86424729Y-117736038D01*
X86736038Y-117424729D01*
X86980631Y-117058669D01*
X87149110Y-116651925D01*
X87235000Y-116220128D01*
X87235000Y-115926816D01*
X88381000Y-115926816D01*
X88381000Y-116229184D01*
X88439989Y-116525743D01*
X88555701Y-116805095D01*
X88723688Y-117056505D01*
X88937495Y-117270312D01*
X89188905Y-117438299D01*
X89468257Y-117554011D01*
X89764816Y-117613000D01*
X90067184Y-117613000D01*
X90363743Y-117554011D01*
X90643095Y-117438299D01*
X90894505Y-117270312D01*
X91108312Y-117056505D01*
X91186000Y-116940237D01*
X91263688Y-117056505D01*
X91477495Y-117270312D01*
X91728905Y-117438299D01*
X92008257Y-117554011D01*
X92304816Y-117613000D01*
X92607184Y-117613000D01*
X92903743Y-117554011D01*
X93183095Y-117438299D01*
X93434505Y-117270312D01*
X93500944Y-117203873D01*
X93506498Y-117222180D01*
X93565463Y-117332494D01*
X93644815Y-117429185D01*
X93741506Y-117508537D01*
X93851820Y-117567502D01*
X93971518Y-117603812D01*
X94096000Y-117616072D01*
X95896000Y-117616072D01*
X96020482Y-117603812D01*
X96140180Y-117567502D01*
X96250494Y-117508537D01*
X96347185Y-117429185D01*
X96426537Y-117332494D01*
X96485502Y-117222180D01*
X96521812Y-117102482D01*
X96534072Y-116978000D01*
X96534072Y-115178000D01*
X96521812Y-115053518D01*
X96485502Y-114933820D01*
X96426537Y-114823506D01*
X96347185Y-114726815D01*
X96250494Y-114647463D01*
X96140180Y-114588498D01*
X96020482Y-114552188D01*
X95896000Y-114539928D01*
X94096000Y-114539928D01*
X93971518Y-114552188D01*
X93851820Y-114588498D01*
X93741506Y-114647463D01*
X93644815Y-114726815D01*
X93565463Y-114823506D01*
X93506498Y-114933820D01*
X93500944Y-114952127D01*
X93434505Y-114885688D01*
X93183095Y-114717701D01*
X92903743Y-114601989D01*
X92607184Y-114543000D01*
X92304816Y-114543000D01*
X92008257Y-114601989D01*
X91728905Y-114717701D01*
X91477495Y-114885688D01*
X91263688Y-115099495D01*
X91186000Y-115215763D01*
X91108312Y-115099495D01*
X90894505Y-114885688D01*
X90643095Y-114717701D01*
X90363743Y-114601989D01*
X90067184Y-114543000D01*
X89764816Y-114543000D01*
X89468257Y-114601989D01*
X89188905Y-114717701D01*
X88937495Y-114885688D01*
X88723688Y-115099495D01*
X88555701Y-115350905D01*
X88439989Y-115630257D01*
X88381000Y-115926816D01*
X87235000Y-115926816D01*
X87235000Y-115779872D01*
X87149110Y-115348075D01*
X86980631Y-114941331D01*
X86736038Y-114575271D01*
X86424729Y-114263962D01*
X86058669Y-114019369D01*
X85651925Y-113850890D01*
X85220128Y-113765000D01*
X84779872Y-113765000D01*
X84348075Y-113850890D01*
X83941331Y-114019369D01*
X83575271Y-114263962D01*
X83263962Y-114575271D01*
X83019369Y-114941331D01*
X82850890Y-115348075D01*
X82765000Y-115779872D01*
X80660000Y-115779872D01*
X80660000Y-110903269D01*
X86634336Y-110903269D01*
X86693797Y-111137037D01*
X86932242Y-111247934D01*
X87187740Y-111310183D01*
X87450473Y-111321390D01*
X87710344Y-111281125D01*
X87957366Y-111190935D01*
X88058203Y-111137037D01*
X88117664Y-110903269D01*
X87376000Y-110161605D01*
X86634336Y-110903269D01*
X80660000Y-110903269D01*
X80660000Y-107862000D01*
X81569928Y-107862000D01*
X81569928Y-109562000D01*
X81582188Y-109686482D01*
X81618498Y-109806180D01*
X81677463Y-109916494D01*
X81756815Y-110013185D01*
X81853506Y-110092537D01*
X81963820Y-110151502D01*
X82083518Y-110187812D01*
X82208000Y-110200072D01*
X83908000Y-110200072D01*
X84032482Y-110187812D01*
X84152180Y-110151502D01*
X84262494Y-110092537D01*
X84306438Y-110056473D01*
X86036610Y-110056473D01*
X86076875Y-110316344D01*
X86167065Y-110563366D01*
X86220963Y-110664203D01*
X86454731Y-110723664D01*
X87196395Y-109982000D01*
X87555605Y-109982000D01*
X88297269Y-110723664D01*
X88531037Y-110664203D01*
X88641934Y-110425758D01*
X88704183Y-110170260D01*
X88715390Y-109907527D01*
X88706557Y-109850514D01*
X93661000Y-109850514D01*
X93661000Y-110113486D01*
X93712304Y-110371405D01*
X93812939Y-110614359D01*
X93959038Y-110833013D01*
X94144987Y-111018962D01*
X94363641Y-111165061D01*
X94606595Y-111265696D01*
X94864514Y-111317000D01*
X95127486Y-111317000D01*
X95385405Y-111265696D01*
X95628359Y-111165061D01*
X95821513Y-111036000D01*
X96605928Y-111036000D01*
X96618188Y-111160482D01*
X96654498Y-111280180D01*
X96713463Y-111390494D01*
X96792815Y-111487185D01*
X96889506Y-111566537D01*
X96999820Y-111625502D01*
X97119518Y-111661812D01*
X97127961Y-111662643D01*
X96929363Y-111861241D01*
X96772320Y-112096273D01*
X96664147Y-112357426D01*
X96609000Y-112634665D01*
X96609000Y-112917335D01*
X96664147Y-113194574D01*
X96772320Y-113455727D01*
X96929363Y-113690759D01*
X97129241Y-113890637D01*
X97361759Y-114046000D01*
X97129241Y-114201363D01*
X96929363Y-114401241D01*
X96772320Y-114636273D01*
X96664147Y-114897426D01*
X96609000Y-115174665D01*
X96609000Y-115457335D01*
X96664147Y-115734574D01*
X96772320Y-115995727D01*
X96929363Y-116230759D01*
X97129241Y-116430637D01*
X97361759Y-116586000D01*
X97129241Y-116741363D01*
X96929363Y-116941241D01*
X96772320Y-117176273D01*
X96664147Y-117437426D01*
X96609000Y-117714665D01*
X96609000Y-117997335D01*
X96664147Y-118274574D01*
X96772320Y-118535727D01*
X96929363Y-118770759D01*
X97129241Y-118970637D01*
X97364273Y-119127680D01*
X97625426Y-119235853D01*
X97902665Y-119291000D01*
X98185335Y-119291000D01*
X98462574Y-119235853D01*
X98723727Y-119127680D01*
X98958759Y-118970637D01*
X99158637Y-118770759D01*
X99315680Y-118535727D01*
X99423853Y-118274574D01*
X99479000Y-117997335D01*
X99479000Y-117714665D01*
X99472017Y-117679561D01*
X104229870Y-112921709D01*
X104284147Y-113194574D01*
X104392320Y-113455727D01*
X104549363Y-113690759D01*
X104749241Y-113890637D01*
X104981759Y-114046000D01*
X104749241Y-114201363D01*
X104549363Y-114401241D01*
X104392320Y-114636273D01*
X104284147Y-114897426D01*
X104229000Y-115174665D01*
X104229000Y-115457335D01*
X104284147Y-115734574D01*
X104392320Y-115995727D01*
X104549363Y-116230759D01*
X104749241Y-116430637D01*
X104981759Y-116586000D01*
X104749241Y-116741363D01*
X104549363Y-116941241D01*
X104392320Y-117176273D01*
X104284147Y-117437426D01*
X104229000Y-117714665D01*
X104229000Y-117997335D01*
X104284147Y-118274574D01*
X104392320Y-118535727D01*
X104549363Y-118770759D01*
X104749241Y-118970637D01*
X104984273Y-119127680D01*
X105245426Y-119235853D01*
X105522665Y-119291000D01*
X105805335Y-119291000D01*
X106082574Y-119235853D01*
X106343727Y-119127680D01*
X106578759Y-118970637D01*
X106778637Y-118770759D01*
X106935680Y-118535727D01*
X107043853Y-118274574D01*
X107089180Y-118046702D01*
X112724903Y-118046702D01*
X112796486Y-118290671D01*
X113051996Y-118411571D01*
X113326184Y-118480300D01*
X113608512Y-118494217D01*
X113888130Y-118452787D01*
X114154292Y-118357603D01*
X114279514Y-118290671D01*
X114351097Y-118046702D01*
X114248395Y-117944000D01*
X119161928Y-117944000D01*
X119174188Y-118068482D01*
X119210498Y-118188180D01*
X119269463Y-118298494D01*
X119348815Y-118395185D01*
X119445506Y-118474537D01*
X119555820Y-118533502D01*
X119675518Y-118569812D01*
X119800000Y-118582072D01*
X120364250Y-118579000D01*
X120523000Y-118420250D01*
X120523000Y-117221000D01*
X120777000Y-117221000D01*
X120777000Y-118420250D01*
X120935750Y-118579000D01*
X121500000Y-118582072D01*
X121624482Y-118569812D01*
X121744180Y-118533502D01*
X121854494Y-118474537D01*
X121951185Y-118395185D01*
X122030537Y-118298494D01*
X122089502Y-118188180D01*
X122125812Y-118068482D01*
X122138072Y-117944000D01*
X122135000Y-117379750D01*
X121976250Y-117221000D01*
X120777000Y-117221000D01*
X120523000Y-117221000D01*
X119323750Y-117221000D01*
X119165000Y-117379750D01*
X119161928Y-117944000D01*
X114248395Y-117944000D01*
X113538000Y-117233605D01*
X112724903Y-118046702D01*
X107089180Y-118046702D01*
X107099000Y-117997335D01*
X107099000Y-117714665D01*
X107043853Y-117437426D01*
X106935680Y-117176273D01*
X106901095Y-117124512D01*
X112097783Y-117124512D01*
X112139213Y-117404130D01*
X112234397Y-117670292D01*
X112301329Y-117795514D01*
X112545298Y-117867097D01*
X113358395Y-117054000D01*
X113717605Y-117054000D01*
X114530702Y-117867097D01*
X114774671Y-117795514D01*
X114895571Y-117540004D01*
X114964300Y-117265816D01*
X114978217Y-116983488D01*
X114936787Y-116703870D01*
X114841603Y-116437708D01*
X114774671Y-116312486D01*
X114541258Y-116244000D01*
X119161928Y-116244000D01*
X119165000Y-116808250D01*
X119323750Y-116967000D01*
X120523000Y-116967000D01*
X120523000Y-115767750D01*
X120777000Y-115767750D01*
X120777000Y-116967000D01*
X121976250Y-116967000D01*
X122135000Y-116808250D01*
X122138072Y-116244000D01*
X122125812Y-116119518D01*
X122089502Y-115999820D01*
X122030537Y-115889506D01*
X121951185Y-115792815D01*
X121935414Y-115779872D01*
X124765000Y-115779872D01*
X124765000Y-116220128D01*
X124850890Y-116651925D01*
X125019369Y-117058669D01*
X125263962Y-117424729D01*
X125575271Y-117736038D01*
X125941331Y-117980631D01*
X126348075Y-118149110D01*
X126779872Y-118235000D01*
X127220128Y-118235000D01*
X127651925Y-118149110D01*
X128058669Y-117980631D01*
X128424729Y-117736038D01*
X128736038Y-117424729D01*
X128980631Y-117058669D01*
X129149110Y-116651925D01*
X129235000Y-116220128D01*
X129235000Y-115779872D01*
X129149110Y-115348075D01*
X128980631Y-114941331D01*
X128736038Y-114575271D01*
X128424729Y-114263962D01*
X128058669Y-114019369D01*
X127651925Y-113850890D01*
X127220128Y-113765000D01*
X126779872Y-113765000D01*
X126348075Y-113850890D01*
X125941331Y-114019369D01*
X125575271Y-114263962D01*
X125263962Y-114575271D01*
X125019369Y-114941331D01*
X124850890Y-115348075D01*
X124765000Y-115779872D01*
X121935414Y-115779872D01*
X121854494Y-115713463D01*
X121744180Y-115654498D01*
X121624482Y-115618188D01*
X121500000Y-115605928D01*
X120935750Y-115609000D01*
X120777000Y-115767750D01*
X120523000Y-115767750D01*
X120364250Y-115609000D01*
X119800000Y-115605928D01*
X119675518Y-115618188D01*
X119555820Y-115654498D01*
X119445506Y-115713463D01*
X119348815Y-115792815D01*
X119269463Y-115889506D01*
X119210498Y-115999820D01*
X119174188Y-116119518D01*
X119161928Y-116244000D01*
X114541258Y-116244000D01*
X114530702Y-116240903D01*
X113717605Y-117054000D01*
X113358395Y-117054000D01*
X112545298Y-116240903D01*
X112301329Y-116312486D01*
X112180429Y-116567996D01*
X112111700Y-116842184D01*
X112097783Y-117124512D01*
X106901095Y-117124512D01*
X106778637Y-116941241D01*
X106578759Y-116741363D01*
X106346241Y-116586000D01*
X106578759Y-116430637D01*
X106778637Y-116230759D01*
X106935680Y-115995727D01*
X107043853Y-115734574D01*
X107099000Y-115457335D01*
X107099000Y-115174665D01*
X107043853Y-114897426D01*
X106935680Y-114636273D01*
X106778637Y-114401241D01*
X106578759Y-114201363D01*
X106346241Y-114046000D01*
X106578759Y-113890637D01*
X106715396Y-113754000D01*
X112099928Y-113754000D01*
X112099928Y-115354000D01*
X112112188Y-115478482D01*
X112148498Y-115598180D01*
X112207463Y-115708494D01*
X112286815Y-115805185D01*
X112383506Y-115884537D01*
X112493820Y-115943502D01*
X112613518Y-115979812D01*
X112738000Y-115992072D01*
X112745215Y-115992072D01*
X112724903Y-116061298D01*
X113538000Y-116874395D01*
X114351097Y-116061298D01*
X114330785Y-115992072D01*
X114338000Y-115992072D01*
X114462482Y-115979812D01*
X114582180Y-115943502D01*
X114692494Y-115884537D01*
X114789185Y-115805185D01*
X114868537Y-115708494D01*
X114927502Y-115598180D01*
X114963812Y-115478482D01*
X114976072Y-115354000D01*
X114976072Y-113754000D01*
X114963812Y-113629518D01*
X114927502Y-113509820D01*
X114868537Y-113399506D01*
X114789185Y-113302815D01*
X114692494Y-113223463D01*
X114582180Y-113164498D01*
X114462482Y-113128188D01*
X114338000Y-113115928D01*
X112738000Y-113115928D01*
X112613518Y-113128188D01*
X112493820Y-113164498D01*
X112383506Y-113223463D01*
X112286815Y-113302815D01*
X112207463Y-113399506D01*
X112148498Y-113509820D01*
X112112188Y-113629518D01*
X112099928Y-113754000D01*
X106715396Y-113754000D01*
X106778637Y-113690759D01*
X106935680Y-113455727D01*
X107043853Y-113194574D01*
X107099000Y-112917335D01*
X107099000Y-112634665D01*
X107043853Y-112357426D01*
X106935680Y-112096273D01*
X106778637Y-111861241D01*
X106578759Y-111661363D01*
X106346241Y-111506000D01*
X106578759Y-111350637D01*
X106778637Y-111150759D01*
X106935680Y-110915727D01*
X107043853Y-110654574D01*
X107099000Y-110377335D01*
X107099000Y-110094665D01*
X107043853Y-109817426D01*
X106935680Y-109556273D01*
X106778637Y-109321241D01*
X106578759Y-109121363D01*
X106343727Y-108964320D01*
X106082574Y-108856147D01*
X105805335Y-108801000D01*
X105522665Y-108801000D01*
X105245426Y-108856147D01*
X104984273Y-108964320D01*
X104749241Y-109121363D01*
X104549363Y-109321241D01*
X104392320Y-109556273D01*
X104284147Y-109817426D01*
X104229000Y-110094665D01*
X104229000Y-110377335D01*
X104235983Y-110412438D01*
X99478130Y-115170292D01*
X99423853Y-114897426D01*
X99315680Y-114636273D01*
X99158637Y-114401241D01*
X98958759Y-114201363D01*
X98726241Y-114046000D01*
X98958759Y-113890637D01*
X99158637Y-113690759D01*
X99315680Y-113455727D01*
X99423853Y-113194574D01*
X99479000Y-112917335D01*
X99479000Y-112634665D01*
X99423853Y-112357426D01*
X99315680Y-112096273D01*
X99158637Y-111861241D01*
X98960039Y-111662643D01*
X98968482Y-111661812D01*
X99088180Y-111625502D01*
X99198494Y-111566537D01*
X99295185Y-111487185D01*
X99374537Y-111390494D01*
X99433502Y-111280180D01*
X99469812Y-111160482D01*
X99482072Y-111036000D01*
X99479000Y-110521750D01*
X99320250Y-110363000D01*
X98171000Y-110363000D01*
X98171000Y-110383000D01*
X97917000Y-110383000D01*
X97917000Y-110363000D01*
X96767750Y-110363000D01*
X96609000Y-110521750D01*
X96605928Y-111036000D01*
X95821513Y-111036000D01*
X95847013Y-111018962D01*
X96032962Y-110833013D01*
X96179061Y-110614359D01*
X96279696Y-110371405D01*
X96331000Y-110113486D01*
X96331000Y-109850514D01*
X96279696Y-109592595D01*
X96214833Y-109436000D01*
X96605928Y-109436000D01*
X96609000Y-109950250D01*
X96767750Y-110109000D01*
X97917000Y-110109000D01*
X97917000Y-108959750D01*
X98171000Y-108959750D01*
X98171000Y-110109000D01*
X99320250Y-110109000D01*
X99479000Y-109950250D01*
X99482072Y-109436000D01*
X99469812Y-109311518D01*
X99433502Y-109191820D01*
X99374537Y-109081506D01*
X99295185Y-108984815D01*
X99198494Y-108905463D01*
X99088180Y-108846498D01*
X98968482Y-108810188D01*
X98844000Y-108797928D01*
X98329750Y-108801000D01*
X98171000Y-108959750D01*
X97917000Y-108959750D01*
X97758250Y-108801000D01*
X97244000Y-108797928D01*
X97119518Y-108810188D01*
X96999820Y-108846498D01*
X96889506Y-108905463D01*
X96792815Y-108984815D01*
X96713463Y-109081506D01*
X96654498Y-109191820D01*
X96618188Y-109311518D01*
X96605928Y-109436000D01*
X96214833Y-109436000D01*
X96179061Y-109349641D01*
X96032962Y-109130987D01*
X95847013Y-108945038D01*
X95628359Y-108798939D01*
X95385405Y-108698304D01*
X95127486Y-108647000D01*
X94864514Y-108647000D01*
X94606595Y-108698304D01*
X94363641Y-108798939D01*
X94144987Y-108945038D01*
X93959038Y-109130987D01*
X93812939Y-109349641D01*
X93712304Y-109592595D01*
X93661000Y-109850514D01*
X88706557Y-109850514D01*
X88675125Y-109647656D01*
X88584935Y-109400634D01*
X88531037Y-109299797D01*
X88297269Y-109240336D01*
X87555605Y-109982000D01*
X87196395Y-109982000D01*
X86454731Y-109240336D01*
X86220963Y-109299797D01*
X86110066Y-109538242D01*
X86047817Y-109793740D01*
X86036610Y-110056473D01*
X84306438Y-110056473D01*
X84359185Y-110013185D01*
X84438537Y-109916494D01*
X84497502Y-109806180D01*
X84533812Y-109686482D01*
X84546072Y-109562000D01*
X84546072Y-109060731D01*
X86634336Y-109060731D01*
X87376000Y-109802395D01*
X88117664Y-109060731D01*
X88058203Y-108826963D01*
X87819758Y-108716066D01*
X87564260Y-108653817D01*
X87301527Y-108642610D01*
X87041656Y-108682875D01*
X86794634Y-108773065D01*
X86693797Y-108826963D01*
X86634336Y-109060731D01*
X84546072Y-109060731D01*
X84546072Y-108316665D01*
X110071000Y-108316665D01*
X110071000Y-108599335D01*
X110126147Y-108876574D01*
X110234320Y-109137727D01*
X110391363Y-109372759D01*
X110591241Y-109572637D01*
X110826273Y-109729680D01*
X111087426Y-109837853D01*
X111364665Y-109893000D01*
X111647335Y-109893000D01*
X111924574Y-109837853D01*
X112185727Y-109729680D01*
X112420759Y-109572637D01*
X112620637Y-109372759D01*
X112777680Y-109137727D01*
X112885853Y-108876574D01*
X112941000Y-108599335D01*
X112941000Y-108316665D01*
X112885853Y-108039426D01*
X112777680Y-107778273D01*
X112697317Y-107658000D01*
X117687928Y-107658000D01*
X117687928Y-109258000D01*
X117700188Y-109382482D01*
X117736498Y-109502180D01*
X117795463Y-109612494D01*
X117874815Y-109709185D01*
X117971506Y-109788537D01*
X118081820Y-109847502D01*
X118201518Y-109883812D01*
X118326000Y-109896072D01*
X119926000Y-109896072D01*
X120050482Y-109883812D01*
X120170180Y-109847502D01*
X120280494Y-109788537D01*
X120377185Y-109709185D01*
X120456537Y-109612494D01*
X120515502Y-109502180D01*
X120551812Y-109382482D01*
X120564072Y-109258000D01*
X120564072Y-107658000D01*
X120559148Y-107608000D01*
X123987928Y-107608000D01*
X123987928Y-109308000D01*
X124000188Y-109432482D01*
X124036498Y-109552180D01*
X124095463Y-109662494D01*
X124174815Y-109759185D01*
X124271506Y-109838537D01*
X124381820Y-109897502D01*
X124501518Y-109933812D01*
X124626000Y-109946072D01*
X126326000Y-109946072D01*
X126450482Y-109933812D01*
X126570180Y-109897502D01*
X126680494Y-109838537D01*
X126777185Y-109759185D01*
X126856537Y-109662494D01*
X126915502Y-109552180D01*
X126951812Y-109432482D01*
X126964072Y-109308000D01*
X126964072Y-107608000D01*
X126951812Y-107483518D01*
X126915502Y-107363820D01*
X126856537Y-107253506D01*
X126777185Y-107156815D01*
X126680494Y-107077463D01*
X126570180Y-107018498D01*
X126450482Y-106982188D01*
X126326000Y-106969928D01*
X124626000Y-106969928D01*
X124501518Y-106982188D01*
X124381820Y-107018498D01*
X124271506Y-107077463D01*
X124174815Y-107156815D01*
X124095463Y-107253506D01*
X124036498Y-107363820D01*
X124000188Y-107483518D01*
X123987928Y-107608000D01*
X120559148Y-107608000D01*
X120551812Y-107533518D01*
X120515502Y-107413820D01*
X120456537Y-107303506D01*
X120377185Y-107206815D01*
X120280494Y-107127463D01*
X120170180Y-107068498D01*
X120050482Y-107032188D01*
X119926000Y-107019928D01*
X118326000Y-107019928D01*
X118201518Y-107032188D01*
X118081820Y-107068498D01*
X117971506Y-107127463D01*
X117874815Y-107206815D01*
X117795463Y-107303506D01*
X117736498Y-107413820D01*
X117700188Y-107533518D01*
X117687928Y-107658000D01*
X112697317Y-107658000D01*
X112620637Y-107543241D01*
X112420759Y-107343363D01*
X112185727Y-107186320D01*
X111924574Y-107078147D01*
X111647335Y-107023000D01*
X111364665Y-107023000D01*
X111087426Y-107078147D01*
X110826273Y-107186320D01*
X110591241Y-107343363D01*
X110391363Y-107543241D01*
X110234320Y-107778273D01*
X110126147Y-108039426D01*
X110071000Y-108316665D01*
X84546072Y-108316665D01*
X84546072Y-107862000D01*
X84533812Y-107737518D01*
X84497502Y-107617820D01*
X84438537Y-107507506D01*
X84359185Y-107410815D01*
X84262494Y-107331463D01*
X84152180Y-107272498D01*
X84032482Y-107236188D01*
X83908000Y-107223928D01*
X82208000Y-107223928D01*
X82083518Y-107236188D01*
X81963820Y-107272498D01*
X81853506Y-107331463D01*
X81756815Y-107410815D01*
X81677463Y-107507506D01*
X81618498Y-107617820D01*
X81582188Y-107737518D01*
X81569928Y-107862000D01*
X80660000Y-107862000D01*
X80660000Y-105752000D01*
X87665928Y-105752000D01*
X87678188Y-105876482D01*
X87714498Y-105996180D01*
X87773463Y-106106494D01*
X87852815Y-106203185D01*
X87949506Y-106282537D01*
X88059820Y-106341502D01*
X88179518Y-106377812D01*
X88304000Y-106390072D01*
X88868250Y-106387000D01*
X89027000Y-106228250D01*
X89027000Y-105029000D01*
X89281000Y-105029000D01*
X89281000Y-106228250D01*
X89439750Y-106387000D01*
X90004000Y-106390072D01*
X90128482Y-106377812D01*
X90248180Y-106341502D01*
X90358494Y-106282537D01*
X90455185Y-106203185D01*
X90534537Y-106106494D01*
X90593502Y-105996180D01*
X90629812Y-105876482D01*
X90642072Y-105752000D01*
X90639000Y-105187750D01*
X90583952Y-105132702D01*
X98580903Y-105132702D01*
X98652486Y-105376671D01*
X98907996Y-105497571D01*
X99182184Y-105566300D01*
X99464512Y-105580217D01*
X99744130Y-105538787D01*
X100010292Y-105443603D01*
X100135514Y-105376671D01*
X100207097Y-105132702D01*
X99394000Y-104319605D01*
X98580903Y-105132702D01*
X90583952Y-105132702D01*
X90480250Y-105029000D01*
X89281000Y-105029000D01*
X89027000Y-105029000D01*
X87827750Y-105029000D01*
X87669000Y-105187750D01*
X87665928Y-105752000D01*
X80660000Y-105752000D01*
X80660000Y-104052000D01*
X87665928Y-104052000D01*
X87669000Y-104616250D01*
X87827750Y-104775000D01*
X89027000Y-104775000D01*
X89027000Y-103575750D01*
X89281000Y-103575750D01*
X89281000Y-104775000D01*
X90480250Y-104775000D01*
X90639000Y-104616250D01*
X90641208Y-104210512D01*
X97953783Y-104210512D01*
X97995213Y-104490130D01*
X98090397Y-104756292D01*
X98157329Y-104881514D01*
X98401298Y-104953097D01*
X99214395Y-104140000D01*
X99573605Y-104140000D01*
X100386702Y-104953097D01*
X100630671Y-104881514D01*
X100751571Y-104626004D01*
X100820300Y-104351816D01*
X100834217Y-104069488D01*
X100823724Y-103998665D01*
X102959000Y-103998665D01*
X102959000Y-104281335D01*
X103014147Y-104558574D01*
X103122320Y-104819727D01*
X103279363Y-105054759D01*
X103479241Y-105254637D01*
X103714273Y-105411680D01*
X103975426Y-105519853D01*
X104252665Y-105575000D01*
X104535335Y-105575000D01*
X104812574Y-105519853D01*
X105073727Y-105411680D01*
X105308759Y-105254637D01*
X105508637Y-105054759D01*
X105665680Y-104819727D01*
X105773853Y-104558574D01*
X105829000Y-104281335D01*
X105829000Y-103998665D01*
X105773853Y-103721426D01*
X105665680Y-103460273D01*
X105508637Y-103225241D01*
X105308759Y-103025363D01*
X105073727Y-102868320D01*
X104812574Y-102760147D01*
X104703820Y-102738514D01*
X109155000Y-102738514D01*
X109155000Y-103001486D01*
X109206304Y-103259405D01*
X109306939Y-103502359D01*
X109453038Y-103721013D01*
X109638987Y-103906962D01*
X109857641Y-104053061D01*
X110100595Y-104153696D01*
X110358514Y-104205000D01*
X110621486Y-104205000D01*
X110879405Y-104153696D01*
X111122359Y-104053061D01*
X111341013Y-103906962D01*
X111526962Y-103721013D01*
X111673061Y-103502359D01*
X111773696Y-103259405D01*
X111825000Y-103001486D01*
X111825000Y-102738514D01*
X116775000Y-102738514D01*
X116775000Y-103001486D01*
X116826304Y-103259405D01*
X116926939Y-103502359D01*
X117073038Y-103721013D01*
X117258987Y-103906962D01*
X117477641Y-104053061D01*
X117720595Y-104153696D01*
X117978514Y-104205000D01*
X118241486Y-104205000D01*
X118499405Y-104153696D01*
X118742359Y-104053061D01*
X118961013Y-103906962D01*
X119146962Y-103721013D01*
X119293061Y-103502359D01*
X119393696Y-103259405D01*
X119445000Y-103001486D01*
X119445000Y-102738514D01*
X119393696Y-102480595D01*
X119293061Y-102237641D01*
X119146962Y-102018987D01*
X118961013Y-101833038D01*
X118742359Y-101686939D01*
X118499405Y-101586304D01*
X118241486Y-101535000D01*
X117978514Y-101535000D01*
X117720595Y-101586304D01*
X117477641Y-101686939D01*
X117258987Y-101833038D01*
X117073038Y-102018987D01*
X116926939Y-102237641D01*
X116826304Y-102480595D01*
X116775000Y-102738514D01*
X111825000Y-102738514D01*
X111773696Y-102480595D01*
X111673061Y-102237641D01*
X111526962Y-102018987D01*
X111341013Y-101833038D01*
X111122359Y-101686939D01*
X110879405Y-101586304D01*
X110621486Y-101535000D01*
X110358514Y-101535000D01*
X110100595Y-101586304D01*
X109857641Y-101686939D01*
X109638987Y-101833038D01*
X109453038Y-102018987D01*
X109306939Y-102237641D01*
X109206304Y-102480595D01*
X109155000Y-102738514D01*
X104703820Y-102738514D01*
X104535335Y-102705000D01*
X104252665Y-102705000D01*
X103975426Y-102760147D01*
X103714273Y-102868320D01*
X103479241Y-103025363D01*
X103279363Y-103225241D01*
X103122320Y-103460273D01*
X103014147Y-103721426D01*
X102959000Y-103998665D01*
X100823724Y-103998665D01*
X100792787Y-103789870D01*
X100697603Y-103523708D01*
X100630671Y-103398486D01*
X100386702Y-103326903D01*
X99573605Y-104140000D01*
X99214395Y-104140000D01*
X98401298Y-103326903D01*
X98157329Y-103398486D01*
X98036429Y-103653996D01*
X97967700Y-103928184D01*
X97953783Y-104210512D01*
X90641208Y-104210512D01*
X90642072Y-104052000D01*
X90629812Y-103927518D01*
X90593502Y-103807820D01*
X90534537Y-103697506D01*
X90455185Y-103600815D01*
X90358494Y-103521463D01*
X90248180Y-103462498D01*
X90128482Y-103426188D01*
X90004000Y-103413928D01*
X89439750Y-103417000D01*
X89281000Y-103575750D01*
X89027000Y-103575750D01*
X88868250Y-103417000D01*
X88304000Y-103413928D01*
X88179518Y-103426188D01*
X88059820Y-103462498D01*
X87949506Y-103521463D01*
X87852815Y-103600815D01*
X87773463Y-103697506D01*
X87714498Y-103807820D01*
X87678188Y-103927518D01*
X87665928Y-104052000D01*
X80660000Y-104052000D01*
X80660000Y-100779872D01*
X82765000Y-100779872D01*
X82765000Y-101220128D01*
X82850890Y-101651925D01*
X83019369Y-102058669D01*
X83263962Y-102424729D01*
X83575271Y-102736038D01*
X83941331Y-102980631D01*
X84348075Y-103149110D01*
X84779872Y-103235000D01*
X85220128Y-103235000D01*
X85651925Y-103149110D01*
X85656299Y-103147298D01*
X98580903Y-103147298D01*
X99394000Y-103960395D01*
X100207097Y-103147298D01*
X100135514Y-102903329D01*
X99880004Y-102782429D01*
X99605816Y-102713700D01*
X99323488Y-102699783D01*
X99043870Y-102741213D01*
X98777708Y-102836397D01*
X98652486Y-102903329D01*
X98580903Y-103147298D01*
X85656299Y-103147298D01*
X86058669Y-102980631D01*
X86424729Y-102736038D01*
X86736038Y-102424729D01*
X86980631Y-102058669D01*
X87149110Y-101651925D01*
X87235000Y-101220128D01*
X87235000Y-100779872D01*
X124765000Y-100779872D01*
X124765000Y-101220128D01*
X124850890Y-101651925D01*
X125019369Y-102058669D01*
X125263962Y-102424729D01*
X125575271Y-102736038D01*
X125941331Y-102980631D01*
X126348075Y-103149110D01*
X126779872Y-103235000D01*
X127220128Y-103235000D01*
X127651925Y-103149110D01*
X128058669Y-102980631D01*
X128424729Y-102736038D01*
X128736038Y-102424729D01*
X128980631Y-102058669D01*
X129149110Y-101651925D01*
X129235000Y-101220128D01*
X129235000Y-100779872D01*
X129149110Y-100348075D01*
X128980631Y-99941331D01*
X128736038Y-99575271D01*
X128424729Y-99263962D01*
X128058669Y-99019369D01*
X127651925Y-98850890D01*
X127220128Y-98765000D01*
X126779872Y-98765000D01*
X126348075Y-98850890D01*
X125941331Y-99019369D01*
X125575271Y-99263962D01*
X125263962Y-99575271D01*
X125019369Y-99941331D01*
X124850890Y-100348075D01*
X124765000Y-100779872D01*
X87235000Y-100779872D01*
X87149110Y-100348075D01*
X86980631Y-99941331D01*
X86736038Y-99575271D01*
X86424729Y-99263962D01*
X86273466Y-99162891D01*
X99142519Y-99162891D01*
X99239843Y-99437252D01*
X99388822Y-99687355D01*
X99583731Y-99903588D01*
X99817080Y-100077641D01*
X100079901Y-100202825D01*
X100227110Y-100247476D01*
X100457000Y-100126155D01*
X100457000Y-98933000D01*
X99263186Y-98933000D01*
X99142519Y-99162891D01*
X86273466Y-99162891D01*
X86058669Y-99019369D01*
X85651925Y-98850890D01*
X85220128Y-98765000D01*
X84779872Y-98765000D01*
X84348075Y-98850890D01*
X83941331Y-99019369D01*
X83575271Y-99263962D01*
X83263962Y-99575271D01*
X83019369Y-99941331D01*
X82850890Y-100348075D01*
X82765000Y-100779872D01*
X80660000Y-100779872D01*
X80660000Y-98449109D01*
X99142519Y-98449109D01*
X99263186Y-98679000D01*
X100457000Y-98679000D01*
X100457000Y-97485845D01*
X100711000Y-97485845D01*
X100711000Y-98679000D01*
X100731000Y-98679000D01*
X100731000Y-98933000D01*
X100711000Y-98933000D01*
X100711000Y-100126155D01*
X100940890Y-100247476D01*
X101088099Y-100202825D01*
X101350920Y-100077641D01*
X101584269Y-99903588D01*
X101660034Y-99819534D01*
X101684498Y-99900180D01*
X101743463Y-100010494D01*
X101822815Y-100107185D01*
X101919506Y-100186537D01*
X102029820Y-100245502D01*
X102149518Y-100281812D01*
X102274000Y-100294072D01*
X103974000Y-100294072D01*
X104098482Y-100281812D01*
X104218180Y-100245502D01*
X104328494Y-100186537D01*
X104425185Y-100107185D01*
X104504537Y-100010494D01*
X104563502Y-99900180D01*
X104599812Y-99780482D01*
X104612072Y-99656000D01*
X104612072Y-98674514D01*
X109155000Y-98674514D01*
X109155000Y-98937486D01*
X109206304Y-99195405D01*
X109306939Y-99438359D01*
X109453038Y-99657013D01*
X109638987Y-99842962D01*
X109857641Y-99989061D01*
X110100595Y-100089696D01*
X110358514Y-100141000D01*
X110621486Y-100141000D01*
X110879405Y-100089696D01*
X111122359Y-99989061D01*
X111341013Y-99842962D01*
X111526962Y-99657013D01*
X111673061Y-99438359D01*
X111773696Y-99195405D01*
X111825000Y-98937486D01*
X111825000Y-98674514D01*
X116775000Y-98674514D01*
X116775000Y-98937486D01*
X116826304Y-99195405D01*
X116926939Y-99438359D01*
X117073038Y-99657013D01*
X117258987Y-99842962D01*
X117477641Y-99989061D01*
X117720595Y-100089696D01*
X117978514Y-100141000D01*
X118241486Y-100141000D01*
X118499405Y-100089696D01*
X118742359Y-99989061D01*
X118961013Y-99842962D01*
X119146962Y-99657013D01*
X119293061Y-99438359D01*
X119393696Y-99195405D01*
X119445000Y-98937486D01*
X119445000Y-98674514D01*
X119393696Y-98416595D01*
X119293061Y-98173641D01*
X119147639Y-97956000D01*
X120177928Y-97956000D01*
X120177928Y-99656000D01*
X120190188Y-99780482D01*
X120226498Y-99900180D01*
X120285463Y-100010494D01*
X120364815Y-100107185D01*
X120461506Y-100186537D01*
X120571820Y-100245502D01*
X120691518Y-100281812D01*
X120816000Y-100294072D01*
X122516000Y-100294072D01*
X122640482Y-100281812D01*
X122760180Y-100245502D01*
X122870494Y-100186537D01*
X122967185Y-100107185D01*
X123046537Y-100010494D01*
X123105502Y-99900180D01*
X123141812Y-99780482D01*
X123154072Y-99656000D01*
X123154072Y-97956000D01*
X123141812Y-97831518D01*
X123105502Y-97711820D01*
X123046537Y-97601506D01*
X122967185Y-97504815D01*
X122870494Y-97425463D01*
X122760180Y-97366498D01*
X122640482Y-97330188D01*
X122516000Y-97317928D01*
X120816000Y-97317928D01*
X120691518Y-97330188D01*
X120571820Y-97366498D01*
X120461506Y-97425463D01*
X120364815Y-97504815D01*
X120285463Y-97601506D01*
X120226498Y-97711820D01*
X120190188Y-97831518D01*
X120177928Y-97956000D01*
X119147639Y-97956000D01*
X119146962Y-97954987D01*
X118961013Y-97769038D01*
X118742359Y-97622939D01*
X118499405Y-97522304D01*
X118241486Y-97471000D01*
X117978514Y-97471000D01*
X117720595Y-97522304D01*
X117477641Y-97622939D01*
X117258987Y-97769038D01*
X117073038Y-97954987D01*
X116926939Y-98173641D01*
X116826304Y-98416595D01*
X116775000Y-98674514D01*
X111825000Y-98674514D01*
X111773696Y-98416595D01*
X111673061Y-98173641D01*
X111526962Y-97954987D01*
X111341013Y-97769038D01*
X111122359Y-97622939D01*
X110879405Y-97522304D01*
X110621486Y-97471000D01*
X110358514Y-97471000D01*
X110100595Y-97522304D01*
X109857641Y-97622939D01*
X109638987Y-97769038D01*
X109453038Y-97954987D01*
X109306939Y-98173641D01*
X109206304Y-98416595D01*
X109155000Y-98674514D01*
X104612072Y-98674514D01*
X104612072Y-97956000D01*
X104599812Y-97831518D01*
X104563502Y-97711820D01*
X104504537Y-97601506D01*
X104425185Y-97504815D01*
X104328494Y-97425463D01*
X104218180Y-97366498D01*
X104098482Y-97330188D01*
X103974000Y-97317928D01*
X102274000Y-97317928D01*
X102149518Y-97330188D01*
X102029820Y-97366498D01*
X101919506Y-97425463D01*
X101822815Y-97504815D01*
X101743463Y-97601506D01*
X101684498Y-97711820D01*
X101660034Y-97792466D01*
X101584269Y-97708412D01*
X101350920Y-97534359D01*
X101088099Y-97409175D01*
X100940890Y-97364524D01*
X100711000Y-97485845D01*
X100457000Y-97485845D01*
X100227110Y-97364524D01*
X100079901Y-97409175D01*
X99817080Y-97534359D01*
X99583731Y-97708412D01*
X99388822Y-97924645D01*
X99239843Y-98174748D01*
X99142519Y-98449109D01*
X80660000Y-98449109D01*
X80660000Y-96660000D01*
X131340001Y-96660000D01*
X131340000Y-120340000D01*
G37*
X131340000Y-120340000D02*
X80660000Y-120340000D01*
X80660000Y-115779872D01*
X82765000Y-115779872D01*
X82765000Y-116220128D01*
X82850890Y-116651925D01*
X83019369Y-117058669D01*
X83263962Y-117424729D01*
X83575271Y-117736038D01*
X83941331Y-117980631D01*
X84348075Y-118149110D01*
X84779872Y-118235000D01*
X85220128Y-118235000D01*
X85651925Y-118149110D01*
X86058669Y-117980631D01*
X86424729Y-117736038D01*
X86736038Y-117424729D01*
X86980631Y-117058669D01*
X87149110Y-116651925D01*
X87235000Y-116220128D01*
X87235000Y-115926816D01*
X88381000Y-115926816D01*
X88381000Y-116229184D01*
X88439989Y-116525743D01*
X88555701Y-116805095D01*
X88723688Y-117056505D01*
X88937495Y-117270312D01*
X89188905Y-117438299D01*
X89468257Y-117554011D01*
X89764816Y-117613000D01*
X90067184Y-117613000D01*
X90363743Y-117554011D01*
X90643095Y-117438299D01*
X90894505Y-117270312D01*
X91108312Y-117056505D01*
X91186000Y-116940237D01*
X91263688Y-117056505D01*
X91477495Y-117270312D01*
X91728905Y-117438299D01*
X92008257Y-117554011D01*
X92304816Y-117613000D01*
X92607184Y-117613000D01*
X92903743Y-117554011D01*
X93183095Y-117438299D01*
X93434505Y-117270312D01*
X93500944Y-117203873D01*
X93506498Y-117222180D01*
X93565463Y-117332494D01*
X93644815Y-117429185D01*
X93741506Y-117508537D01*
X93851820Y-117567502D01*
X93971518Y-117603812D01*
X94096000Y-117616072D01*
X95896000Y-117616072D01*
X96020482Y-117603812D01*
X96140180Y-117567502D01*
X96250494Y-117508537D01*
X96347185Y-117429185D01*
X96426537Y-117332494D01*
X96485502Y-117222180D01*
X96521812Y-117102482D01*
X96534072Y-116978000D01*
X96534072Y-115178000D01*
X96521812Y-115053518D01*
X96485502Y-114933820D01*
X96426537Y-114823506D01*
X96347185Y-114726815D01*
X96250494Y-114647463D01*
X96140180Y-114588498D01*
X96020482Y-114552188D01*
X95896000Y-114539928D01*
X94096000Y-114539928D01*
X93971518Y-114552188D01*
X93851820Y-114588498D01*
X93741506Y-114647463D01*
X93644815Y-114726815D01*
X93565463Y-114823506D01*
X93506498Y-114933820D01*
X93500944Y-114952127D01*
X93434505Y-114885688D01*
X93183095Y-114717701D01*
X92903743Y-114601989D01*
X92607184Y-114543000D01*
X92304816Y-114543000D01*
X92008257Y-114601989D01*
X91728905Y-114717701D01*
X91477495Y-114885688D01*
X91263688Y-115099495D01*
X91186000Y-115215763D01*
X91108312Y-115099495D01*
X90894505Y-114885688D01*
X90643095Y-114717701D01*
X90363743Y-114601989D01*
X90067184Y-114543000D01*
X89764816Y-114543000D01*
X89468257Y-114601989D01*
X89188905Y-114717701D01*
X88937495Y-114885688D01*
X88723688Y-115099495D01*
X88555701Y-115350905D01*
X88439989Y-115630257D01*
X88381000Y-115926816D01*
X87235000Y-115926816D01*
X87235000Y-115779872D01*
X87149110Y-115348075D01*
X86980631Y-114941331D01*
X86736038Y-114575271D01*
X86424729Y-114263962D01*
X86058669Y-114019369D01*
X85651925Y-113850890D01*
X85220128Y-113765000D01*
X84779872Y-113765000D01*
X84348075Y-113850890D01*
X83941331Y-114019369D01*
X83575271Y-114263962D01*
X83263962Y-114575271D01*
X83019369Y-114941331D01*
X82850890Y-115348075D01*
X82765000Y-115779872D01*
X80660000Y-115779872D01*
X80660000Y-110903269D01*
X86634336Y-110903269D01*
X86693797Y-111137037D01*
X86932242Y-111247934D01*
X87187740Y-111310183D01*
X87450473Y-111321390D01*
X87710344Y-111281125D01*
X87957366Y-111190935D01*
X88058203Y-111137037D01*
X88117664Y-110903269D01*
X87376000Y-110161605D01*
X86634336Y-110903269D01*
X80660000Y-110903269D01*
X80660000Y-107862000D01*
X81569928Y-107862000D01*
X81569928Y-109562000D01*
X81582188Y-109686482D01*
X81618498Y-109806180D01*
X81677463Y-109916494D01*
X81756815Y-110013185D01*
X81853506Y-110092537D01*
X81963820Y-110151502D01*
X82083518Y-110187812D01*
X82208000Y-110200072D01*
X83908000Y-110200072D01*
X84032482Y-110187812D01*
X84152180Y-110151502D01*
X84262494Y-110092537D01*
X84306438Y-110056473D01*
X86036610Y-110056473D01*
X86076875Y-110316344D01*
X86167065Y-110563366D01*
X86220963Y-110664203D01*
X86454731Y-110723664D01*
X87196395Y-109982000D01*
X87555605Y-109982000D01*
X88297269Y-110723664D01*
X88531037Y-110664203D01*
X88641934Y-110425758D01*
X88704183Y-110170260D01*
X88715390Y-109907527D01*
X88706557Y-109850514D01*
X93661000Y-109850514D01*
X93661000Y-110113486D01*
X93712304Y-110371405D01*
X93812939Y-110614359D01*
X93959038Y-110833013D01*
X94144987Y-111018962D01*
X94363641Y-111165061D01*
X94606595Y-111265696D01*
X94864514Y-111317000D01*
X95127486Y-111317000D01*
X95385405Y-111265696D01*
X95628359Y-111165061D01*
X95821513Y-111036000D01*
X96605928Y-111036000D01*
X96618188Y-111160482D01*
X96654498Y-111280180D01*
X96713463Y-111390494D01*
X96792815Y-111487185D01*
X96889506Y-111566537D01*
X96999820Y-111625502D01*
X97119518Y-111661812D01*
X97127961Y-111662643D01*
X96929363Y-111861241D01*
X96772320Y-112096273D01*
X96664147Y-112357426D01*
X96609000Y-112634665D01*
X96609000Y-112917335D01*
X96664147Y-113194574D01*
X96772320Y-113455727D01*
X96929363Y-113690759D01*
X97129241Y-113890637D01*
X97361759Y-114046000D01*
X97129241Y-114201363D01*
X96929363Y-114401241D01*
X96772320Y-114636273D01*
X96664147Y-114897426D01*
X96609000Y-115174665D01*
X96609000Y-115457335D01*
X96664147Y-115734574D01*
X96772320Y-115995727D01*
X96929363Y-116230759D01*
X97129241Y-116430637D01*
X97361759Y-116586000D01*
X97129241Y-116741363D01*
X96929363Y-116941241D01*
X96772320Y-117176273D01*
X96664147Y-117437426D01*
X96609000Y-117714665D01*
X96609000Y-117997335D01*
X96664147Y-118274574D01*
X96772320Y-118535727D01*
X96929363Y-118770759D01*
X97129241Y-118970637D01*
X97364273Y-119127680D01*
X97625426Y-119235853D01*
X97902665Y-119291000D01*
X98185335Y-119291000D01*
X98462574Y-119235853D01*
X98723727Y-119127680D01*
X98958759Y-118970637D01*
X99158637Y-118770759D01*
X99315680Y-118535727D01*
X99423853Y-118274574D01*
X99479000Y-117997335D01*
X99479000Y-117714665D01*
X99472017Y-117679561D01*
X104229870Y-112921709D01*
X104284147Y-113194574D01*
X104392320Y-113455727D01*
X104549363Y-113690759D01*
X104749241Y-113890637D01*
X104981759Y-114046000D01*
X104749241Y-114201363D01*
X104549363Y-114401241D01*
X104392320Y-114636273D01*
X104284147Y-114897426D01*
X104229000Y-115174665D01*
X104229000Y-115457335D01*
X104284147Y-115734574D01*
X104392320Y-115995727D01*
X104549363Y-116230759D01*
X104749241Y-116430637D01*
X104981759Y-116586000D01*
X104749241Y-116741363D01*
X104549363Y-116941241D01*
X104392320Y-117176273D01*
X104284147Y-117437426D01*
X104229000Y-117714665D01*
X104229000Y-117997335D01*
X104284147Y-118274574D01*
X104392320Y-118535727D01*
X104549363Y-118770759D01*
X104749241Y-118970637D01*
X104984273Y-119127680D01*
X105245426Y-119235853D01*
X105522665Y-119291000D01*
X105805335Y-119291000D01*
X106082574Y-119235853D01*
X106343727Y-119127680D01*
X106578759Y-118970637D01*
X106778637Y-118770759D01*
X106935680Y-118535727D01*
X107043853Y-118274574D01*
X107089180Y-118046702D01*
X112724903Y-118046702D01*
X112796486Y-118290671D01*
X113051996Y-118411571D01*
X113326184Y-118480300D01*
X113608512Y-118494217D01*
X113888130Y-118452787D01*
X114154292Y-118357603D01*
X114279514Y-118290671D01*
X114351097Y-118046702D01*
X114248395Y-117944000D01*
X119161928Y-117944000D01*
X119174188Y-118068482D01*
X119210498Y-118188180D01*
X119269463Y-118298494D01*
X119348815Y-118395185D01*
X119445506Y-118474537D01*
X119555820Y-118533502D01*
X119675518Y-118569812D01*
X119800000Y-118582072D01*
X120364250Y-118579000D01*
X120523000Y-118420250D01*
X120523000Y-117221000D01*
X120777000Y-117221000D01*
X120777000Y-118420250D01*
X120935750Y-118579000D01*
X121500000Y-118582072D01*
X121624482Y-118569812D01*
X121744180Y-118533502D01*
X121854494Y-118474537D01*
X121951185Y-118395185D01*
X122030537Y-118298494D01*
X122089502Y-118188180D01*
X122125812Y-118068482D01*
X122138072Y-117944000D01*
X122135000Y-117379750D01*
X121976250Y-117221000D01*
X120777000Y-117221000D01*
X120523000Y-117221000D01*
X119323750Y-117221000D01*
X119165000Y-117379750D01*
X119161928Y-117944000D01*
X114248395Y-117944000D01*
X113538000Y-117233605D01*
X112724903Y-118046702D01*
X107089180Y-118046702D01*
X107099000Y-117997335D01*
X107099000Y-117714665D01*
X107043853Y-117437426D01*
X106935680Y-117176273D01*
X106901095Y-117124512D01*
X112097783Y-117124512D01*
X112139213Y-117404130D01*
X112234397Y-117670292D01*
X112301329Y-117795514D01*
X112545298Y-117867097D01*
X113358395Y-117054000D01*
X113717605Y-117054000D01*
X114530702Y-117867097D01*
X114774671Y-117795514D01*
X114895571Y-117540004D01*
X114964300Y-117265816D01*
X114978217Y-116983488D01*
X114936787Y-116703870D01*
X114841603Y-116437708D01*
X114774671Y-116312486D01*
X114541258Y-116244000D01*
X119161928Y-116244000D01*
X119165000Y-116808250D01*
X119323750Y-116967000D01*
X120523000Y-116967000D01*
X120523000Y-115767750D01*
X120777000Y-115767750D01*
X120777000Y-116967000D01*
X121976250Y-116967000D01*
X122135000Y-116808250D01*
X122138072Y-116244000D01*
X122125812Y-116119518D01*
X122089502Y-115999820D01*
X122030537Y-115889506D01*
X121951185Y-115792815D01*
X121935414Y-115779872D01*
X124765000Y-115779872D01*
X124765000Y-116220128D01*
X124850890Y-116651925D01*
X125019369Y-117058669D01*
X125263962Y-117424729D01*
X125575271Y-117736038D01*
X125941331Y-117980631D01*
X126348075Y-118149110D01*
X126779872Y-118235000D01*
X127220128Y-118235000D01*
X127651925Y-118149110D01*
X128058669Y-117980631D01*
X128424729Y-117736038D01*
X128736038Y-117424729D01*
X128980631Y-117058669D01*
X129149110Y-116651925D01*
X129235000Y-116220128D01*
X129235000Y-115779872D01*
X129149110Y-115348075D01*
X128980631Y-114941331D01*
X128736038Y-114575271D01*
X128424729Y-114263962D01*
X128058669Y-114019369D01*
X127651925Y-113850890D01*
X127220128Y-113765000D01*
X126779872Y-113765000D01*
X126348075Y-113850890D01*
X125941331Y-114019369D01*
X125575271Y-114263962D01*
X125263962Y-114575271D01*
X125019369Y-114941331D01*
X124850890Y-115348075D01*
X124765000Y-115779872D01*
X121935414Y-115779872D01*
X121854494Y-115713463D01*
X121744180Y-115654498D01*
X121624482Y-115618188D01*
X121500000Y-115605928D01*
X120935750Y-115609000D01*
X120777000Y-115767750D01*
X120523000Y-115767750D01*
X120364250Y-115609000D01*
X119800000Y-115605928D01*
X119675518Y-115618188D01*
X119555820Y-115654498D01*
X119445506Y-115713463D01*
X119348815Y-115792815D01*
X119269463Y-115889506D01*
X119210498Y-115999820D01*
X119174188Y-116119518D01*
X119161928Y-116244000D01*
X114541258Y-116244000D01*
X114530702Y-116240903D01*
X113717605Y-117054000D01*
X113358395Y-117054000D01*
X112545298Y-116240903D01*
X112301329Y-116312486D01*
X112180429Y-116567996D01*
X112111700Y-116842184D01*
X112097783Y-117124512D01*
X106901095Y-117124512D01*
X106778637Y-116941241D01*
X106578759Y-116741363D01*
X106346241Y-116586000D01*
X106578759Y-116430637D01*
X106778637Y-116230759D01*
X106935680Y-115995727D01*
X107043853Y-115734574D01*
X107099000Y-115457335D01*
X107099000Y-115174665D01*
X107043853Y-114897426D01*
X106935680Y-114636273D01*
X106778637Y-114401241D01*
X106578759Y-114201363D01*
X106346241Y-114046000D01*
X106578759Y-113890637D01*
X106715396Y-113754000D01*
X112099928Y-113754000D01*
X112099928Y-115354000D01*
X112112188Y-115478482D01*
X112148498Y-115598180D01*
X112207463Y-115708494D01*
X112286815Y-115805185D01*
X112383506Y-115884537D01*
X112493820Y-115943502D01*
X112613518Y-115979812D01*
X112738000Y-115992072D01*
X112745215Y-115992072D01*
X112724903Y-116061298D01*
X113538000Y-116874395D01*
X114351097Y-116061298D01*
X114330785Y-115992072D01*
X114338000Y-115992072D01*
X114462482Y-115979812D01*
X114582180Y-115943502D01*
X114692494Y-115884537D01*
X114789185Y-115805185D01*
X114868537Y-115708494D01*
X114927502Y-115598180D01*
X114963812Y-115478482D01*
X114976072Y-115354000D01*
X114976072Y-113754000D01*
X114963812Y-113629518D01*
X114927502Y-113509820D01*
X114868537Y-113399506D01*
X114789185Y-113302815D01*
X114692494Y-113223463D01*
X114582180Y-113164498D01*
X114462482Y-113128188D01*
X114338000Y-113115928D01*
X112738000Y-113115928D01*
X112613518Y-113128188D01*
X112493820Y-113164498D01*
X112383506Y-113223463D01*
X112286815Y-113302815D01*
X112207463Y-113399506D01*
X112148498Y-113509820D01*
X112112188Y-113629518D01*
X112099928Y-113754000D01*
X106715396Y-113754000D01*
X106778637Y-113690759D01*
X106935680Y-113455727D01*
X107043853Y-113194574D01*
X107099000Y-112917335D01*
X107099000Y-112634665D01*
X107043853Y-112357426D01*
X106935680Y-112096273D01*
X106778637Y-111861241D01*
X106578759Y-111661363D01*
X106346241Y-111506000D01*
X106578759Y-111350637D01*
X106778637Y-111150759D01*
X106935680Y-110915727D01*
X107043853Y-110654574D01*
X107099000Y-110377335D01*
X107099000Y-110094665D01*
X107043853Y-109817426D01*
X106935680Y-109556273D01*
X106778637Y-109321241D01*
X106578759Y-109121363D01*
X106343727Y-108964320D01*
X106082574Y-108856147D01*
X105805335Y-108801000D01*
X105522665Y-108801000D01*
X105245426Y-108856147D01*
X104984273Y-108964320D01*
X104749241Y-109121363D01*
X104549363Y-109321241D01*
X104392320Y-109556273D01*
X104284147Y-109817426D01*
X104229000Y-110094665D01*
X104229000Y-110377335D01*
X104235983Y-110412438D01*
X99478130Y-115170292D01*
X99423853Y-114897426D01*
X99315680Y-114636273D01*
X99158637Y-114401241D01*
X98958759Y-114201363D01*
X98726241Y-114046000D01*
X98958759Y-113890637D01*
X99158637Y-113690759D01*
X99315680Y-113455727D01*
X99423853Y-113194574D01*
X99479000Y-112917335D01*
X99479000Y-112634665D01*
X99423853Y-112357426D01*
X99315680Y-112096273D01*
X99158637Y-111861241D01*
X98960039Y-111662643D01*
X98968482Y-111661812D01*
X99088180Y-111625502D01*
X99198494Y-111566537D01*
X99295185Y-111487185D01*
X99374537Y-111390494D01*
X99433502Y-111280180D01*
X99469812Y-111160482D01*
X99482072Y-111036000D01*
X99479000Y-110521750D01*
X99320250Y-110363000D01*
X98171000Y-110363000D01*
X98171000Y-110383000D01*
X97917000Y-110383000D01*
X97917000Y-110363000D01*
X96767750Y-110363000D01*
X96609000Y-110521750D01*
X96605928Y-111036000D01*
X95821513Y-111036000D01*
X95847013Y-111018962D01*
X96032962Y-110833013D01*
X96179061Y-110614359D01*
X96279696Y-110371405D01*
X96331000Y-110113486D01*
X96331000Y-109850514D01*
X96279696Y-109592595D01*
X96214833Y-109436000D01*
X96605928Y-109436000D01*
X96609000Y-109950250D01*
X96767750Y-110109000D01*
X97917000Y-110109000D01*
X97917000Y-108959750D01*
X98171000Y-108959750D01*
X98171000Y-110109000D01*
X99320250Y-110109000D01*
X99479000Y-109950250D01*
X99482072Y-109436000D01*
X99469812Y-109311518D01*
X99433502Y-109191820D01*
X99374537Y-109081506D01*
X99295185Y-108984815D01*
X99198494Y-108905463D01*
X99088180Y-108846498D01*
X98968482Y-108810188D01*
X98844000Y-108797928D01*
X98329750Y-108801000D01*
X98171000Y-108959750D01*
X97917000Y-108959750D01*
X97758250Y-108801000D01*
X97244000Y-108797928D01*
X97119518Y-108810188D01*
X96999820Y-108846498D01*
X96889506Y-108905463D01*
X96792815Y-108984815D01*
X96713463Y-109081506D01*
X96654498Y-109191820D01*
X96618188Y-109311518D01*
X96605928Y-109436000D01*
X96214833Y-109436000D01*
X96179061Y-109349641D01*
X96032962Y-109130987D01*
X95847013Y-108945038D01*
X95628359Y-108798939D01*
X95385405Y-108698304D01*
X95127486Y-108647000D01*
X94864514Y-108647000D01*
X94606595Y-108698304D01*
X94363641Y-108798939D01*
X94144987Y-108945038D01*
X93959038Y-109130987D01*
X93812939Y-109349641D01*
X93712304Y-109592595D01*
X93661000Y-109850514D01*
X88706557Y-109850514D01*
X88675125Y-109647656D01*
X88584935Y-109400634D01*
X88531037Y-109299797D01*
X88297269Y-109240336D01*
X87555605Y-109982000D01*
X87196395Y-109982000D01*
X86454731Y-109240336D01*
X86220963Y-109299797D01*
X86110066Y-109538242D01*
X86047817Y-109793740D01*
X86036610Y-110056473D01*
X84306438Y-110056473D01*
X84359185Y-110013185D01*
X84438537Y-109916494D01*
X84497502Y-109806180D01*
X84533812Y-109686482D01*
X84546072Y-109562000D01*
X84546072Y-109060731D01*
X86634336Y-109060731D01*
X87376000Y-109802395D01*
X88117664Y-109060731D01*
X88058203Y-108826963D01*
X87819758Y-108716066D01*
X87564260Y-108653817D01*
X87301527Y-108642610D01*
X87041656Y-108682875D01*
X86794634Y-108773065D01*
X86693797Y-108826963D01*
X86634336Y-109060731D01*
X84546072Y-109060731D01*
X84546072Y-108316665D01*
X110071000Y-108316665D01*
X110071000Y-108599335D01*
X110126147Y-108876574D01*
X110234320Y-109137727D01*
X110391363Y-109372759D01*
X110591241Y-109572637D01*
X110826273Y-109729680D01*
X111087426Y-109837853D01*
X111364665Y-109893000D01*
X111647335Y-109893000D01*
X111924574Y-109837853D01*
X112185727Y-109729680D01*
X112420759Y-109572637D01*
X112620637Y-109372759D01*
X112777680Y-109137727D01*
X112885853Y-108876574D01*
X112941000Y-108599335D01*
X112941000Y-108316665D01*
X112885853Y-108039426D01*
X112777680Y-107778273D01*
X112697317Y-107658000D01*
X117687928Y-107658000D01*
X117687928Y-109258000D01*
X117700188Y-109382482D01*
X117736498Y-109502180D01*
X117795463Y-109612494D01*
X117874815Y-109709185D01*
X117971506Y-109788537D01*
X118081820Y-109847502D01*
X118201518Y-109883812D01*
X118326000Y-109896072D01*
X119926000Y-109896072D01*
X120050482Y-109883812D01*
X120170180Y-109847502D01*
X120280494Y-109788537D01*
X120377185Y-109709185D01*
X120456537Y-109612494D01*
X120515502Y-109502180D01*
X120551812Y-109382482D01*
X120564072Y-109258000D01*
X120564072Y-107658000D01*
X120559148Y-107608000D01*
X123987928Y-107608000D01*
X123987928Y-109308000D01*
X124000188Y-109432482D01*
X124036498Y-109552180D01*
X124095463Y-109662494D01*
X124174815Y-109759185D01*
X124271506Y-109838537D01*
X124381820Y-109897502D01*
X124501518Y-109933812D01*
X124626000Y-109946072D01*
X126326000Y-109946072D01*
X126450482Y-109933812D01*
X126570180Y-109897502D01*
X126680494Y-109838537D01*
X126777185Y-109759185D01*
X126856537Y-109662494D01*
X126915502Y-109552180D01*
X126951812Y-109432482D01*
X126964072Y-109308000D01*
X126964072Y-107608000D01*
X126951812Y-107483518D01*
X126915502Y-107363820D01*
X126856537Y-107253506D01*
X126777185Y-107156815D01*
X126680494Y-107077463D01*
X126570180Y-107018498D01*
X126450482Y-106982188D01*
X126326000Y-106969928D01*
X124626000Y-106969928D01*
X124501518Y-106982188D01*
X124381820Y-107018498D01*
X124271506Y-107077463D01*
X124174815Y-107156815D01*
X124095463Y-107253506D01*
X124036498Y-107363820D01*
X124000188Y-107483518D01*
X123987928Y-107608000D01*
X120559148Y-107608000D01*
X120551812Y-107533518D01*
X120515502Y-107413820D01*
X120456537Y-107303506D01*
X120377185Y-107206815D01*
X120280494Y-107127463D01*
X120170180Y-107068498D01*
X120050482Y-107032188D01*
X119926000Y-107019928D01*
X118326000Y-107019928D01*
X118201518Y-107032188D01*
X118081820Y-107068498D01*
X117971506Y-107127463D01*
X117874815Y-107206815D01*
X117795463Y-107303506D01*
X117736498Y-107413820D01*
X117700188Y-107533518D01*
X117687928Y-107658000D01*
X112697317Y-107658000D01*
X112620637Y-107543241D01*
X112420759Y-107343363D01*
X112185727Y-107186320D01*
X111924574Y-107078147D01*
X111647335Y-107023000D01*
X111364665Y-107023000D01*
X111087426Y-107078147D01*
X110826273Y-107186320D01*
X110591241Y-107343363D01*
X110391363Y-107543241D01*
X110234320Y-107778273D01*
X110126147Y-108039426D01*
X110071000Y-108316665D01*
X84546072Y-108316665D01*
X84546072Y-107862000D01*
X84533812Y-107737518D01*
X84497502Y-107617820D01*
X84438537Y-107507506D01*
X84359185Y-107410815D01*
X84262494Y-107331463D01*
X84152180Y-107272498D01*
X84032482Y-107236188D01*
X83908000Y-107223928D01*
X82208000Y-107223928D01*
X82083518Y-107236188D01*
X81963820Y-107272498D01*
X81853506Y-107331463D01*
X81756815Y-107410815D01*
X81677463Y-107507506D01*
X81618498Y-107617820D01*
X81582188Y-107737518D01*
X81569928Y-107862000D01*
X80660000Y-107862000D01*
X80660000Y-105752000D01*
X87665928Y-105752000D01*
X87678188Y-105876482D01*
X87714498Y-105996180D01*
X87773463Y-106106494D01*
X87852815Y-106203185D01*
X87949506Y-106282537D01*
X88059820Y-106341502D01*
X88179518Y-106377812D01*
X88304000Y-106390072D01*
X88868250Y-106387000D01*
X89027000Y-106228250D01*
X89027000Y-105029000D01*
X89281000Y-105029000D01*
X89281000Y-106228250D01*
X89439750Y-106387000D01*
X90004000Y-106390072D01*
X90128482Y-106377812D01*
X90248180Y-106341502D01*
X90358494Y-106282537D01*
X90455185Y-106203185D01*
X90534537Y-106106494D01*
X90593502Y-105996180D01*
X90629812Y-105876482D01*
X90642072Y-105752000D01*
X90639000Y-105187750D01*
X90583952Y-105132702D01*
X98580903Y-105132702D01*
X98652486Y-105376671D01*
X98907996Y-105497571D01*
X99182184Y-105566300D01*
X99464512Y-105580217D01*
X99744130Y-105538787D01*
X100010292Y-105443603D01*
X100135514Y-105376671D01*
X100207097Y-105132702D01*
X99394000Y-104319605D01*
X98580903Y-105132702D01*
X90583952Y-105132702D01*
X90480250Y-105029000D01*
X89281000Y-105029000D01*
X89027000Y-105029000D01*
X87827750Y-105029000D01*
X87669000Y-105187750D01*
X87665928Y-105752000D01*
X80660000Y-105752000D01*
X80660000Y-104052000D01*
X87665928Y-104052000D01*
X87669000Y-104616250D01*
X87827750Y-104775000D01*
X89027000Y-104775000D01*
X89027000Y-103575750D01*
X89281000Y-103575750D01*
X89281000Y-104775000D01*
X90480250Y-104775000D01*
X90639000Y-104616250D01*
X90641208Y-104210512D01*
X97953783Y-104210512D01*
X97995213Y-104490130D01*
X98090397Y-104756292D01*
X98157329Y-104881514D01*
X98401298Y-104953097D01*
X99214395Y-104140000D01*
X99573605Y-104140000D01*
X100386702Y-104953097D01*
X100630671Y-104881514D01*
X100751571Y-104626004D01*
X100820300Y-104351816D01*
X100834217Y-104069488D01*
X100823724Y-103998665D01*
X102959000Y-103998665D01*
X102959000Y-104281335D01*
X103014147Y-104558574D01*
X103122320Y-104819727D01*
X103279363Y-105054759D01*
X103479241Y-105254637D01*
X103714273Y-105411680D01*
X103975426Y-105519853D01*
X104252665Y-105575000D01*
X104535335Y-105575000D01*
X104812574Y-105519853D01*
X105073727Y-105411680D01*
X105308759Y-105254637D01*
X105508637Y-105054759D01*
X105665680Y-104819727D01*
X105773853Y-104558574D01*
X105829000Y-104281335D01*
X105829000Y-103998665D01*
X105773853Y-103721426D01*
X105665680Y-103460273D01*
X105508637Y-103225241D01*
X105308759Y-103025363D01*
X105073727Y-102868320D01*
X104812574Y-102760147D01*
X104703820Y-102738514D01*
X109155000Y-102738514D01*
X109155000Y-103001486D01*
X109206304Y-103259405D01*
X109306939Y-103502359D01*
X109453038Y-103721013D01*
X109638987Y-103906962D01*
X109857641Y-104053061D01*
X110100595Y-104153696D01*
X110358514Y-104205000D01*
X110621486Y-104205000D01*
X110879405Y-104153696D01*
X111122359Y-104053061D01*
X111341013Y-103906962D01*
X111526962Y-103721013D01*
X111673061Y-103502359D01*
X111773696Y-103259405D01*
X111825000Y-103001486D01*
X111825000Y-102738514D01*
X116775000Y-102738514D01*
X116775000Y-103001486D01*
X116826304Y-103259405D01*
X116926939Y-103502359D01*
X117073038Y-103721013D01*
X117258987Y-103906962D01*
X117477641Y-104053061D01*
X117720595Y-104153696D01*
X117978514Y-104205000D01*
X118241486Y-104205000D01*
X118499405Y-104153696D01*
X118742359Y-104053061D01*
X118961013Y-103906962D01*
X119146962Y-103721013D01*
X119293061Y-103502359D01*
X119393696Y-103259405D01*
X119445000Y-103001486D01*
X119445000Y-102738514D01*
X119393696Y-102480595D01*
X119293061Y-102237641D01*
X119146962Y-102018987D01*
X118961013Y-101833038D01*
X118742359Y-101686939D01*
X118499405Y-101586304D01*
X118241486Y-101535000D01*
X117978514Y-101535000D01*
X117720595Y-101586304D01*
X117477641Y-101686939D01*
X117258987Y-101833038D01*
X117073038Y-102018987D01*
X116926939Y-102237641D01*
X116826304Y-102480595D01*
X116775000Y-102738514D01*
X111825000Y-102738514D01*
X111773696Y-102480595D01*
X111673061Y-102237641D01*
X111526962Y-102018987D01*
X111341013Y-101833038D01*
X111122359Y-101686939D01*
X110879405Y-101586304D01*
X110621486Y-101535000D01*
X110358514Y-101535000D01*
X110100595Y-101586304D01*
X109857641Y-101686939D01*
X109638987Y-101833038D01*
X109453038Y-102018987D01*
X109306939Y-102237641D01*
X109206304Y-102480595D01*
X109155000Y-102738514D01*
X104703820Y-102738514D01*
X104535335Y-102705000D01*
X104252665Y-102705000D01*
X103975426Y-102760147D01*
X103714273Y-102868320D01*
X103479241Y-103025363D01*
X103279363Y-103225241D01*
X103122320Y-103460273D01*
X103014147Y-103721426D01*
X102959000Y-103998665D01*
X100823724Y-103998665D01*
X100792787Y-103789870D01*
X100697603Y-103523708D01*
X100630671Y-103398486D01*
X100386702Y-103326903D01*
X99573605Y-104140000D01*
X99214395Y-104140000D01*
X98401298Y-103326903D01*
X98157329Y-103398486D01*
X98036429Y-103653996D01*
X97967700Y-103928184D01*
X97953783Y-104210512D01*
X90641208Y-104210512D01*
X90642072Y-104052000D01*
X90629812Y-103927518D01*
X90593502Y-103807820D01*
X90534537Y-103697506D01*
X90455185Y-103600815D01*
X90358494Y-103521463D01*
X90248180Y-103462498D01*
X90128482Y-103426188D01*
X90004000Y-103413928D01*
X89439750Y-103417000D01*
X89281000Y-103575750D01*
X89027000Y-103575750D01*
X88868250Y-103417000D01*
X88304000Y-103413928D01*
X88179518Y-103426188D01*
X88059820Y-103462498D01*
X87949506Y-103521463D01*
X87852815Y-103600815D01*
X87773463Y-103697506D01*
X87714498Y-103807820D01*
X87678188Y-103927518D01*
X87665928Y-104052000D01*
X80660000Y-104052000D01*
X80660000Y-100779872D01*
X82765000Y-100779872D01*
X82765000Y-101220128D01*
X82850890Y-101651925D01*
X83019369Y-102058669D01*
X83263962Y-102424729D01*
X83575271Y-102736038D01*
X83941331Y-102980631D01*
X84348075Y-103149110D01*
X84779872Y-103235000D01*
X85220128Y-103235000D01*
X85651925Y-103149110D01*
X85656299Y-103147298D01*
X98580903Y-103147298D01*
X99394000Y-103960395D01*
X100207097Y-103147298D01*
X100135514Y-102903329D01*
X99880004Y-102782429D01*
X99605816Y-102713700D01*
X99323488Y-102699783D01*
X99043870Y-102741213D01*
X98777708Y-102836397D01*
X98652486Y-102903329D01*
X98580903Y-103147298D01*
X85656299Y-103147298D01*
X86058669Y-102980631D01*
X86424729Y-102736038D01*
X86736038Y-102424729D01*
X86980631Y-102058669D01*
X87149110Y-101651925D01*
X87235000Y-101220128D01*
X87235000Y-100779872D01*
X124765000Y-100779872D01*
X124765000Y-101220128D01*
X124850890Y-101651925D01*
X125019369Y-102058669D01*
X125263962Y-102424729D01*
X125575271Y-102736038D01*
X125941331Y-102980631D01*
X126348075Y-103149110D01*
X126779872Y-103235000D01*
X127220128Y-103235000D01*
X127651925Y-103149110D01*
X128058669Y-102980631D01*
X128424729Y-102736038D01*
X128736038Y-102424729D01*
X128980631Y-102058669D01*
X129149110Y-101651925D01*
X129235000Y-101220128D01*
X129235000Y-100779872D01*
X129149110Y-100348075D01*
X128980631Y-99941331D01*
X128736038Y-99575271D01*
X128424729Y-99263962D01*
X128058669Y-99019369D01*
X127651925Y-98850890D01*
X127220128Y-98765000D01*
X126779872Y-98765000D01*
X126348075Y-98850890D01*
X125941331Y-99019369D01*
X125575271Y-99263962D01*
X125263962Y-99575271D01*
X125019369Y-99941331D01*
X124850890Y-100348075D01*
X124765000Y-100779872D01*
X87235000Y-100779872D01*
X87149110Y-100348075D01*
X86980631Y-99941331D01*
X86736038Y-99575271D01*
X86424729Y-99263962D01*
X86273466Y-99162891D01*
X99142519Y-99162891D01*
X99239843Y-99437252D01*
X99388822Y-99687355D01*
X99583731Y-99903588D01*
X99817080Y-100077641D01*
X100079901Y-100202825D01*
X100227110Y-100247476D01*
X100457000Y-100126155D01*
X100457000Y-98933000D01*
X99263186Y-98933000D01*
X99142519Y-99162891D01*
X86273466Y-99162891D01*
X86058669Y-99019369D01*
X85651925Y-98850890D01*
X85220128Y-98765000D01*
X84779872Y-98765000D01*
X84348075Y-98850890D01*
X83941331Y-99019369D01*
X83575271Y-99263962D01*
X83263962Y-99575271D01*
X83019369Y-99941331D01*
X82850890Y-100348075D01*
X82765000Y-100779872D01*
X80660000Y-100779872D01*
X80660000Y-98449109D01*
X99142519Y-98449109D01*
X99263186Y-98679000D01*
X100457000Y-98679000D01*
X100457000Y-97485845D01*
X100711000Y-97485845D01*
X100711000Y-98679000D01*
X100731000Y-98679000D01*
X100731000Y-98933000D01*
X100711000Y-98933000D01*
X100711000Y-100126155D01*
X100940890Y-100247476D01*
X101088099Y-100202825D01*
X101350920Y-100077641D01*
X101584269Y-99903588D01*
X101660034Y-99819534D01*
X101684498Y-99900180D01*
X101743463Y-100010494D01*
X101822815Y-100107185D01*
X101919506Y-100186537D01*
X102029820Y-100245502D01*
X102149518Y-100281812D01*
X102274000Y-100294072D01*
X103974000Y-100294072D01*
X104098482Y-100281812D01*
X104218180Y-100245502D01*
X104328494Y-100186537D01*
X104425185Y-100107185D01*
X104504537Y-100010494D01*
X104563502Y-99900180D01*
X104599812Y-99780482D01*
X104612072Y-99656000D01*
X104612072Y-98674514D01*
X109155000Y-98674514D01*
X109155000Y-98937486D01*
X109206304Y-99195405D01*
X109306939Y-99438359D01*
X109453038Y-99657013D01*
X109638987Y-99842962D01*
X109857641Y-99989061D01*
X110100595Y-100089696D01*
X110358514Y-100141000D01*
X110621486Y-100141000D01*
X110879405Y-100089696D01*
X111122359Y-99989061D01*
X111341013Y-99842962D01*
X111526962Y-99657013D01*
X111673061Y-99438359D01*
X111773696Y-99195405D01*
X111825000Y-98937486D01*
X111825000Y-98674514D01*
X116775000Y-98674514D01*
X116775000Y-98937486D01*
X116826304Y-99195405D01*
X116926939Y-99438359D01*
X117073038Y-99657013D01*
X117258987Y-99842962D01*
X117477641Y-99989061D01*
X117720595Y-100089696D01*
X117978514Y-100141000D01*
X118241486Y-100141000D01*
X118499405Y-100089696D01*
X118742359Y-99989061D01*
X118961013Y-99842962D01*
X119146962Y-99657013D01*
X119293061Y-99438359D01*
X119393696Y-99195405D01*
X119445000Y-98937486D01*
X119445000Y-98674514D01*
X119393696Y-98416595D01*
X119293061Y-98173641D01*
X119147639Y-97956000D01*
X120177928Y-97956000D01*
X120177928Y-99656000D01*
X120190188Y-99780482D01*
X120226498Y-99900180D01*
X120285463Y-100010494D01*
X120364815Y-100107185D01*
X120461506Y-100186537D01*
X120571820Y-100245502D01*
X120691518Y-100281812D01*
X120816000Y-100294072D01*
X122516000Y-100294072D01*
X122640482Y-100281812D01*
X122760180Y-100245502D01*
X122870494Y-100186537D01*
X122967185Y-100107185D01*
X123046537Y-100010494D01*
X123105502Y-99900180D01*
X123141812Y-99780482D01*
X123154072Y-99656000D01*
X123154072Y-97956000D01*
X123141812Y-97831518D01*
X123105502Y-97711820D01*
X123046537Y-97601506D01*
X122967185Y-97504815D01*
X122870494Y-97425463D01*
X122760180Y-97366498D01*
X122640482Y-97330188D01*
X122516000Y-97317928D01*
X120816000Y-97317928D01*
X120691518Y-97330188D01*
X120571820Y-97366498D01*
X120461506Y-97425463D01*
X120364815Y-97504815D01*
X120285463Y-97601506D01*
X120226498Y-97711820D01*
X120190188Y-97831518D01*
X120177928Y-97956000D01*
X119147639Y-97956000D01*
X119146962Y-97954987D01*
X118961013Y-97769038D01*
X118742359Y-97622939D01*
X118499405Y-97522304D01*
X118241486Y-97471000D01*
X117978514Y-97471000D01*
X117720595Y-97522304D01*
X117477641Y-97622939D01*
X117258987Y-97769038D01*
X117073038Y-97954987D01*
X116926939Y-98173641D01*
X116826304Y-98416595D01*
X116775000Y-98674514D01*
X111825000Y-98674514D01*
X111773696Y-98416595D01*
X111673061Y-98173641D01*
X111526962Y-97954987D01*
X111341013Y-97769038D01*
X111122359Y-97622939D01*
X110879405Y-97522304D01*
X110621486Y-97471000D01*
X110358514Y-97471000D01*
X110100595Y-97522304D01*
X109857641Y-97622939D01*
X109638987Y-97769038D01*
X109453038Y-97954987D01*
X109306939Y-98173641D01*
X109206304Y-98416595D01*
X109155000Y-98674514D01*
X104612072Y-98674514D01*
X104612072Y-97956000D01*
X104599812Y-97831518D01*
X104563502Y-97711820D01*
X104504537Y-97601506D01*
X104425185Y-97504815D01*
X104328494Y-97425463D01*
X104218180Y-97366498D01*
X104098482Y-97330188D01*
X103974000Y-97317928D01*
X102274000Y-97317928D01*
X102149518Y-97330188D01*
X102029820Y-97366498D01*
X101919506Y-97425463D01*
X101822815Y-97504815D01*
X101743463Y-97601506D01*
X101684498Y-97711820D01*
X101660034Y-97792466D01*
X101584269Y-97708412D01*
X101350920Y-97534359D01*
X101088099Y-97409175D01*
X100940890Y-97364524D01*
X100711000Y-97485845D01*
X100457000Y-97485845D01*
X100227110Y-97364524D01*
X100079901Y-97409175D01*
X99817080Y-97534359D01*
X99583731Y-97708412D01*
X99388822Y-97924645D01*
X99239843Y-98174748D01*
X99142519Y-98449109D01*
X80660000Y-98449109D01*
X80660000Y-96660000D01*
X131340001Y-96660000D01*
X131340000Y-120340000D01*
M02*
