%TF.GenerationSoftware,KiCad,Pcbnew,(5.1.5)-3*%
%TF.CreationDate,2020-04-15T21:14:40+02:00*%
%TF.ProjectId,NE555,4e453535-352e-46b6-9963-61645f706362,v1.1*%
%TF.SameCoordinates,Original*%
%TF.FileFunction,Soldermask,Bot*%
%TF.FilePolarity,Negative*%
%FSLAX46Y46*%
G04 Gerber Fmt 4.6, Leading zero omitted, Abs format (unit mm)*
G04 Created by KiCad (PCBNEW (5.1.5)-3) date 2020-04-15 21:14:40*
%MOMM*%
%LPD*%
G04 APERTURE LIST*
%ADD10C,0.100000*%
G04 APERTURE END LIST*
D10*
G36*
X105912228Y-117037703D02*
G01*
X106067100Y-117101853D01*
X106206481Y-117194985D01*
X106325015Y-117313519D01*
X106418147Y-117452900D01*
X106482297Y-117607772D01*
X106515000Y-117772184D01*
X106515000Y-117939816D01*
X106482297Y-118104228D01*
X106418147Y-118259100D01*
X106325015Y-118398481D01*
X106206481Y-118517015D01*
X106067100Y-118610147D01*
X105912228Y-118674297D01*
X105747816Y-118707000D01*
X105580184Y-118707000D01*
X105415772Y-118674297D01*
X105260900Y-118610147D01*
X105121519Y-118517015D01*
X105002985Y-118398481D01*
X104909853Y-118259100D01*
X104845703Y-118104228D01*
X104813000Y-117939816D01*
X104813000Y-117772184D01*
X104845703Y-117607772D01*
X104909853Y-117452900D01*
X105002985Y-117313519D01*
X105121519Y-117194985D01*
X105260900Y-117101853D01*
X105415772Y-117037703D01*
X105580184Y-117005000D01*
X105747816Y-117005000D01*
X105912228Y-117037703D01*
G37*
G36*
X98292228Y-117037703D02*
G01*
X98447100Y-117101853D01*
X98586481Y-117194985D01*
X98705015Y-117313519D01*
X98798147Y-117452900D01*
X98862297Y-117607772D01*
X98895000Y-117772184D01*
X98895000Y-117939816D01*
X98862297Y-118104228D01*
X98798147Y-118259100D01*
X98705015Y-118398481D01*
X98586481Y-118517015D01*
X98447100Y-118610147D01*
X98292228Y-118674297D01*
X98127816Y-118707000D01*
X97960184Y-118707000D01*
X97795772Y-118674297D01*
X97640900Y-118610147D01*
X97501519Y-118517015D01*
X97382985Y-118398481D01*
X97289853Y-118259100D01*
X97225703Y-118104228D01*
X97193000Y-117939816D01*
X97193000Y-117772184D01*
X97225703Y-117607772D01*
X97289853Y-117452900D01*
X97382985Y-117313519D01*
X97501519Y-117194985D01*
X97640900Y-117101853D01*
X97795772Y-117037703D01*
X97960184Y-117005000D01*
X98127816Y-117005000D01*
X98292228Y-117037703D01*
G37*
G36*
X121551000Y-117995000D02*
G01*
X119749000Y-117995000D01*
X119749000Y-116193000D01*
X121551000Y-116193000D01*
X121551000Y-117995000D01*
G37*
G36*
X113786228Y-116235703D02*
G01*
X113941100Y-116299853D01*
X114080481Y-116392985D01*
X114199015Y-116511519D01*
X114292147Y-116650900D01*
X114356297Y-116805772D01*
X114389000Y-116970184D01*
X114389000Y-117137816D01*
X114356297Y-117302228D01*
X114292147Y-117457100D01*
X114199015Y-117596481D01*
X114080481Y-117715015D01*
X113941100Y-117808147D01*
X113786228Y-117872297D01*
X113621816Y-117905000D01*
X113454184Y-117905000D01*
X113289772Y-117872297D01*
X113134900Y-117808147D01*
X112995519Y-117715015D01*
X112876985Y-117596481D01*
X112783853Y-117457100D01*
X112719703Y-117302228D01*
X112687000Y-117137816D01*
X112687000Y-116970184D01*
X112719703Y-116805772D01*
X112783853Y-116650900D01*
X112876985Y-116511519D01*
X112995519Y-116392985D01*
X113134900Y-116299853D01*
X113289772Y-116235703D01*
X113454184Y-116203000D01*
X113621816Y-116203000D01*
X113786228Y-116235703D01*
G37*
G36*
X85375256Y-114391298D02*
G01*
X85481579Y-114412447D01*
X85782042Y-114536903D01*
X86052451Y-114717585D01*
X86282415Y-114947549D01*
X86463097Y-115217958D01*
X86463098Y-115217960D01*
X86499550Y-115305963D01*
X86587553Y-115518421D01*
X86596665Y-115564229D01*
X86651000Y-115837389D01*
X86651000Y-116162611D01*
X86623701Y-116299852D01*
X86587553Y-116481579D01*
X86463097Y-116782042D01*
X86282415Y-117052451D01*
X86052451Y-117282415D01*
X85782042Y-117463097D01*
X85481579Y-117587553D01*
X85379936Y-117607771D01*
X85162611Y-117651000D01*
X84837389Y-117651000D01*
X84620064Y-117607771D01*
X84518421Y-117587553D01*
X84217958Y-117463097D01*
X83947549Y-117282415D01*
X83717585Y-117052451D01*
X83536903Y-116782042D01*
X83412447Y-116481579D01*
X83376299Y-116299852D01*
X83349000Y-116162611D01*
X83349000Y-115837389D01*
X83403335Y-115564229D01*
X83412447Y-115518421D01*
X83500450Y-115305963D01*
X83536902Y-115217960D01*
X83536903Y-115217958D01*
X83717585Y-114947549D01*
X83947549Y-114717585D01*
X84217958Y-114536903D01*
X84518421Y-114412447D01*
X84624744Y-114391298D01*
X84837389Y-114349000D01*
X85162611Y-114349000D01*
X85375256Y-114391298D01*
G37*
G36*
X127375256Y-114391298D02*
G01*
X127481579Y-114412447D01*
X127782042Y-114536903D01*
X128052451Y-114717585D01*
X128282415Y-114947549D01*
X128463097Y-115217958D01*
X128463098Y-115217960D01*
X128499550Y-115305963D01*
X128587553Y-115518421D01*
X128596665Y-115564229D01*
X128651000Y-115837389D01*
X128651000Y-116162611D01*
X128623701Y-116299852D01*
X128587553Y-116481579D01*
X128463097Y-116782042D01*
X128282415Y-117052451D01*
X128052451Y-117282415D01*
X127782042Y-117463097D01*
X127481579Y-117587553D01*
X127379936Y-117607771D01*
X127162611Y-117651000D01*
X126837389Y-117651000D01*
X126620064Y-117607771D01*
X126518421Y-117587553D01*
X126217958Y-117463097D01*
X125947549Y-117282415D01*
X125717585Y-117052451D01*
X125536903Y-116782042D01*
X125412447Y-116481579D01*
X125376299Y-116299852D01*
X125349000Y-116162611D01*
X125349000Y-115837389D01*
X125403335Y-115564229D01*
X125412447Y-115518421D01*
X125500450Y-115305963D01*
X125536902Y-115217960D01*
X125536903Y-115217958D01*
X125717585Y-114947549D01*
X125947549Y-114717585D01*
X126217958Y-114536903D01*
X126518421Y-114412447D01*
X126624744Y-114391298D01*
X126837389Y-114349000D01*
X127162611Y-114349000D01*
X127375256Y-114391298D01*
G37*
G36*
X95947000Y-117029000D02*
G01*
X94045000Y-117029000D01*
X94045000Y-115127000D01*
X95947000Y-115127000D01*
X95947000Y-117029000D01*
G37*
G36*
X92733395Y-115163546D02*
G01*
X92906466Y-115235234D01*
X92906467Y-115235235D01*
X93062227Y-115339310D01*
X93194690Y-115471773D01*
X93194691Y-115471775D01*
X93298766Y-115627534D01*
X93370454Y-115800605D01*
X93407000Y-115984333D01*
X93407000Y-116171667D01*
X93370454Y-116355395D01*
X93298766Y-116528466D01*
X93298765Y-116528467D01*
X93194690Y-116684227D01*
X93062227Y-116816690D01*
X92983818Y-116869081D01*
X92906466Y-116920766D01*
X92733395Y-116992454D01*
X92549667Y-117029000D01*
X92362333Y-117029000D01*
X92178605Y-116992454D01*
X92005534Y-116920766D01*
X91928182Y-116869081D01*
X91849773Y-116816690D01*
X91717310Y-116684227D01*
X91613235Y-116528467D01*
X91613234Y-116528466D01*
X91541546Y-116355395D01*
X91505000Y-116171667D01*
X91505000Y-115984333D01*
X91541546Y-115800605D01*
X91613234Y-115627534D01*
X91717309Y-115471775D01*
X91717310Y-115471773D01*
X91849773Y-115339310D01*
X92005533Y-115235235D01*
X92005534Y-115235234D01*
X92178605Y-115163546D01*
X92362333Y-115127000D01*
X92549667Y-115127000D01*
X92733395Y-115163546D01*
G37*
G36*
X90193395Y-115163546D02*
G01*
X90366466Y-115235234D01*
X90366467Y-115235235D01*
X90522227Y-115339310D01*
X90654690Y-115471773D01*
X90654691Y-115471775D01*
X90758766Y-115627534D01*
X90830454Y-115800605D01*
X90867000Y-115984333D01*
X90867000Y-116171667D01*
X90830454Y-116355395D01*
X90758766Y-116528466D01*
X90758765Y-116528467D01*
X90654690Y-116684227D01*
X90522227Y-116816690D01*
X90443818Y-116869081D01*
X90366466Y-116920766D01*
X90193395Y-116992454D01*
X90009667Y-117029000D01*
X89822333Y-117029000D01*
X89638605Y-116992454D01*
X89465534Y-116920766D01*
X89388182Y-116869081D01*
X89309773Y-116816690D01*
X89177310Y-116684227D01*
X89073235Y-116528467D01*
X89073234Y-116528466D01*
X89001546Y-116355395D01*
X88965000Y-116171667D01*
X88965000Y-115984333D01*
X89001546Y-115800605D01*
X89073234Y-115627534D01*
X89177309Y-115471775D01*
X89177310Y-115471773D01*
X89309773Y-115339310D01*
X89465533Y-115235235D01*
X89465534Y-115235234D01*
X89638605Y-115163546D01*
X89822333Y-115127000D01*
X90009667Y-115127000D01*
X90193395Y-115163546D01*
G37*
G36*
X98292228Y-114497703D02*
G01*
X98447100Y-114561853D01*
X98586481Y-114654985D01*
X98705015Y-114773519D01*
X98798147Y-114912900D01*
X98862297Y-115067772D01*
X98895000Y-115232184D01*
X98895000Y-115399816D01*
X98862297Y-115564228D01*
X98798147Y-115719100D01*
X98705015Y-115858481D01*
X98586481Y-115977015D01*
X98447100Y-116070147D01*
X98292228Y-116134297D01*
X98127816Y-116167000D01*
X97960184Y-116167000D01*
X97795772Y-116134297D01*
X97640900Y-116070147D01*
X97501519Y-115977015D01*
X97382985Y-115858481D01*
X97289853Y-115719100D01*
X97225703Y-115564228D01*
X97193000Y-115399816D01*
X97193000Y-115232184D01*
X97225703Y-115067772D01*
X97289853Y-114912900D01*
X97382985Y-114773519D01*
X97501519Y-114654985D01*
X97640900Y-114561853D01*
X97795772Y-114497703D01*
X97960184Y-114465000D01*
X98127816Y-114465000D01*
X98292228Y-114497703D01*
G37*
G36*
X105912228Y-114497703D02*
G01*
X106067100Y-114561853D01*
X106206481Y-114654985D01*
X106325015Y-114773519D01*
X106418147Y-114912900D01*
X106482297Y-115067772D01*
X106515000Y-115232184D01*
X106515000Y-115399816D01*
X106482297Y-115564228D01*
X106418147Y-115719100D01*
X106325015Y-115858481D01*
X106206481Y-115977015D01*
X106067100Y-116070147D01*
X105912228Y-116134297D01*
X105747816Y-116167000D01*
X105580184Y-116167000D01*
X105415772Y-116134297D01*
X105260900Y-116070147D01*
X105121519Y-115977015D01*
X105002985Y-115858481D01*
X104909853Y-115719100D01*
X104845703Y-115564228D01*
X104813000Y-115399816D01*
X104813000Y-115232184D01*
X104845703Y-115067772D01*
X104909853Y-114912900D01*
X105002985Y-114773519D01*
X105121519Y-114654985D01*
X105260900Y-114561853D01*
X105415772Y-114497703D01*
X105580184Y-114465000D01*
X105747816Y-114465000D01*
X105912228Y-114497703D01*
G37*
G36*
X114389000Y-115405000D02*
G01*
X112687000Y-115405000D01*
X112687000Y-113703000D01*
X114389000Y-113703000D01*
X114389000Y-115405000D01*
G37*
G36*
X105912228Y-111957703D02*
G01*
X106067100Y-112021853D01*
X106206481Y-112114985D01*
X106325015Y-112233519D01*
X106418147Y-112372900D01*
X106482297Y-112527772D01*
X106515000Y-112692184D01*
X106515000Y-112859816D01*
X106482297Y-113024228D01*
X106418147Y-113179100D01*
X106325015Y-113318481D01*
X106206481Y-113437015D01*
X106067100Y-113530147D01*
X105912228Y-113594297D01*
X105747816Y-113627000D01*
X105580184Y-113627000D01*
X105415772Y-113594297D01*
X105260900Y-113530147D01*
X105121519Y-113437015D01*
X105002985Y-113318481D01*
X104909853Y-113179100D01*
X104845703Y-113024228D01*
X104813000Y-112859816D01*
X104813000Y-112692184D01*
X104845703Y-112527772D01*
X104909853Y-112372900D01*
X105002985Y-112233519D01*
X105121519Y-112114985D01*
X105260900Y-112021853D01*
X105415772Y-111957703D01*
X105580184Y-111925000D01*
X105747816Y-111925000D01*
X105912228Y-111957703D01*
G37*
G36*
X98292228Y-111957703D02*
G01*
X98447100Y-112021853D01*
X98586481Y-112114985D01*
X98705015Y-112233519D01*
X98798147Y-112372900D01*
X98862297Y-112527772D01*
X98895000Y-112692184D01*
X98895000Y-112859816D01*
X98862297Y-113024228D01*
X98798147Y-113179100D01*
X98705015Y-113318481D01*
X98586481Y-113437015D01*
X98447100Y-113530147D01*
X98292228Y-113594297D01*
X98127816Y-113627000D01*
X97960184Y-113627000D01*
X97795772Y-113594297D01*
X97640900Y-113530147D01*
X97501519Y-113437015D01*
X97382985Y-113318481D01*
X97289853Y-113179100D01*
X97225703Y-113024228D01*
X97193000Y-112859816D01*
X97193000Y-112692184D01*
X97225703Y-112527772D01*
X97289853Y-112372900D01*
X97382985Y-112233519D01*
X97501519Y-112114985D01*
X97640900Y-112021853D01*
X97795772Y-111957703D01*
X97960184Y-111925000D01*
X98127816Y-111925000D01*
X98292228Y-111957703D01*
G37*
G36*
X98895000Y-111087000D02*
G01*
X97193000Y-111087000D01*
X97193000Y-109385000D01*
X98895000Y-109385000D01*
X98895000Y-111087000D01*
G37*
G36*
X105912228Y-109417703D02*
G01*
X106067100Y-109481853D01*
X106206481Y-109574985D01*
X106325015Y-109693519D01*
X106418147Y-109832900D01*
X106482297Y-109987772D01*
X106515000Y-110152184D01*
X106515000Y-110319816D01*
X106482297Y-110484228D01*
X106418147Y-110639100D01*
X106325015Y-110778481D01*
X106206481Y-110897015D01*
X106067100Y-110990147D01*
X105912228Y-111054297D01*
X105747816Y-111087000D01*
X105580184Y-111087000D01*
X105415772Y-111054297D01*
X105260900Y-110990147D01*
X105121519Y-110897015D01*
X105002985Y-110778481D01*
X104909853Y-110639100D01*
X104845703Y-110484228D01*
X104813000Y-110319816D01*
X104813000Y-110152184D01*
X104845703Y-109987772D01*
X104909853Y-109832900D01*
X105002985Y-109693519D01*
X105121519Y-109574985D01*
X105260900Y-109481853D01*
X105415772Y-109417703D01*
X105580184Y-109385000D01*
X105747816Y-109385000D01*
X105912228Y-109417703D01*
G37*
G36*
X87595059Y-109259860D02*
G01*
X87634737Y-109276295D01*
X87731732Y-109316472D01*
X87854735Y-109398660D01*
X87959340Y-109503265D01*
X88041528Y-109626268D01*
X88041529Y-109626270D01*
X88098140Y-109762941D01*
X88127000Y-109908032D01*
X88127000Y-110055968D01*
X88098140Y-110201059D01*
X88048950Y-110319815D01*
X88041528Y-110337732D01*
X87959340Y-110460735D01*
X87854735Y-110565340D01*
X87731732Y-110647528D01*
X87731731Y-110647529D01*
X87731730Y-110647529D01*
X87595059Y-110704140D01*
X87449968Y-110733000D01*
X87302032Y-110733000D01*
X87156941Y-110704140D01*
X87020270Y-110647529D01*
X87020269Y-110647529D01*
X87020268Y-110647528D01*
X86897265Y-110565340D01*
X86792660Y-110460735D01*
X86710472Y-110337732D01*
X86703051Y-110319815D01*
X86653860Y-110201059D01*
X86625000Y-110055968D01*
X86625000Y-109908032D01*
X86653860Y-109762941D01*
X86710471Y-109626270D01*
X86710472Y-109626268D01*
X86792660Y-109503265D01*
X86897265Y-109398660D01*
X87020268Y-109316472D01*
X87117264Y-109276295D01*
X87156941Y-109259860D01*
X87302032Y-109231000D01*
X87449968Y-109231000D01*
X87595059Y-109259860D01*
G37*
G36*
X95215059Y-109259860D02*
G01*
X95254737Y-109276295D01*
X95351732Y-109316472D01*
X95474735Y-109398660D01*
X95579340Y-109503265D01*
X95661528Y-109626268D01*
X95661529Y-109626270D01*
X95718140Y-109762941D01*
X95747000Y-109908032D01*
X95747000Y-110055968D01*
X95718140Y-110201059D01*
X95668950Y-110319815D01*
X95661528Y-110337732D01*
X95579340Y-110460735D01*
X95474735Y-110565340D01*
X95351732Y-110647528D01*
X95351731Y-110647529D01*
X95351730Y-110647529D01*
X95215059Y-110704140D01*
X95069968Y-110733000D01*
X94922032Y-110733000D01*
X94776941Y-110704140D01*
X94640270Y-110647529D01*
X94640269Y-110647529D01*
X94640268Y-110647528D01*
X94517265Y-110565340D01*
X94412660Y-110460735D01*
X94330472Y-110337732D01*
X94323051Y-110319815D01*
X94273860Y-110201059D01*
X94245000Y-110055968D01*
X94245000Y-109908032D01*
X94273860Y-109762941D01*
X94330471Y-109626270D01*
X94330472Y-109626268D01*
X94412660Y-109503265D01*
X94517265Y-109398660D01*
X94640268Y-109316472D01*
X94737264Y-109276295D01*
X94776941Y-109259860D01*
X94922032Y-109231000D01*
X95069968Y-109231000D01*
X95215059Y-109259860D01*
G37*
G36*
X83959000Y-109613000D02*
G01*
X82157000Y-109613000D01*
X82157000Y-107811000D01*
X83959000Y-107811000D01*
X83959000Y-109613000D01*
G37*
G36*
X126377000Y-109359000D02*
G01*
X124575000Y-109359000D01*
X124575000Y-107557000D01*
X126377000Y-107557000D01*
X126377000Y-109359000D01*
G37*
G36*
X119977000Y-109309000D02*
G01*
X118275000Y-109309000D01*
X118275000Y-107607000D01*
X119977000Y-107607000D01*
X119977000Y-109309000D01*
G37*
G36*
X111754228Y-107639703D02*
G01*
X111909100Y-107703853D01*
X112048481Y-107796985D01*
X112167015Y-107915519D01*
X112260147Y-108054900D01*
X112324297Y-108209772D01*
X112357000Y-108374184D01*
X112357000Y-108541816D01*
X112324297Y-108706228D01*
X112260147Y-108861100D01*
X112167015Y-109000481D01*
X112048481Y-109119015D01*
X111909100Y-109212147D01*
X111754228Y-109276297D01*
X111589816Y-109309000D01*
X111422184Y-109309000D01*
X111257772Y-109276297D01*
X111102900Y-109212147D01*
X110963519Y-109119015D01*
X110844985Y-109000481D01*
X110751853Y-108861100D01*
X110687703Y-108706228D01*
X110655000Y-108541816D01*
X110655000Y-108374184D01*
X110687703Y-108209772D01*
X110751853Y-108054900D01*
X110844985Y-107915519D01*
X110963519Y-107796985D01*
X111102900Y-107703853D01*
X111257772Y-107639703D01*
X111422184Y-107607000D01*
X111589816Y-107607000D01*
X111754228Y-107639703D01*
G37*
G36*
X90055000Y-105803000D02*
G01*
X88253000Y-105803000D01*
X88253000Y-104001000D01*
X90055000Y-104001000D01*
X90055000Y-105803000D01*
G37*
G36*
X104642228Y-103321703D02*
G01*
X104797100Y-103385853D01*
X104936481Y-103478985D01*
X105055015Y-103597519D01*
X105148147Y-103736900D01*
X105212297Y-103891772D01*
X105245000Y-104056184D01*
X105245000Y-104223816D01*
X105212297Y-104388228D01*
X105148147Y-104543100D01*
X105055015Y-104682481D01*
X104936481Y-104801015D01*
X104797100Y-104894147D01*
X104642228Y-104958297D01*
X104477816Y-104991000D01*
X104310184Y-104991000D01*
X104145772Y-104958297D01*
X103990900Y-104894147D01*
X103851519Y-104801015D01*
X103732985Y-104682481D01*
X103639853Y-104543100D01*
X103575703Y-104388228D01*
X103543000Y-104223816D01*
X103543000Y-104056184D01*
X103575703Y-103891772D01*
X103639853Y-103736900D01*
X103732985Y-103597519D01*
X103851519Y-103478985D01*
X103990900Y-103385853D01*
X104145772Y-103321703D01*
X104310184Y-103289000D01*
X104477816Y-103289000D01*
X104642228Y-103321703D01*
G37*
G36*
X99642228Y-103321703D02*
G01*
X99797100Y-103385853D01*
X99936481Y-103478985D01*
X100055015Y-103597519D01*
X100148147Y-103736900D01*
X100212297Y-103891772D01*
X100245000Y-104056184D01*
X100245000Y-104223816D01*
X100212297Y-104388228D01*
X100148147Y-104543100D01*
X100055015Y-104682481D01*
X99936481Y-104801015D01*
X99797100Y-104894147D01*
X99642228Y-104958297D01*
X99477816Y-104991000D01*
X99310184Y-104991000D01*
X99145772Y-104958297D01*
X98990900Y-104894147D01*
X98851519Y-104801015D01*
X98732985Y-104682481D01*
X98639853Y-104543100D01*
X98575703Y-104388228D01*
X98543000Y-104223816D01*
X98543000Y-104056184D01*
X98575703Y-103891772D01*
X98639853Y-103736900D01*
X98732985Y-103597519D01*
X98851519Y-103478985D01*
X98990900Y-103385853D01*
X99145772Y-103321703D01*
X99310184Y-103289000D01*
X99477816Y-103289000D01*
X99642228Y-103321703D01*
G37*
G36*
X118329059Y-102147860D02*
G01*
X118465732Y-102204472D01*
X118588735Y-102286660D01*
X118693340Y-102391265D01*
X118775528Y-102514268D01*
X118832140Y-102650941D01*
X118861000Y-102796033D01*
X118861000Y-102943967D01*
X118832140Y-103089059D01*
X118775528Y-103225732D01*
X118693340Y-103348735D01*
X118588735Y-103453340D01*
X118465732Y-103535528D01*
X118465731Y-103535529D01*
X118465730Y-103535529D01*
X118329059Y-103592140D01*
X118183968Y-103621000D01*
X118036032Y-103621000D01*
X117890941Y-103592140D01*
X117754270Y-103535529D01*
X117754269Y-103535529D01*
X117754268Y-103535528D01*
X117631265Y-103453340D01*
X117526660Y-103348735D01*
X117444472Y-103225732D01*
X117387860Y-103089059D01*
X117359000Y-102943967D01*
X117359000Y-102796033D01*
X117387860Y-102650941D01*
X117444472Y-102514268D01*
X117526660Y-102391265D01*
X117631265Y-102286660D01*
X117754268Y-102204472D01*
X117890941Y-102147860D01*
X118036032Y-102119000D01*
X118183968Y-102119000D01*
X118329059Y-102147860D01*
G37*
G36*
X110709059Y-102147860D02*
G01*
X110845732Y-102204472D01*
X110968735Y-102286660D01*
X111073340Y-102391265D01*
X111155528Y-102514268D01*
X111212140Y-102650941D01*
X111241000Y-102796033D01*
X111241000Y-102943967D01*
X111212140Y-103089059D01*
X111155528Y-103225732D01*
X111073340Y-103348735D01*
X110968735Y-103453340D01*
X110845732Y-103535528D01*
X110845731Y-103535529D01*
X110845730Y-103535529D01*
X110709059Y-103592140D01*
X110563968Y-103621000D01*
X110416032Y-103621000D01*
X110270941Y-103592140D01*
X110134270Y-103535529D01*
X110134269Y-103535529D01*
X110134268Y-103535528D01*
X110011265Y-103453340D01*
X109906660Y-103348735D01*
X109824472Y-103225732D01*
X109767860Y-103089059D01*
X109739000Y-102943967D01*
X109739000Y-102796033D01*
X109767860Y-102650941D01*
X109824472Y-102514268D01*
X109906660Y-102391265D01*
X110011265Y-102286660D01*
X110134268Y-102204472D01*
X110270941Y-102147860D01*
X110416032Y-102119000D01*
X110563968Y-102119000D01*
X110709059Y-102147860D01*
G37*
G36*
X127365412Y-99389340D02*
G01*
X127481579Y-99412447D01*
X127624213Y-99471528D01*
X127760887Y-99528140D01*
X127782042Y-99536903D01*
X128052451Y-99717585D01*
X128282415Y-99947549D01*
X128463097Y-100217958D01*
X128587553Y-100518421D01*
X128651000Y-100837391D01*
X128651000Y-101162609D01*
X128587553Y-101481579D01*
X128463097Y-101782042D01*
X128282415Y-102052451D01*
X128052451Y-102282415D01*
X127782042Y-102463097D01*
X127481579Y-102587553D01*
X127375256Y-102608702D01*
X127162611Y-102651000D01*
X126837389Y-102651000D01*
X126624744Y-102608702D01*
X126518421Y-102587553D01*
X126217958Y-102463097D01*
X125947549Y-102282415D01*
X125717585Y-102052451D01*
X125536903Y-101782042D01*
X125412447Y-101481579D01*
X125349000Y-101162609D01*
X125349000Y-100837391D01*
X125412447Y-100518421D01*
X125536903Y-100217958D01*
X125717585Y-99947549D01*
X125947549Y-99717585D01*
X126217958Y-99536903D01*
X126239114Y-99528140D01*
X126375787Y-99471528D01*
X126518421Y-99412447D01*
X126634588Y-99389340D01*
X126837389Y-99349000D01*
X127162611Y-99349000D01*
X127365412Y-99389340D01*
G37*
G36*
X85365412Y-99389340D02*
G01*
X85481579Y-99412447D01*
X85624213Y-99471528D01*
X85760887Y-99528140D01*
X85782042Y-99536903D01*
X86052451Y-99717585D01*
X86282415Y-99947549D01*
X86463097Y-100217958D01*
X86587553Y-100518421D01*
X86651000Y-100837391D01*
X86651000Y-101162609D01*
X86587553Y-101481579D01*
X86463097Y-101782042D01*
X86282415Y-102052451D01*
X86052451Y-102282415D01*
X85782042Y-102463097D01*
X85481579Y-102587553D01*
X85375256Y-102608702D01*
X85162611Y-102651000D01*
X84837389Y-102651000D01*
X84624744Y-102608702D01*
X84518421Y-102587553D01*
X84217958Y-102463097D01*
X83947549Y-102282415D01*
X83717585Y-102052451D01*
X83536903Y-101782042D01*
X83412447Y-101481579D01*
X83349000Y-101162609D01*
X83349000Y-100837391D01*
X83412447Y-100518421D01*
X83536903Y-100217958D01*
X83717585Y-99947549D01*
X83947549Y-99717585D01*
X84217958Y-99536903D01*
X84239114Y-99528140D01*
X84375787Y-99471528D01*
X84518421Y-99412447D01*
X84634588Y-99389340D01*
X84837389Y-99349000D01*
X85162611Y-99349000D01*
X85365412Y-99389340D01*
G37*
G36*
X100697512Y-97909927D02*
G01*
X100846812Y-97939624D01*
X101010784Y-98007544D01*
X101158354Y-98106147D01*
X101283853Y-98231646D01*
X101382456Y-98379216D01*
X101450376Y-98543188D01*
X101485000Y-98717259D01*
X101485000Y-98894741D01*
X101450376Y-99068812D01*
X101382456Y-99232784D01*
X101283853Y-99380354D01*
X101158354Y-99505853D01*
X101010784Y-99604456D01*
X100846812Y-99672376D01*
X100697512Y-99702073D01*
X100672742Y-99707000D01*
X100495258Y-99707000D01*
X100470488Y-99702073D01*
X100321188Y-99672376D01*
X100157216Y-99604456D01*
X100009646Y-99505853D01*
X99884147Y-99380354D01*
X99785544Y-99232784D01*
X99717624Y-99068812D01*
X99683000Y-98894741D01*
X99683000Y-98717259D01*
X99717624Y-98543188D01*
X99785544Y-98379216D01*
X99884147Y-98231646D01*
X100009646Y-98106147D01*
X100157216Y-98007544D01*
X100321188Y-97939624D01*
X100470488Y-97909927D01*
X100495258Y-97905000D01*
X100672742Y-97905000D01*
X100697512Y-97909927D01*
G37*
G36*
X122567000Y-99707000D02*
G01*
X120765000Y-99707000D01*
X120765000Y-97905000D01*
X122567000Y-97905000D01*
X122567000Y-99707000D01*
G37*
G36*
X104025000Y-99707000D02*
G01*
X102223000Y-99707000D01*
X102223000Y-97905000D01*
X104025000Y-97905000D01*
X104025000Y-99707000D01*
G37*
G36*
X118329059Y-98083860D02*
G01*
X118382865Y-98106147D01*
X118465732Y-98140472D01*
X118588735Y-98222660D01*
X118693340Y-98327265D01*
X118728054Y-98379218D01*
X118775529Y-98450270D01*
X118832140Y-98586941D01*
X118861000Y-98732032D01*
X118861000Y-98879968D01*
X118858061Y-98894742D01*
X118832140Y-99025059D01*
X118775528Y-99161732D01*
X118693340Y-99284735D01*
X118588735Y-99389340D01*
X118465732Y-99471528D01*
X118465731Y-99471529D01*
X118465730Y-99471529D01*
X118329059Y-99528140D01*
X118183968Y-99557000D01*
X118036032Y-99557000D01*
X117890941Y-99528140D01*
X117754270Y-99471529D01*
X117754269Y-99471529D01*
X117754268Y-99471528D01*
X117631265Y-99389340D01*
X117526660Y-99284735D01*
X117444472Y-99161732D01*
X117387860Y-99025059D01*
X117361939Y-98894742D01*
X117359000Y-98879968D01*
X117359000Y-98732032D01*
X117387860Y-98586941D01*
X117444471Y-98450270D01*
X117491946Y-98379218D01*
X117526660Y-98327265D01*
X117631265Y-98222660D01*
X117754268Y-98140472D01*
X117837136Y-98106147D01*
X117890941Y-98083860D01*
X118036032Y-98055000D01*
X118183968Y-98055000D01*
X118329059Y-98083860D01*
G37*
G36*
X110709059Y-98083860D02*
G01*
X110762865Y-98106147D01*
X110845732Y-98140472D01*
X110968735Y-98222660D01*
X111073340Y-98327265D01*
X111108054Y-98379218D01*
X111155529Y-98450270D01*
X111212140Y-98586941D01*
X111241000Y-98732032D01*
X111241000Y-98879968D01*
X111238061Y-98894742D01*
X111212140Y-99025059D01*
X111155528Y-99161732D01*
X111073340Y-99284735D01*
X110968735Y-99389340D01*
X110845732Y-99471528D01*
X110845731Y-99471529D01*
X110845730Y-99471529D01*
X110709059Y-99528140D01*
X110563968Y-99557000D01*
X110416032Y-99557000D01*
X110270941Y-99528140D01*
X110134270Y-99471529D01*
X110134269Y-99471529D01*
X110134268Y-99471528D01*
X110011265Y-99389340D01*
X109906660Y-99284735D01*
X109824472Y-99161732D01*
X109767860Y-99025059D01*
X109741939Y-98894742D01*
X109739000Y-98879968D01*
X109739000Y-98732032D01*
X109767860Y-98586941D01*
X109824471Y-98450270D01*
X109871946Y-98379218D01*
X109906660Y-98327265D01*
X110011265Y-98222660D01*
X110134268Y-98140472D01*
X110217136Y-98106147D01*
X110270941Y-98083860D01*
X110416032Y-98055000D01*
X110563968Y-98055000D01*
X110709059Y-98083860D01*
G37*
M02*
